<svg height="512pt" viewBox="0 0 512 512" width="512pt" xmlns="http://www.w3.org/2000/svg"><path d="M505.117 128.438l-40.96-40.961a23.384 23.384 0 0 0-16.645-6.895 23.381 23.381 0 0 0-16.64 6.895l-15.86 15.859V37.5c0-20.68-16.825-37.5-37.504-37.5H7.5C3.36 0 0 3.36 0 7.5v24.332a7.5 7.5 0 1 0 15 0V15h45v482H15V63.832c0-4.14-3.36-7.5-7.5-7.5s-7.5 3.36-7.5 7.5V504.5c0 4.14 3.36 7.5 7.5 7.5h370.008c20.68 0 37.5-16.82 37.5-37.5v-26.418a7.5 7.5 0 1 0-15 0V474.5c0 12.406-10.094 22.5-22.5 22.5H75.004V15h302.504c12.406 0 22.5 10.094 22.5 22.5v80.836l-47.5 47.5V136c0-6.34-5.16-11.5-11.5-11.5H139.004c-6.344 0-11.5 5.16-11.5 11.5v62c0 6.34 5.156 11.5 11.5 11.5h169.84l-58.973 58.969a7.497 7.497 0 0 0 0 10.605 7.502 7.502 0 0 0 10.61 0l153.09-153.086 10.605 10.606-222.742 222.738-10.606-10.605 47.024-47.024a7.497 7.497 0 0 0 0-10.605 7.502 7.502 0 0 0-10.61 0l-52.328 52.328a7.3 7.3 0 0 0-.566.64c-.036.047-.07.098-.106.145a6.96 6.96 0 0 0-.414.605c-.039.059-.07.121-.11.18a8.47 8.47 0 0 0-.355.703c-.015.035-.035.067-.047.102a7.24 7.24 0 0 0-.32.906l-22.535 80.57-.867 3.098a.457.457 0 0 0-.02.078l-.012.04a11.651 11.651 0 0 0-.386 2.8c-.035 2.762.96 5.352 2.863 7.254a9.648 9.648 0 0 0 4.16 2.45c.942.273 1.93.413 2.946.413.968 0 1.96-.129 2.949-.387l.117-.03 1.95-.548 81.718-22.855.02-.008c.3-.086.597-.187.89-.312.031-.012.059-.032.09-.043.242-.106.48-.23.715-.364.058-.035.117-.066.172-.101.21-.13.418-.27.617-.422.047-.035.094-.067.137-.102.222-.176.437-.363.64-.566l150.848-150.844v149.09a7.5 7.5 0 1 0 15 0v-164.09l90.11-90.105c9.175-9.176 9.175-24.11 0-33.286zM142.504 194.5v-55h195.004v41.336L323.844 194.5zm292.281-47.297l10.606 10.606-222.743 222.738-10.605-10.61zM193.891 418.555l-19.86-19.86 9.957-35.593 45.496 45.496zm-24.493-3.282l7.914 7.914-10.988 3.079zm74.465-13.515l-10.605-10.606 222.738-222.738 10.61 10.61zm250.649-250.64l-17.301 17.296-53.031-53.031 17.297-17.297a8.48 8.48 0 0 1 6.035-2.5c2.281 0 4.425.887 6.039 2.5l40.96 40.96c3.329 3.325 3.329 8.743 0 12.071zm0 0"/></svg>