<svg height="511pt" viewBox="-68 0 511 511.998" width="511pt" xmlns="http://www.w3.org/2000/svg"><path d="M158.004 329.406c-4.14 0-7.5 3.36-7.5 7.5s3.36 7.5 7.5 7.5h60.004c4.14 0 7.5-3.36 7.5-7.5s-3.36-7.5-7.5-7.5zm0 0"/><path d="M369.074 74.918c8.57-8.57 8.57-22.516 0-31.086L347.18 21.937a21.838 21.838 0 0 0-15.547-6.437 21.835 21.835 0 0 0-15.543 6.438l-15.711 15.71C268.164 13.328 228.53 0 188.004 0c-49.14 0-95.527 18.95-130.602 53.36a7.501 7.501 0 0 0 5.25 12.855 7.48 7.48 0 0 0 5.254-2.149C100.16 32.426 142.813 15 188.004 15c36.57 0 72.344 11.8 101.656 33.367L49.89 288.133C28.31 258.82 16.5 223.047 16.5 186.48c0-35.761 10.898-70.023 31.516-99.085a7.501 7.501 0 0 0-12.234-8.68C13.354 110.328 1.5 147.594 1.5 186.48c0 40.524 13.34 80.157 37.672 112.372L28.93 309.09c-3.414 3.418-4.403 8.348-2.985 12.648-9.27 6.168-21.664 20.653-25.37 54.516-.423 3.867.929 7.68 3.71 10.46 2.442 2.446 5.688 3.786 9.067 3.786.464 0 .93-.027 1.394-.078 33.856-3.695 48.34-16.086 54.512-25.356 1.238.41 2.547.633 3.894.633 3.309 0 6.422-1.293 8.762-3.633l11.426-11.421c5.59 6.632 9.855 14.28 12.61 22.597-6.204 3.27-10.446 9.774-10.446 17.254v76c0 10.754 8.746 19.5 19.5 19.5h9.86c3.413 14.875 16.75 26 32.64 26h61.004c15.894 0 29.226-11.125 32.644-26h9.856c10.754 0 19.5-8.746 19.5-19.5v-76c0-7.48-4.242-13.984-10.442-17.254a69.846 69.846 0 0 1 4.004-9.617c5.016-9.84 12.383-18.367 21.301-24.656a186.58 186.58 0 0 0 10.504-7.977 7.498 7.498 0 0 0 1.07-10.55 7.503 7.503 0 0 0-10.554-1.07 172.307 172.307 0 0 1-9.668 7.339c-10.903 7.691-19.899 18.102-26.024 30.113a85.206 85.206 0 0 0-5.652 14.172h-98.875a7.5 7.5 0 0 0-7.5 7.5c0 4.145 3.355 7.5 7.5 7.5h104.644c.012 0 .02.004.028.004s.011-.004.02-.004h.144c2.48 0 4.5 2.02 4.5 4.5v76c0 2.484-2.02 4.5-4.5 4.5H115.004a4.501 4.501 0 0 1-4.5-4.5v-76c0-2.48 2.02-4.5 4.5-4.5h.144c.008 0 .012.004.02.004s.016-.004.027-.004h8.977a7.5 7.5 0 1 0 0-15h-3.203c-3.422-11.5-9.203-22.023-17-30.984L338.94 105.047c13.47 24.918 20.567 52.867 20.567 81.43 0 40.89-14.63 80.484-41.192 111.488-2.695 3.148-2.332 7.883.813 10.574a7.462 7.462 0 0 0 4.875 1.809 7.483 7.483 0 0 0 5.7-2.621c28.894-33.723 44.804-76.782 44.804-121.25 0-32.563-8.465-64.403-24.524-92.473zM235.418 486c-2.883 6.477-9.379 11-16.914 11h-61c-7.531 0-14.031-4.523-16.914-11zM73.152 349.617l-31.77-31.765 9.216-9.211 1.367-1.368L83.73 339.04zm21.188-21.183l-31.77-31.77L278.11 81.133l31.765 31.77zM288.715 70.527l10.578-10.582 31.45 31.446.253.39-10.516 10.512zm37.98-37.98a6.938 6.938 0 0 1 4.938-2.047c1.867 0 3.62.727 4.937 2.047l21.895 21.89a6.99 6.99 0 0 1 0 9.875l-16.793 16.793-31.77-31.765zM15.488 377.883v-.004zm.317-2.688c3.785-29.48 14.554-38.941 19.851-41.86l5.7 5.704-8.82 8.82a7.497 7.497 0 0 0 0 10.606 7.484 7.484 0 0 0 5.304 2.2c1.918 0 3.84-.735 5.305-2.2l8.82-8.82 5.7 5.703c-2.911 5.293-12.372 16.066-41.86 19.847zm0 0"/><path d="M206.004 435.5a7.5 7.5 0 1 0 0-15h-36c-4.14 0-7.5 3.36-7.5 7.5s3.36 7.5 7.5 7.5zm0 0"/></svg>