<svg height="512pt" viewBox="-63 0 512 512.001" width="512pt" xmlns="http://www.w3.org/2000/svg"><path d="M338.66 194.227c-28.164-32.829-66.555-55.223-108.66-63.551v-3.008c0-4.14-3.36-7.5-7.5-7.5s-7.5 3.36-7.5 7.5v100.023h-44.996l-.004-136h45v3.977c0 4.14 3.36 7.5 7.5 7.5s7.5-3.36 7.5-7.5V22c0-12.133-9.871-22-22-22h-31c-12.129 0-22 9.867-22 22v108.676c-26.95 5.34-52.805 16.57-75.129 32.699a7.506 7.506 0 0 0-1.687 10.473 7.493 7.493 0 0 0 10.472 1.687c19.778-14.289 42.555-24.402 66.344-29.539v36c-28.676 7.82-54.559 24.703-73.379 47.984C61.231 255.21 50 287 50 319.5 50 398.074 113.926 462 192.5 462c17.71 0 35-3.21 51.379-9.547a7.501 7.501 0 0 0 4.293-9.7 7.505 7.505 0 0 0-9.703-4.288C223.82 444.129 208.355 447 192.5 447 122.195 447 65 389.805 65 319.5c0-56.77 36.559-105.617 90-121.898v37.351c-33.098 14.711-55 48.035-55 84.547 0 51.008 41.496 92.5 92.5 92.5s92.5-41.492 92.5-92.5c0-36.512-21.902-69.836-55-84.547v-37.351c53.445 16.28 90 65.128 90 121.898 0 41.766-20.508 80.941-54.86 104.8a7.499 7.499 0 0 0 4.286 13.66 7.455 7.455 0 0 0 4.27-1.339C312.081 409.961 335 366.18 335 319.5c0-32.5-11.23-64.29-31.625-89.52-18.82-23.28-44.7-40.164-73.375-47.984v-36.02c81.64 17.434 140 89.047 140 173.524 0 97.875-79.625 177.5-177.5 177.5S15 417.375 15 319.5c0-46.594 17.918-90.613 50.453-123.953 2.895-2.961 2.836-7.711-.129-10.606a7.501 7.501 0 0 0-10.605.13C19.434 221.23 0 268.972 0 319.5 0 425.645 86.355 512 192.5 512S385 425.645 385 319.5c0-45.953-16.457-90.445-46.34-125.273zM185 272.69v12.5a7.5 7.5 0 0 0 7.5 7.5c4.145 0 7.5-3.355 7.5-7.5v-12.5h8.09c1.687 5.809 2.625 20.141-15.59 43.711-18.207-23.566-17.273-37.898-15.59-43.71zm-2.527 55.223c2.437 3.035 6.093 4.777 10.027 4.777s7.586-1.742 10.023-4.777c7.86-9.781 13.016-18.539 16.301-26.246a31.879 31.879 0 0 1 5.485 17.836c0 17.539-14.27 31.809-31.809 31.809s-31.809-14.27-31.809-31.81a31.864 31.864 0 0 1 5.489-17.839c3.28 7.711 8.441 16.465 16.293 26.25zM170 242.691h45v15h-45zm0-166v-15h45v15zM177 15h31c3.86 0 7 3.14 7 7v24.691h-45V22c0-3.86 3.14-7 7-7zm93 304.5c0 42.734-34.766 77.5-77.5 77.5S115 362.234 115 319.5c0-28.297 15.7-54.312 40-67.809v8.602c0 4.836 2.793 9.027 6.844 11.066-.715 3.543-1.04 7.938-.426 13.164-9.914 8.829-15.727 21.582-15.727 34.977 0 25.813 20.996 46.813 46.809 46.813 25.809 0 46.809-21 46.809-46.813 0-13.395-5.813-26.148-15.727-34.977.613-5.226.29-9.62-.426-13.164 4.051-2.039 6.844-6.23 6.844-11.066v-8.602c24.3 13.5 40 39.512 40 67.809zm0 0"/></svg>