<svg height="512pt" viewBox="0 0 512 512" width="512pt" xmlns="http://www.w3.org/2000/svg"><path d="M489.5 467H465V308.054c0-.296-.023-.585-.055-.874l-.035-.23a7.566 7.566 0 0 0-.133-.673l-.058-.23a6.752 6.752 0 0 0-.25-.75l-.035-.098a7.245 7.245 0 0 0-.403-.82l-.023-.05-42.613-74.388a1.491 1.491 0 0 1-.063-.105c-1.969-3.305-5.27-5.281-8.832-5.281s-6.863 1.976-8.832 5.28a1.64 1.64 0 0 1-.063.106l-42.613 74.387c-.012.016-.015.035-.023.05-.153.267-.285.54-.403.821l-.035.098a6.752 6.752 0 0 0-.308.98 7.566 7.566 0 0 0-.133.672l-.035.23c-.032.29-.055.579-.055.876v72.113c0 4.14 3.355 7.5 7.5 7.5s7.5-3.36 7.5-7.5v-64.61h15V467h-15v-54.832c0-4.145-3.355-7.5-7.5-7.5s-7.5 3.355-7.5 7.5V467h-51.5V254.5c0-.297-.023-.59-.055-.879l-.035-.226a7.298 7.298 0 0 0-.133-.672 7.1 7.1 0 0 0-.309-.984l-.034-.094a7.245 7.245 0 0 0-.403-.82l-.023-.055-42.613-74.383a1.492 1.492 0 0 1-.063-.106c-1.969-3.308-5.27-5.281-8.832-5.281s-6.863 1.973-8.832 5.281c-.02.035-.04.07-.063.106l-42.613 74.383c-.012.02-.015.035-.023.054a6.936 6.936 0 0 0-.403.82l-.035.098c-.097.242-.18.492-.25.75a2.21 2.21 0 0 0-.058.23 7.298 7.298 0 0 0-.133.673l-.035.226c-.032.29-.055.582-.055.879v13.668c0 4.14 3.355 7.5 7.5 7.5s7.5-3.36 7.5-7.5V262h15v205h-15V300.168c0-4.145-3.355-7.5-7.5-7.5s-7.5 3.355-7.5 7.5V467H152v-22.832c0-4.145-3.355-7.5-7.5-7.5s-7.5 3.355-7.5 7.5V467h-15v-94.844h15v40.176c0 4.145 3.355 7.5 7.5 7.5s7.5-3.355 7.5-7.5v-47.68c0-.297-.023-.586-.055-.875l-.035-.23a7.854 7.854 0 0 0-.441-1.652l-.035-.094a6.99 6.99 0 0 0-.403-.824c-.008-.016-.015-.036-.023-.051l-42.613-74.387a1.491 1.491 0 0 1-.063-.105c-1.969-3.305-5.27-5.282-8.832-5.282s-6.863 1.977-8.832 5.282c-.02.035-.04.07-.063.105l-42.613 74.387c-.012.015-.015.035-.023.05a7.41 7.41 0 0 0-.403.82l-.035.099a7.338 7.338 0 0 0-.308.98 7.854 7.854 0 0 0-.133.672l-.035.23a7.92 7.92 0 0 0-.055.875V467H22.5C10.094 467 0 477.094 0 489.5S10.094 512 22.5 512h467c12.406 0 22.5-10.094 22.5-22.5S501.906 467 489.5 467zM435 315.555h15V467h-15zm-54.559-15l32.059-55.957 32.059 55.957zm24.559 15h15V467h-15zM278.5 262h15v205h-15zm-54.559-15L256 191.04 288.059 247zm24.559 15h15v205h-15zM107 467H92v-94.844h15zm-7.5-165.805l32.059 55.961H67.44zM62 372.156h15V467H62zM489.5 497h-467c-4.137 0-7.5-3.363-7.5-7.5s3.363-7.5 7.5-7.5h467c4.137 0 7.5 3.363 7.5 7.5s-3.363 7.5-7.5 7.5zm0 0"/><path d="M99.5 206c20.68 0 37.5-16.82 37.5-37.5a37.27 37.27 0 0 0-4.516-17.828l100.172-83.856C239.066 71.934 247.18 75 256 75c11.234 0 21.328-4.973 28.203-12.828l92.656 52.683A37.415 37.415 0 0 0 375 126.5c0 20.68 16.82 37.5 37.5 37.5s37.5-16.82 37.5-37.5S433.18 89 412.5 89c-11.234 0-21.328 4.973-28.203 12.828L291.64 49.145A37.415 37.415 0 0 0 293.5 37.5C293.5 16.82 276.68 0 256 0s-37.5 16.82-37.5 37.5a37.27 37.27 0 0 0 4.516 17.828l-100.172 83.856C116.434 134.066 108.32 131 99.5 131 78.82 131 62 147.82 62 168.5S78.82 206 99.5 206zm313-102c12.406 0 22.5 10.094 22.5 22.5S424.906 149 412.5 149 390 138.906 390 126.5s10.094-22.5 22.5-22.5zM256 15c12.406 0 22.5 10.094 22.5 22.5S268.406 60 256 60s-22.5-10.094-22.5-22.5S243.594 15 256 15zM99.5 146c12.406 0 22.5 10.094 22.5 22.5S111.906 191 99.5 191 77 180.906 77 168.5 87.094 146 99.5 146zm0 0"/></svg>