<svg height="512pt" viewBox="-38 0 512 512" width="512pt" xmlns="http://www.w3.org/2000/svg"><path d="M427.5 435.422a7.5 7.5 0 0 0 7.5-7.5V284.5c0-8.445-3.8-16.3-10.414-21.543-.016-.012-.031-.02-.047-.031a7.216 7.216 0 0 0-.277-.203A27.544 27.544 0 0 0 407.5 257h-25V7.5A7.5 7.5 0 0 0 375 0H60c-4.14 0-7.5 3.36-7.5 7.5V32c0 4.14 3.36 7.5 7.5 7.5s7.5-3.36 7.5-7.5V15h300v275.148L270 345.863V228.16c0-.297-.023-.586-.055-.875-.011-.086-.027-.168-.039-.254a6.712 6.712 0 0 0-.125-.633c-.02-.09-.043-.18-.066-.27a8.152 8.152 0 0 0-.227-.679c-.023-.054-.039-.11-.062-.164a6.89 6.89 0 0 0-.383-.781 1.525 1.525 0 0 0-.035-.078l-42.617-74.387c-.02-.035-.04-.07-.063-.105-1.965-3.305-5.266-5.278-8.828-5.278-3.566 0-6.867 1.973-8.832 5.278a1.49 1.49 0 0 0-.063.105l-42.613 74.387c-.015.023-.023.05-.039.074-.14.254-.27.516-.383.79-.02.05-.035.1-.054.148-.09.226-.168.46-.235.695a6.035 6.035 0 0 0-.062.258 6.053 6.053 0 0 0-.125.644 2.833 2.833 0 0 0-.04.25 7.159 7.159 0 0 0-.054.875v59.59a7.5 7.5 0 1 0 15 0v-52.09h15v127.344l-15-8.57V319.75a7.5 7.5 0 1 0-15 0v26.113l-97.5-55.718V64c0-4.14-3.36-7.5-7.5-7.5s-7.5 3.36-7.5 7.5v193h-25a27.562 27.562 0 0 0-16.781 5.734c-.086.063-.172.121-.254.188a.263.263 0 0 1-.043.027C3.8 268.2 0 276.055 0 284.5v200c0 8.445 3.8 16.3 10.414 21.543A27.582 27.582 0 0 0 27.5 512h380c6.078 0 12.04-2.055 16.824-5.766.063-.047.125-.09.188-.136a.857.857 0 0 1 .066-.047C431.203 500.8 435 492.945 435 484.5V460a7.5 7.5 0 1 0-15 0v24.5c0 2.195-.582 4.297-1.633 6.145L232.617 384.5l185.75-106.145A12.402 12.402 0 0 1 420 284.5v143.422a7.5 7.5 0 0 0 7.5 7.5zM382.5 272h16.758l-16.758 9.574zM255 235.66v118.774l-15 8.57V235.66zm-37.5-70.965l32.059 55.961H185.44zM210 235.66h15v135.914l-7.5 4.29-7.5-4.29zM52.5 281.574L35.742 272H52.5zM19.738 494.29A12.417 12.417 0 0 1 15 484.5v-200c0-2.195.582-4.297 1.633-6.145L399.258 497H27.5c-2.848 0-5.531-.934-7.762-2.71zm0 0"/><path d="M104.5 55.5h220a7.5 7.5 0 1 0 0-15h-220c-4.14 0-7.5 3.36-7.5 7.5s3.36 7.5 7.5 7.5zm0 33.332h220c4.145 0 7.5-3.355 7.5-7.5a7.5 7.5 0 0 0-7.5-7.5h-220a7.5 7.5 0 1 0 0 15zm0 33.336h220a7.5 7.5 0 0 0 7.5-7.5c0-4.145-3.355-7.5-7.5-7.5h-220a7.5 7.5 0 1 0 0 15zm0 33.332h56.078a7.5 7.5 0 1 0 0-15H104.5c-4.14 0-7.5 3.36-7.5 7.5s3.36 7.5 7.5 7.5zm0 0"/></svg>