<svg height="512pt" viewBox="0 0 512 512" width="512pt" xmlns="http://www.w3.org/2000/svg"><path d="M221.484 160.855a9.75 9.75 0 0 0-8.71-1.382L101.19 195.508A11.571 11.571 0 0 0 95.477 194H43.828c-6.387 0-11.586 5.156-11.668 11.527-7.87 1.297-15.129 4.996-20.883 10.75C4.004 223.547 0 233.215 0 243.5c0 19.07 13.938 34.938 32.16 37.969.078 6.37 5.281 11.531 11.668 11.531h3.32v37.5c0 12.406 10.094 22.5 22.5 22.5s22.5-10.094 22.5-22.5V293h3.329c2.078 0 4.023-.55 5.714-1.508l46.582 15.043a7.539 7.539 0 0 0 2.309.367 7.51 7.51 0 0 0 7.137-5.199 7.506 7.506 0 0 0-4.832-9.441l-45.235-14.606v-68.308l103.348-33.38v135.063l-27.66-8.933a7.5 7.5 0 1 0-4.61 14.273l34.524 11.149a9.761 9.761 0 0 0 8.73-1.375 9.756 9.756 0 0 0 4.016-7.875V168.73a9.772 9.772 0 0 0-4.016-7.875zM47.152 209h45v69h-45zM15 243.5c0-6.277 2.445-12.18 6.883-16.617a23.35 23.35 0 0 1 10.27-6.012v45.25C22.27 263.344 15 254.258 15 243.5zm62.148 87c0 4.137-3.363 7.5-7.5 7.5-4.132 0-7.5-3.363-7.5-7.5V293h15zM306.469 107H376a7.5 7.5 0 0 0 7.5-7.5c0-4.145-3.355-7.5-7.5-7.5h-69.531a.504.504 0 0 1-.5-.5V20.871L358.48 52.93a11.467 11.467 0 0 0 5.989 1.691 11.47 11.47 0 0 0 5.992-1.691l52.508-32.059V91.5c0 .277-.223.5-.5.5h-14.594a7.5 7.5 0 1 0 0 15h14.594c8.547 0 15.5-6.953 15.5-15.5v-76c0-4.434-1.895-8.594-5.196-11.55a7.847 7.847 0 0 0-.421-.388 1.097 1.097 0 0 0-.07-.066c-.063-.05-.126-.09-.188-.14-.09-.07-.18-.141-.274-.204A15.506 15.506 0 0 0 422.47 0h-116a15.523 15.523 0 0 0-9.332 3.14c-.114.079-.223.16-.328.247-.051.039-.11.074-.16.117a.749.749 0 0 1-.06.055 6.886 6.886 0 0 0-.433.398c-3.293 2.945-5.187 7.11-5.187 11.543v76c0 8.547 6.953 15.5 15.5 15.5zm58-67.988L325.14 15h78.66zm90.676 369.945a6.854 6.854 0 0 0-.43-.395 1.162 1.162 0 0 0-.07-.066c-.06-.047-.122-.086-.18-.137-.094-.07-.188-.14-.281-.207a15.503 15.503 0 0 0-9.348-3.152H384a7.5 7.5 0 0 0-7.5 7.5c0 4.145 3.355 7.5 7.5 7.5h42.164l-39.332 24.012L347.504 420h4.371c4.145 0 7.5-3.355 7.5-7.5a7.5 7.5 0 0 0-7.5-7.5h-23.043a15.532 15.532 0 0 0-9.332 3.14c-.113.079-.223.165-.336.25-.047.04-.102.075-.152.114a.803.803 0 0 1-.059.055 7.017 7.017 0 0 0-.437.402c-3.293 2.95-5.184 7.105-5.184 11.539v76c0 8.547 6.953 15.5 15.5 15.5h116c8.547 0 15.5-6.953 15.5-15.5v-76c0-4.43-1.89-8.59-5.187-11.543zM444.832 497h-116a.501.501 0 0 1-.5-.5v-70.629l52.508 32.059a11.48 11.48 0 0 0 5.992 1.691c2.07 0 4.145-.562 5.992-1.691l52.508-32.059V496.5c0 .277-.223.5-.5.5zm61.981-304.543a6.886 6.886 0 0 0-.434-.398c-.024-.02-.043-.043-.067-.063-.058-.047-.12-.086-.18-.133-.097-.074-.187-.144-.284-.215a15.525 15.525 0 0 0-9.348-3.148h-116a15.534 15.534 0 0 0-9.336 3.14 6.39 6.39 0 0 0-.328.247c-.05.039-.106.078-.156.117-.024.016-.04.039-.063.055a5.896 5.896 0 0 0-.43.398c-3.292 2.95-5.187 7.11-5.187 11.543v76c0 8.547 6.953 15.5 15.5 15.5h116c8.547 0 15.5-6.953 15.5-15.5v-76c0-4.43-1.89-8.59-5.188-11.543zM477.827 203.5L438.5 227.512 399.172 203.5zm18.672 77h-116a.501.501 0 0 1-.5-.5v-70.629l52.508 32.059c1.847 1.129 3.922 1.691 5.992 1.691s4.145-.562 5.992-1.691L497 209.37V280c0 .273-.227.5-.5.5zM261.824 166.367C255.02 83.657 274.16 61.61 277.894 61c4.141 0 7.5-3.36 7.5-7.5s-3.359-7.5-7.5-7.5c-3.359 0-8.48 1.21-13.792 6.98-7.356 7.989-23.766 35.145-17.227 114.618 4.328 52.609-8.992 61.168-9.129 61.25.356-.211.57-.254.57-.254l5.282 14.039c3.968-1.492 23.5-12.188 18.226-76.266zm76.192 80.567l-.168-.024 2.304-14.82c-1.203-.188-12.472-1.57-36.918 7.402-20.71 7.602-36.097 5.031-36.457 4.969-4.039-.754-7.965 1.906-8.742 5.965-.773 4.07 1.895 8 5.961 8.773.34.067 4.012.739 10.098.739 7.984 0 20.12-1.16 34.308-6.368 20.512-7.527 29.52-6.644 29.614-6.636zm-43.879 201.461c-10.922 0-19.098-3.336-24.985-10.196-19.867-23.137-10.843-82.129-5.453-117.375l.715-4.699c7.274-47.91-18.562-60.133-19.668-60.629l-6.156 13.676-.149-.07c.68.343 16.594 8.863 11.145 44.773l-.715 4.68c-6.152 40.242-15.453 101.05 8.899 129.414 8.789 10.234 21.023 15.426 36.367 15.426a7.5 7.5 0 0 0 7.5-7.5c0-4.145-3.356-7.5-7.5-7.5zm0 0"/></svg>