<svg height="512pt" viewBox="0 0 512 512" width="512pt" xmlns="http://www.w3.org/2000/svg"><path d="M467.313 298.434h-29.43c-2.121-16.399-8.137-28.442-17.926-35.864-13.43-10.183-29.96-8.543-38.617-6.656a8.48 8.48 0 0 0-6.66 8.422 8.483 8.483 0 0 0 6.968 8.176c3.52.633 5.91 2.136 7.52 4.734 3.45 5.563 2.902 14.8 1.812 21.188h-38.292c-24.641 0-44.688 20.058-44.688 44.714v89.633c0 24.66 20.047 44.719 44.688 44.719H416c4.14 0 7.5-3.36 7.5-7.5s-3.36-7.5-7.5-7.5h-63.313c-16.37 0-29.687-13.332-29.687-29.719v-89.633c0-16.386 13.316-29.714 29.688-29.714h44.292a7.502 7.502 0 0 0 7.196-5.38c.695-2.366 6.422-23.015-1.555-37.507 2.871.77 5.703 2.027 8.274 3.976 7.492 5.68 11.757 16.399 12.671 31.856a7.502 7.502 0 0 0 7.489 7.055h36.257c16.372 0 29.688 13.332 29.688 29.718v89.633c0 16.387-13.316 29.719-29.688 29.719H448a7.5 7.5 0 1 0 0 15h19.313c24.64 0 44.687-20.063 44.687-44.719v-89.637c0-24.656-20.047-44.714-44.688-44.714zm0 0"/><path d="M293.5 407V264.098c22.68-13.04 38-37.5 38-65.489 0-41.629-33.867-75.5-75.5-75.5-6.203 0-12.227.77-18 2.188V51.34C238 23.03 214.95 0 186.621 0H95.668a7.5 7.5 0 1 0 0 15h90.953C206.68 15 223 31.3 223 51.34v79.379c-23.617 11.527-40.348 35.02-42.29 62.531h-46.35a7.497 7.497 0 0 0-7.192 5.379c-.828 2.8-7.785 27.844 2.477 44.46.28.45.57.891.867 1.321-4.602-.793-9.274-2.48-13.414-5.62-9.149-6.942-14.348-19.888-15.45-38.481a7.505 7.505 0 0 0-7.488-7.059H51.38c-20.06 0-36.38-16.3-36.38-36.34V51.34C15 31.3 31.32 15 51.379 15H64c4.14 0 7.5-3.36 7.5-7.5S68.14 0 64 0H51.379C23.05 0 0 23.031 0 51.34v105.57c0 28.309 23.05 51.34 51.379 51.34h35.918c2.312 19.52 9.273 33.797 20.734 42.488 9.5 7.207 20.387 9.254 29.696 9.254 5.793 0 10.976-.793 14.824-1.629 4.07-.902 6.855-4.437 6.773-8.605-.086-4.164-3.004-7.59-7.113-8.332-4.563-.817-7.676-2.785-9.793-6.2-4.469-7.214-3.543-19.238-2.11-26.976h40.829c3.058 23.898 17.328 44.328 37.363 55.848v23.566c0 4.145 3.355 7.5 7.5 7.5a7.5 7.5 0 0 0 7.5-7.5v-16.98a75.009 75.009 0 0 0 15 3.05v92.875c0 4.145 3.355 7.5 7.5 7.5a7.5 7.5 0 0 0 7.5-7.5v-92.875a75.065 75.065 0 0 0 15-3.05V407c-2.902 0-5.73 1.176-7.773 3.227A11.036 11.036 0 0 0 267.5 418v23c0 6.066 4.934 11 11 11v15c-6.066 0-11 4.934-11 11v7.5c0 6.34-5.16 11.5-11.5 11.5a11.42 11.42 0 0 1-8.129-3.363 11.432 11.432 0 0 1-3.371-8.137V478c0-6.066-4.938-11-11-11v-15c6.063 0 11-4.934 11-11v-23c0-6.066-4.938-11-11-11v-87a7.5 7.5 0 1 0-15 0v87a14.9 14.9 0 0 0 4.395 10.602 14.888 14.888 0 0 0 6.605 3.859V437c-6.066 0-11 4.934-11 11v23c0 6.066 4.934 11 11 11v3.5c0 7.078 2.758 13.734 7.766 18.742C242.27 509.246 248.922 512 256 512c14.613 0 26.5-11.887 26.5-26.5V482c6.066 0 11-4.934 11-11v-23c0-6.066-4.934-11-11-11v-15.543c6.336-1.754 11-7.57 11-14.457zm-98-208.39c0-33.36 27.14-60.5 60.5-60.5s60.5 27.14 60.5 60.5c0 33.363-27.14 60.5-60.5 60.5s-60.5-27.137-60.5-60.5zm0 0"/><path d="M294.5 184.535c0-17.922-17.27-32.5-38.5-32.5s-38.5 14.578-38.5 32.5c0 17.918 17.27 32.5 38.5 32.5s38.5-14.582 38.5-32.5zm-62 0c0-9.648 10.543-17.5 23.5-17.5s23.5 7.852 23.5 17.5c0 9.649-10.543 17.5-23.5 17.5s-23.5-7.851-23.5-17.5zM172 62.5H66c-4.14 0-7.5 3.36-7.5 7.5s3.36 7.5 7.5 7.5h106c4.14 0 7.5-3.36 7.5-7.5s-3.36-7.5-7.5-7.5zm0 30H66c-4.14 0-7.5 3.36-7.5 7.5s3.36 7.5 7.5 7.5h106c4.14 0 7.5-3.36 7.5-7.5s-3.36-7.5-7.5-7.5zm0 30H66c-4.14 0-7.5 3.36-7.5 7.5s3.36 7.5 7.5 7.5h106c4.14 0 7.5-3.36 7.5-7.5s-3.36-7.5-7.5-7.5zm185.008 256.043h106c4.14 0 7.5-3.36 7.5-7.5s-3.36-7.5-7.5-7.5h-106a7.5 7.5 0 1 0 0 15zm0 30h106c4.14 0 7.5-3.36 7.5-7.5s-3.36-7.5-7.5-7.5h-106a7.5 7.5 0 1 0 0 15zm0 0"/></svg>