<svg height="512pt" viewBox="-161 0 512 512.001" width="512pt" xmlns="http://www.w3.org/2000/svg"><path d="M54.95 78.129a7.498 7.498 0 0 0 9.003-5.61C73.187 32.786 85.95 15 94.5 15c6.746 0 17.977 11.879 27.434 45.355C131.004 92.48 136 135.328 136 181c0 33.785-2.766 66.422-8.004 94.39a7.494 7.494 0 0 0 7.379 8.88 7.502 7.502 0 0 0 7.363-6.122C148.145 249.29 151 215.695 151 181c0-47.012-5.195-91.309-14.633-124.723C125.97 19.461 111.492 0 94.5 0 70.457 0 56.672 37.59 49.344 69.125a7.5 7.5 0 0 0 5.605 9.004zm0 0"/><path d="M170.2 382.016a22.54 22.54 0 0 0 3.8-12.567C174 357.07 163.93 347 151.55 347h-33.175c6.29-8.684 11.918-21.063 16.723-36.941a7.497 7.497 0 0 0-5.004-9.348 7.498 7.498 0 0 0-9.352 5.004c-6.176 20.398-13 31.98-18.742 37.414V123a7.5 7.5 0 1 0-15 0v220.172c-6.133-5.781-13.45-18.578-19.93-41.527C58 269.52 53 226.675 53 181c0-27.367 1.766-53.504 5.25-77.672a7.498 7.498 0 0 0-6.352-8.492 7.504 7.504 0 0 0-8.496 6.351C39.82 126.067 38 152.918 38 181c0 47.016 5.2 91.309 14.637 124.723 5.078 17.988 11.136 31.82 17.98 41.277H37.453C25.074 347 15 357.07 15 369.55c0 4.61 1.398 8.9 3.793 12.47C7.574 388.508 0 400.633 0 414.5v60C0 495.18 16.824 512 37.5 512h114c20.68 0 37.5-16.82 37.5-37.5v-60c0-13.871-7.574-26-18.8-32.484zM174 474.5c0 12.406-10.094 22.5-22.5 22.5h-114C25.094 497 15 486.906 15 474.5v-60c0-12.406 10.094-22.5 22.5-22.5h8.875a7.5 7.5 0 1 0 0-15h-8.922c-4.11 0-7.453-3.344-7.453-7.55 0-4.106 3.344-7.45 7.453-7.45h114.098c4.11 0 7.449 3.344 7.449 7.55 0 4.106-3.34 7.45-7.45 7.45h-72.8c-4.14 0-7.5 3.36-7.5 7.5s3.36 7.5 7.5 7.5h72.75c12.406 0 22.5 10.094 22.5 22.5zm0 0"/></svg>