<svg height="512pt" viewBox="0 0 512 512" width="512pt" xmlns="http://www.w3.org/2000/svg"><path d="M485.422 253C500.074 253 512 241.074 512 226.422V26.578C512 11.926 500.074 0 485.422 0H26.578C11.926 0 0 11.926 0 26.578v13.086c0 4.145 3.355 7.5 7.5 7.5s7.5-3.355 7.5-7.5V26.578C15 20.195 20.195 15 26.578 15h458.844C491.805 15 497 20.195 497 26.578v199.844c0 6.383-5.195 11.578-11.578 11.578h-86.274v-11.813c0-15.066-12.257-27.324-27.324-27.324-2.726 0-5.363.41-7.851 1.157a22.383 22.383 0 0 0 4.527-13.52c0-12.406-10.094-22.5-22.5-22.5s-22.5 10.094-22.5 22.5S333.594 209 346 209c1.758 0 3.465-.21 5.105-.59-4.109 4.781-6.601 10.992-6.601 17.778V238h-178.43c-3.64-10.816-13.87-18.637-25.898-18.637s-22.262 7.82-25.899 18.637H26.578C20.195 238 15 232.805 15 226.422V71.832c0-4.14-3.355-7.5-7.5-7.5s-7.5 3.36-7.5 7.5v154.59C0 241.074 11.926 253 26.578 253h86.274v27.137a27.168 27.168 0 0 0-12.262-2.914c-9.402 0-17.711 4.773-22.63 12.023a27.4 27.4 0 0 0-17.155-6c-13.11 0-24.098 9.27-26.754 21.594a24.107 24.107 0 0 0-9.832-2.086C10.863 302.758 0 313.62 0 326.977V352c0 4.14 3.355 7.5 7.5 7.5s7.5-3.36 7.5-7.5v-25.023c0-5.086 4.137-9.22 9.219-9.22s9.219 4.134 9.219 9.22a7.5 7.5 0 1 0 15 0v-16.36c0-6.82 5.55-12.367 12.464-12.367 6.82 0 12.368 5.547 12.368 12.367a7.5 7.5 0 0 0 7.5 7.5c4.144 0 7.5-3.355 7.5-7.5v-6.074c0-6.793 5.527-12.32 12.324-12.32 6.492 0 11.886 5.082 12.273 11.574.242 4.047 3.68 7.183 7.711 7.05a7.497 7.497 0 0 0 7.274-7.5v-56.66c0-6.796 5.527-12.324 12.324-12.324 6.793 0 12.32 5.528 12.32 12.32l-.008 128.016c0 14.805 9.438 31.586 21.477 38.203 1.734.953 2.555 3.13 1.95 5.176-.685 2.317-1.415 4.996-2.263 8.102-6.261 22.988-19.289 70.82-46.05 70.82H56.816C33.758 497 15 478.242 15 455.184V383.75c0-4.14-3.355-7.5-7.5-7.5s-7.5 3.36-7.5 7.5v71.434C0 486.512 25.488 512 56.816 512h70.786c38.218 0 52.726-53.266 60.523-81.879.824-3.023 1.535-5.633 2.176-7.797 2.582-8.754-1.246-18.246-9.11-22.566-7.3-4.012-13.703-15.723-13.703-25.059L167.496 253h177.008l.004 34.836a7.5 7.5 0 1 0 15 0l-.004-61.649c0-6.792 5.527-12.32 12.32-12.32 6.797 0 12.324 5.528 12.324 12.32v56.665a7.499 7.499 0 0 0 7.274 7.496c4.031.12 7.469-3 7.71-7.051.388-6.488 5.778-11.574 12.274-11.574 6.797 0 12.324 5.527 12.324 12.324v6.07c0 4.145 3.356 7.5 7.5 7.5a7.5 7.5 0 0 0 7.5-7.5c0-6.816 5.547-12.367 12.461-12.367 6.82 0 12.372 5.55 12.372 12.367v16.36c0 4.14 3.355 7.5 7.496 7.5h.004c4.14 0 7.5-3.36 7.5-7.5 0-5.082 4.132-9.22 9.218-9.22 5.082 0 9.219 4.138 9.219 9.22v128.207c0 23.058-18.762 41.816-41.816 41.816h-70.786c-26.761 0-39.789-47.832-46.05-70.82-.848-3.106-1.578-5.785-2.262-8.102-.606-2.047.215-4.223 1.945-5.176 12.043-6.617 21.477-23.398 21.477-38.203v-34.285a7.5 7.5 0 1 0-15 0V354.2c0 9.336-6.403 21.047-13.7 25.059-7.863 4.32-11.695 13.812-9.109 22.566.64 2.164 1.352 4.774 2.176 7.797 7.793 28.613 22.305 81.879 60.523 81.879h70.786c31.328 0 56.816-25.488 56.816-56.816V306.477c0-13.356-10.863-24.22-24.219-24.22-3.5 0-6.828.747-9.832 2.087-2.66-12.328-13.656-21.594-26.851-21.594a27.246 27.246 0 0 0-17.07 5.988c-4.919-7.246-13.223-12.015-22.622-12.015a27.142 27.142 0 0 0-12.261 2.914V253zM338.5 186.5c0-4.137 3.363-7.5 7.5-7.5s7.5 3.363 7.5 7.5-3.363 7.5-7.5 7.5-7.5-3.363-7.5-7.5zm0 0"/><path d="M106 89c12.406 0 22.5-10.094 22.5-22.5S118.406 44 106 44 83.5 54.094 83.5 66.5 93.594 89 106 89zm0-30c4.137 0 7.5 3.363 7.5 7.5S110.137 74 106 74s-7.5-3.363-7.5-7.5 3.363-7.5 7.5-7.5zm60 30c12.406 0 22.5-10.094 22.5-22.5S178.406 44 166 44s-22.5 10.094-22.5 22.5S153.594 89 166 89zm0-30c4.137 0 7.5 3.363 7.5 7.5S170.137 74 166 74s-7.5-3.363-7.5-7.5 3.363-7.5 7.5-7.5zm60 30c12.406 0 22.5-10.094 22.5-22.5S238.406 44 226 44s-22.5 10.094-22.5 22.5S213.594 89 226 89zm0-30c4.137 0 7.5 3.363 7.5 7.5S230.137 74 226 74s-7.5-3.363-7.5-7.5 3.363-7.5 7.5-7.5zm60 30c12.406 0 22.5-10.094 22.5-22.5S298.406 44 286 44s-22.5 10.094-22.5 22.5S273.594 89 286 89zm0-30c4.137 0 7.5 3.363 7.5 7.5S290.137 74 286 74s-7.5-3.363-7.5-7.5 3.363-7.5 7.5-7.5zm60 30c12.406 0 22.5-10.094 22.5-22.5S358.406 44 346 44s-22.5 10.094-22.5 22.5S333.594 89 346 89zm0-30c4.137 0 7.5 3.363 7.5 7.5S350.137 74 346 74s-7.5-3.363-7.5-7.5 3.363-7.5 7.5-7.5zm60 30c12.406 0 22.5-10.094 22.5-22.5S418.406 44 406 44s-22.5 10.094-22.5 22.5S393.594 89 406 89zm0-30c4.137 0 7.5 3.363 7.5 7.5S410.137 74 406 74s-7.5-3.363-7.5-7.5 3.363-7.5 7.5-7.5zm-300 90c12.406 0 22.5-10.094 22.5-22.5S118.406 104 106 104s-22.5 10.094-22.5 22.5S93.594 149 106 149zm0-30c4.137 0 7.5 3.363 7.5 7.5s-3.363 7.5-7.5 7.5-7.5-3.363-7.5-7.5 3.363-7.5 7.5-7.5zm60 30c12.406 0 22.5-10.094 22.5-22.5S178.406 104 166 104s-22.5 10.094-22.5 22.5S153.594 149 166 149zm0-30c4.137 0 7.5 3.363 7.5 7.5s-3.363 7.5-7.5 7.5-7.5-3.363-7.5-7.5 3.363-7.5 7.5-7.5zm60 30c12.406 0 22.5-10.094 22.5-22.5S238.406 104 226 104s-22.5 10.094-22.5 22.5S213.594 149 226 149zm0-30c4.137 0 7.5 3.363 7.5 7.5s-3.363 7.5-7.5 7.5-7.5-3.363-7.5-7.5 3.363-7.5 7.5-7.5zm60 30c12.406 0 22.5-10.094 22.5-22.5S298.406 104 286 104s-22.5 10.094-22.5 22.5S273.594 149 286 149zm0-30c4.137 0 7.5 3.363 7.5 7.5s-3.363 7.5-7.5 7.5-7.5-3.363-7.5-7.5 3.363-7.5 7.5-7.5zm60 30c12.406 0 22.5-10.094 22.5-22.5S358.406 104 346 104s-22.5 10.094-22.5 22.5S333.594 149 346 149zm0-30c4.137 0 7.5 3.363 7.5 7.5s-3.363 7.5-7.5 7.5-7.5-3.363-7.5-7.5 3.363-7.5 7.5-7.5zm60 30c12.406 0 22.5-10.094 22.5-22.5S418.406 104 406 104s-22.5 10.094-22.5 22.5S393.594 149 406 149zm0-30c4.137 0 7.5 3.363 7.5 7.5s-3.363 7.5-7.5 7.5-7.5-3.363-7.5-7.5 3.363-7.5 7.5-7.5zm-300 90c12.406 0 22.5-10.094 22.5-22.5S118.406 164 106 164s-22.5 10.094-22.5 22.5S93.594 209 106 209zm0-30c4.137 0 7.5 3.363 7.5 7.5s-3.363 7.5-7.5 7.5-7.5-3.363-7.5-7.5 3.363-7.5 7.5-7.5zm60 30c12.406 0 22.5-10.094 22.5-22.5S178.406 164 166 164s-22.5 10.094-22.5 22.5S153.594 209 166 209zm0-30c4.137 0 7.5 3.363 7.5 7.5s-3.363 7.5-7.5 7.5-7.5-3.363-7.5-7.5 3.363-7.5 7.5-7.5zm60 30c12.406 0 22.5-10.094 22.5-22.5S238.406 164 226 164s-22.5 10.094-22.5 22.5S213.594 209 226 209zm0-30c4.137 0 7.5 3.363 7.5 7.5s-3.363 7.5-7.5 7.5-7.5-3.363-7.5-7.5 3.363-7.5 7.5-7.5zm60 30c12.406 0 22.5-10.094 22.5-22.5S298.406 164 286 164s-22.5 10.094-22.5 22.5S273.594 209 286 209zm0-30c4.137 0 7.5 3.363 7.5 7.5s-3.363 7.5-7.5 7.5-7.5-3.363-7.5-7.5 3.363-7.5 7.5-7.5zm120 30c12.406 0 22.5-10.094 22.5-22.5S418.406 164 406 164s-22.5 10.094-22.5 22.5S393.594 209 406 209zm0-30c4.137 0 7.5 3.363 7.5 7.5s-3.363 7.5-7.5 7.5-7.5-3.363-7.5-7.5 3.363-7.5 7.5-7.5zm0 0"/></svg>