<svg height="512pt" viewBox="0 -73 512 512" width="512pt" xmlns="http://www.w3.org/2000/svg"><path d="M227.5 80.508v148a7.5 7.5 0 0 0 7.5 7.5h176c4.145 0 7.5-3.356 7.5-7.5v-148c0-4.145-3.355-7.5-7.5-7.5H235a7.5 7.5 0 0 0-7.5 7.5zm15 140.5v-20.356l47.93-42.058 81.566 62.414zm161 0h-6.82l-26.989-20.653 33.809-29.39zm0-133v63.082l-45.969 39.96-60.355-46.183c-4.285-3.277-10.34-3.078-14.399.485L242.5 180.695V88.008zm0 0"/><path d="M363.3 147.188c14.563 0 26.415-11.852 26.415-26.418 0-14.567-11.852-26.415-26.414-26.415-14.567 0-26.418 11.848-26.418 26.415 0 14.566 11.851 26.418 26.418 26.418zm0-37.833c6.294 0 11.415 5.122 11.415 11.415 0 6.296-5.121 11.418-11.414 11.418-6.297 0-11.418-5.122-11.418-11.418 0-6.293 5.12-11.415 11.418-11.415zm0 0"/><path d="M494.5 300h-19.02c1.926-3.754 3.02-8 3.02-12.5v-260C478.5 12.336 466.164 0 451 0H61C45.836 0 33.5 12.336 33.5 27.5v26.668c0 4.14 3.36 7.5 7.5 7.5s7.5-3.36 7.5-7.5V27.5C48.5 20.605 54.105 15 61 15h390c6.895 0 12.5 5.605 12.5 12.5v260c0 6.895-5.605 12.5-12.5 12.5H61c-6.895 0-12.5-5.605-12.5-12.5V86.168a7.5 7.5 0 1 0-15 0V287.5c0 4.5 1.094 8.746 3.02 12.5H17.5C7.852 300 0 307.852 0 317.5v10C0 348.18 16.82 365 37.5 365h378.168c4.14 0 7.5-3.355 7.5-7.5s-3.36-7.5-7.5-7.5H37.5C25.094 350 15 339.906 15 327.5v-10c0-1.379 1.121-2.5 2.5-2.5h174v3.313c0 12.511 10.176 22.687 22.687 22.687h83.63c12.507 0 22.683-10.176 22.683-22.688V315h174c1.379 0 2.5 1.121 2.5 2.5v10c0 12.406-10.094 22.5-22.5 22.5h-25.832c-4.145 0-7.5 3.355-7.5 7.5s3.355 7.5 7.5 7.5H474.5c20.68 0 37.5-16.82 37.5-37.5v-10c0-9.648-7.852-17.5-17.5-17.5zm-189 18.313c0 4.238-3.445 7.687-7.688 7.687h-83.628c-4.239 0-7.684-3.445-7.684-7.688V315h99zm0 0"/><path d="M384 30H71a7.5 7.5 0 0 0-7.5 7.5v240A7.5 7.5 0 0 0 71 285h370c4.145 0 7.5-3.355 7.5-7.5v-240c0-4.145-3.355-7.5-7.5-7.5h-25.332c-4.145 0-7.5 3.355-7.5 7.5s3.355 7.5 7.5 7.5H433.5v225h-355V45H384c4.145 0 7.5-3.355 7.5-7.5S388.145 30 384 30zm0 0"/><path d="M196 84.457h-80a7.5 7.5 0 1 0 0 15h80c4.14 0 7.5-3.355 7.5-7.5s-3.36-7.5-7.5-7.5zm0 29.035h-80a7.5 7.5 0 0 0-7.5 7.5 7.5 7.5 0 0 0 7.5 7.5h80a7.5 7.5 0 0 0 7.5-7.5 7.5 7.5 0 0 0-7.5-7.5zm0 29.035h-80a7.5 7.5 0 0 0-7.5 7.5 7.5 7.5 0 0 0 7.5 7.5h80a7.5 7.5 0 0 0 7.5-7.5 7.5 7.5 0 0 0-7.5-7.5zm0 29.036h-80a7.5 7.5 0 1 0 0 15h80a7.5 7.5 0 1 0 0-15zm0 29.035h-80a7.5 7.5 0 0 0-7.5 7.5 7.5 7.5 0 0 0 7.5 7.5h80a7.5 7.5 0 0 0 7.5-7.5 7.5 7.5 0 0 0-7.5-7.5zm0 0"/></svg>