<svg height="512pt" viewBox="-21 0 512 512" width="512pt" xmlns="http://www.w3.org/2000/svg"><path d="M461.5 56.375a7.497 7.497 0 0 0-7.5 7.5V497H73v-17.25c0-4.145-3.355-7.5-7.5-7.5s-7.5 3.355-7.5 7.5v24.75c0 4.145 3.355 7.5 7.5 7.5h396c4.145 0 7.5-3.355 7.5-7.5V63.875c0-4.145-3.355-7.5-7.5-7.5zm0 0"/><path d="M368.184 292.195h-220a7.5 7.5 0 0 0-7.5 7.5c0 4.145 3.355 7.5 7.5 7.5h220a7.5 7.5 0 1 0 0-15zm-220 164.051h220a7.5 7.5 0 0 0 7.5-7.5 7.5 7.5 0 0 0-7.5-7.5h-220a7.497 7.497 0 0 0-7.5 7.5c0 4.145 3.355 7.5 7.5 7.5zm220-130.715h-220c-4.145 0-7.5 3.356-7.5 7.5s3.355 7.5 7.5 7.5h220c4.14 0 7.5-3.355 7.5-7.5s-3.36-7.5-7.5-7.5zm0 33.332h-220a7.5 7.5 0 0 0-7.5 7.5c0 4.145 3.355 7.5 7.5 7.5h220a7.5 7.5 0 1 0 0-15zm-220 48.332h56.078c4.144 0 7.5-3.355 7.5-7.5a7.5 7.5 0 0 0-7.5-7.5h-56.078a7.5 7.5 0 0 0-7.5 7.5c0 4.145 3.355 7.5 7.5 7.5zM116 222.79v5.245c0 14.043 11.422 25.465 25.465 25.465h244.07c14.043 0 25.465-11.422 25.465-25.465v-5.246c0-6.773-5.516-12.289-12.29-12.289h-8.91c.118-.82.2-1.648.2-2.5V85c0-9.648-7.852-17.5-17.5-17.5h-170c-4.145 0-7.5 3.355-7.5 7.5s3.355 7.5 7.5 7.5h170c1.379 0 2.5 1.121 2.5 2.5v123c0 1.379-1.121 2.5-2.5 2.5h-218a2.502 2.502 0 0 1-2.5-2.5V85c0-1.379 1.121-2.5 2.5-2.5h16c4.145 0 7.5-3.355 7.5-7.5s-3.355-7.5-7.5-7.5h-16c-9.648 0-17.5 7.852-17.5 17.5v123c0 .852.082 1.68.2 2.5h-8.91c-6.774 0-12.29 5.516-12.29 12.29zm15 2.71h265v2.535c0 5.774-4.691 10.465-10.465 10.465h-244.07c-5.774 0-10.465-4.691-10.465-10.465zm0 0"/><path d="M461.5 0h-396c-5.113 0-9.035 2.582-12.188 4.656-1.238.817-2.785 1.832-3.566 2.043-.898.242-2.746.137-4.375.047-3.715-.207-8.332-.465-12.633 2.024-4.347 2.515-6.437 6.675-8.117 10.015-.719 1.438-1.535 3.063-2.156 3.68-.617.62-2.242 1.437-3.676 2.156-3.344 1.68-7.504 3.77-10.02 8.117-2.488 4.301-2.23 8.918-2.023 12.633.094 1.629.195 3.477-.047 4.375-.21.781-1.226 2.328-2.043 3.566C2.582 56.465 0 60.388 0 65.5s2.582 9.035 4.656 12.188c.817 1.238 1.832 2.785 2.043 3.566.242.898.14 2.746.047 4.375-.207 3.715-.465 8.332 2.024 12.633 2.515 4.347 6.675 6.437 10.015 8.117 1.438.719 3.063 1.535 3.68 2.156.62.617 1.437 2.242 2.156 3.676 1.281 2.547 2.805 5.562 5.379 7.969V175c0 3.297 1.785 6.383 4.66 8.055a9.571 9.571 0 0 0 9.524.039L58 175.214v272.661c0 4.145 3.355 7.5 7.5 7.5a7.5 7.5 0 0 0 7.5-7.5v-272.66l13.816 7.883a9.573 9.573 0 0 0 9.524-.043c2.875-1.672 4.66-4.758 4.66-8.055v-54.82c2.57-2.407 4.098-5.422 5.379-7.97.719-1.433 1.535-3.058 2.156-3.675.617-.62 2.242-1.437 3.676-2.156 3.344-1.68 7.5-3.77 10.02-8.117 2.484-4.301 2.23-8.922 2.023-12.633-.094-1.629-.195-3.477.047-4.375.207-.785 1.226-2.328 2.043-3.57C128.418 74.535 131 70.614 131 65.5s-2.582-9.035-4.656-12.187c-.817-1.239-1.836-2.786-2.043-3.567-.242-.902-.14-2.75-.047-4.379.207-3.71.46-8.328-2.027-12.629-2.512-4.347-6.672-6.437-10.016-8.117-1.434-.723-3.059-1.535-3.676-2.156-.62-.621-1.437-2.246-2.156-3.68-.602-1.195-1.262-2.496-2.05-3.785H454v16.875c0 4.14 3.355 7.5 7.5 7.5s7.5-3.36 7.5-7.5V7.5c0-4.145-3.355-7.5-7.5-7.5zM70.191 156.348a9.488 9.488 0 0 0-3.77-1.164c-.3-.04-.609-.063-.921-.063-.324 0-.637.027-.95.066a9.6 9.6 0 0 0-3.777 1.176l-15.773 9v-41.09c.125-.007.25-.015.371-.02 1.629-.093 3.477-.194 4.375.048.781.207 2.328 1.226 3.566 2.043C56.465 128.418 60.387 131 65.5 131s9.035-2.582 12.187-4.656c1.239-.817 2.786-1.832 3.567-2.043.898-.242 2.746-.137 4.375-.047.125.008.25.012.371.02v41.09zm39.043-116.102c.243.719.121 2.86.043 4.29-.156 2.75-.328 5.866.532 9.085.836 3.129 2.52 5.688 4.003 7.941.79 1.2 2.11 3.2 2.188 3.938-.078.738-1.398 2.738-2.188 3.938-1.484 2.257-3.167 4.812-4.003 7.94-.86 3.22-.688 6.337-.532 9.087.078 1.43.2 3.57-.043 4.289-.5.586-2.53 1.605-3.757 2.223-2.446 1.226-5.22 2.62-7.547 4.953-2.332 2.328-3.727 5.101-4.957 7.55-.614 1.223-1.637 3.254-2.22 3.754-.718.243-2.862.121-4.288.043-2.75-.152-5.867-.328-9.086.532-3.129.836-5.688 2.52-7.942 4.007-1.207.793-3.23 2.125-3.921 2.184-.723-.059-2.746-1.39-3.954-2.184-2.257-1.488-4.812-3.171-7.94-4.007-1.927-.516-3.817-.657-5.614-.657-1.203 0-2.367.063-3.473.125-1.43.078-3.57.2-4.289-.043-.586-.5-1.605-2.53-2.223-3.757-1.226-2.446-2.62-5.22-4.953-7.547-2.328-2.332-5.101-3.727-7.55-4.953-1.223-.618-3.254-1.637-3.754-2.223-.243-.719-.121-2.86-.043-4.29.152-2.75.328-5.866-.532-9.085-.836-3.129-2.52-5.688-4.007-7.942-.793-1.207-2.125-3.23-2.184-3.921.059-.723 1.39-2.746 2.184-3.954 1.488-2.253 3.171-4.812 4.007-7.94.86-3.216.688-6.333.532-9.087-.078-1.43-.2-3.57.043-4.289.5-.586 2.53-1.605 3.757-2.223 2.446-1.226 5.22-2.62 7.547-4.949 2.332-2.332 3.727-5.105 4.953-7.55.618-1.227 1.637-3.258 2.223-3.758.719-.243 2.86-.121 4.29-.043 2.75.156 5.866.328 9.085-.532 3.129-.836 5.688-2.52 7.941-4.003 1.208-.797 3.231-2.13 3.922-2.188.723.059 2.746 1.39 3.953 2.188 2.254 1.484 4.813 3.167 7.942 4.003 3.219.86 6.336.688 9.086.532 1.43-.078 3.57-.2 4.289.043.586.5 1.605 2.53 2.223 3.757 1.226 2.446 2.62 5.22 4.949 7.547 2.332 2.332 5.105 3.727 7.55 4.957 1.227.614 3.258 1.633 3.758 2.22zm0 0"/></svg>