<svg height="512pt" viewBox="-123 0 512 512" width="512pt" xmlns="http://www.w3.org/2000/svg"><path d="M16.5 423.5A7.5 7.5 0 0 0 24 416V228h217v28a7.5 7.5 0 1 0 15 0v-35.5a7.5 7.5 0 0 0-7.5-7.5h-21V44.535C227.5 31.56 216.941 21 203.965 21h-57.93C133.06 21 122.5 31.559 122.5 44.535V213h-10V72.32c0-.851-.086-1.687-.254-2.492-.77-3.758-3.254-6.89-6.586-8.574 2.192-10.914.711-29.922-20.637-56.484C82.586 1.738 78.933 0 75 0s-7.586 1.738-10.02 4.77C43.625 31.328 42.145 50.336 44.34 61.254a12.435 12.435 0 0 0-6.84 11.062v55.352c0 4.14 3.36 7.5 7.5 7.5s7.5-3.36 7.5-7.5v-22.781h45V213h-45v-53a7.5 7.5 0 1 0-15 0v53h-21a7.5 7.5 0 0 0-7.5 7.5V416a7.5 7.5 0 0 0 7.5 7.5zM73.336 14.172l-.004-.004.004.004zM75 16.285C93.2 39.81 92.277 54.113 90.594 59.922H82.5V47.449a7.5 7.5 0 1 0-15 0v12.473h-8.14C57.71 54.238 56.71 39.914 75 16.285zm22.5 73.602h-45V74.926h45zm85-5.887v129h-15V84zm15 129V84h15v129zm-60-168.465c0-4.707 3.828-8.535 8.535-8.535h57.93c4.707 0 8.535 3.828 8.535 8.535V69h-75zm0 39.465h15v129h-15zM256 467.79V287.831c0-4.14-3.36-7.5-7.5-7.5s-7.5 3.36-7.5 7.5V467H24v-19a7.5 7.5 0 1 0-15 0v19.79c-5.234 1.858-9 6.847-9 12.71v18c0 7.445 6.055 13.5 13.5 13.5h238c7.445 0 13.5-6.055 13.5-13.5v-18c0-5.863-3.766-10.855-9-12.71zM250 497H15v-15h235zm0 0"/></svg>