<svg height="512pt" viewBox="0 0 512 512.001" width="512pt" xmlns="http://www.w3.org/2000/svg"><path d="M187.887 165.484h26.48c2.031 14.926 7.602 25.93 16.61 32.758 7.742 5.871 16.57 7.531 24.09 7.531 4.648 0 8.796-.636 11.874-1.304a8.405 8.405 0 0 0 6.598-8.348c-.074-3.984-2.976-7.39-6.906-8.098-3.047-.543-5.11-1.835-6.492-4.058-2.942-4.746-2.543-12.785-1.641-18.48h34.613c22.957 0 41.637-18.68 41.637-41.637v-28.18a7.5 7.5 0 1 0-15 0v28.18c0 14.687-11.95 26.636-26.637 26.636H252.45a7.497 7.497 0 0 0-7.191 5.38c-.63 2.124-5.63 20.152.8 33.566-2.09-.7-4.136-1.711-6.019-3.14-6.719-5.099-10.55-14.77-11.379-28.75a7.499 7.499 0 0 0-7.488-7.056h-33.285c-14.688 0-26.637-11.949-26.637-26.636V41.637C161.25 26.949 173.2 15 187.887 15h105.226c14.688 0 26.637 11.95 26.637 26.637V64a7.5 7.5 0 0 0 7.5 7.5c4.145 0 7.5-3.355 7.5-7.5V41.637C334.75 18.68 316.074 0 293.113 0H187.887C164.93 0 146.25 18.68 146.25 41.637v82.21c0 22.962 18.68 41.637 41.637 41.637zm136.226 181.032h-26.48c-2.031-14.926-7.602-25.93-16.61-32.758-12.527-9.5-27.91-7.98-35.96-6.227a8.4 8.4 0 0 0-6.602 8.344 8.407 8.407 0 0 0 6.906 8.098c3.047.547 5.11 1.84 6.492 4.062 2.942 4.746 2.543 12.785 1.645 18.48h-34.617c-22.957 0-41.637 18.68-41.637 41.637v82.211c0 22.961 18.68 41.637 41.637 41.637h105.226c22.961 0 41.637-18.676 41.637-41.637v-82.21c0-22.962-18.676-41.637-41.637-41.637zm26.637 123.847c0 14.688-11.95 26.637-26.637 26.637H218.887c-14.688 0-26.637-11.95-26.637-26.637v-82.21c0-14.688 11.95-26.637 26.637-26.637h40.664a7.497 7.497 0 0 0 7.191-5.38c.63-2.124 5.63-20.152-.8-33.566 2.093.7 4.136 1.711 6.019 3.14 6.723 5.099 10.55 14.77 11.379 28.75a7.502 7.502 0 0 0 7.488 7.056h33.285c14.688 0 26.637 11.949 26.637 26.636zM185 343V235c0-11.855-9.645-21.5-21.5-21.5H132V199c0-11.855-9.645-21.5-21.5-21.5h-36c-11.855 0-21.5 9.645-21.5 21.5v14.5H21.5C9.645 213.5 0 223.145 0 235v108c0 11.855 9.645 21.5 21.5 21.5H32c4.14 0 7.5-3.355 7.5-7.5s-3.36-7.5-7.5-7.5H21.5A6.508 6.508 0 0 1 15 343v-61.512a21.41 21.41 0 0 0 6.5 1.012H36v7.426c0 4.14 3.36 7.5 7.5 7.5s7.5-3.36 7.5-7.5V282.5h83v7.426c0 4.14 3.36 7.5 7.5 7.5s7.5-3.36 7.5-7.5V282.5h14.5c2.266 0 4.45-.355 6.5-1.012V343c0 3.586-2.914 6.5-6.5 6.5H64.75c-4.14 0-7.5 3.355-7.5 7.5s3.36 7.5 7.5 7.5h98.75c11.855 0 21.5-9.645 21.5-21.5zM68 199c0-3.586 2.918-6.5 6.5-6.5h36c3.586 0 6.5 2.914 6.5 6.5v14.5H68zm95.5 68.5H149v-3.574a7.5 7.5 0 1 0-15 0v3.574H51v-3.574a7.5 7.5 0 1 0-15 0v3.574H21.5A6.508 6.508 0 0 1 15 261v-26c0-3.586 2.918-6.5 6.5-6.5h142c3.586 0 6.5 2.914 6.5 6.5v26c0 3.586-2.914 6.5-6.5 6.5zm0 0"/><path d="M100 249.426a7.5 7.5 0 1 1-15 0 7.5 7.5 0 0 1 7.5-7.5c4.145 0 7.5 3.355 7.5 7.5zM490.5 183.5H459V169c0-11.855-9.645-21.5-21.5-21.5h-36c-11.855 0-21.5 9.645-21.5 21.5v14.5h-31.5c-11.855 0-21.5 9.645-21.5 21.5v108c0 11.855 9.645 21.5 21.5 21.5h142c11.855 0 21.5-9.645 21.5-21.5v-9.125a7.5 7.5 0 1 0-15 0V313c0 3.586-2.914 6.5-6.5 6.5h-142a6.508 6.508 0 0 1-6.5-6.5v-61.512a21.41 21.41 0 0 0 6.5 1.012H363v7.426c0 4.14 3.36 7.5 7.5 7.5s7.5-3.36 7.5-7.5V252.5h83v7.426c0 4.14 3.36 7.5 7.5 7.5s7.5-3.36 7.5-7.5V252.5h14.5c2.266 0 4.45-.355 6.5-1.012v20.262a7.5 7.5 0 1 0 15 0V205c0-11.855-9.645-21.5-21.5-21.5zM395 169c0-3.586 2.918-6.5 6.5-6.5h36c3.586 0 6.5 2.914 6.5 6.5v14.5h-49zm95.5 68.5H476v-3.574a7.5 7.5 0 1 0-15 0v3.574h-83v-3.574a7.5 7.5 0 1 0-15 0v3.574h-14.5a6.508 6.508 0 0 1-6.5-6.5v-26c0-3.586 2.918-6.5 6.5-6.5h142c3.586 0 6.5 2.914 6.5 6.5v26c0 3.586-2.914 6.5-6.5 6.5zm0 0"/><path d="M427 219.426a7.5 7.5 0 1 1-15 0 7.5 7.5 0 0 1 7.5-7.5c4.145 0 7.5 3.355 7.5 7.5zM285 46.23h-88a7.5 7.5 0 1 0 0 15h88a7.5 7.5 0 1 0 0-15zm7.5 37.5c0-4.14-3.36-7.5-7.5-7.5h-88a7.5 7.5 0 1 0 0 15h88a7.5 7.5 0 0 0 7.5-7.5zM197 104.254a7.5 7.5 0 0 0-7.5 7.5 7.5 7.5 0 0 0 7.5 7.5h44a7.5 7.5 0 0 0 7.5-7.5 7.5 7.5 0 0 0-7.5-7.5zm118.5 287.223h-88a7.5 7.5 0 1 0 0 15h88a7.5 7.5 0 1 0 0-15zm0 30h-88a7.5 7.5 0 1 0 0 15h88a7.5 7.5 0 1 0 0-15zm-44 28.023h-44c-4.14 0-7.5 3.355-7.5 7.5s3.36 7.5 7.5 7.5h44c4.14 0 7.5-3.355 7.5-7.5s-3.36-7.5-7.5-7.5zm0 0"/></svg>