<svg height="512pt" viewBox="0 0 512 512" width="512pt" xmlns="http://www.w3.org/2000/svg"><path d="M504.5 0H7.5A7.497 7.497 0 0 0 0 7.5v312.168c0 4.14 3.355 7.5 7.5 7.5s7.5-3.36 7.5-7.5V95h233.5v272.469h-19.07c-12.586 0-24.157 6.554-30.7 17.031h-81.039c-5.058 0-9.914.887-14.425 2.5H15v-35c0-4.145-3.355-7.5-7.5-7.5S0 347.855 0 352v42.5c0 4.145 3.355 7.5 7.5 7.5h75.563a43.374 43.374 0 0 0-8.563 25.93c0 8.199 6.648 14.87 14.82 14.87h123.91a98.146 98.146 0 0 1 47.688 12.403 113.131 113.131 0 0 0 26.598 10.664 112.916 112.916 0 0 0 28.394 3.633h.965l21.008 38.586a7.495 7.495 0 0 0 6.586 3.914h71.863c4.145 0 7.5-3.355 7.5-7.5s-3.355-7.5-7.5-7.5h-67.406l-16.078-29.531 99.527-18.711.121-.024 7.414-1.394L469.523 497H448c-4.145 0-7.5 3.355-7.5 7.5s3.355 7.5 7.5 7.5h34.73c2.7 0 5.188-1.45 6.52-3.797a7.493 7.493 0 0 0-.078-7.547l-39.063-65.5a7.501 7.501 0 0 0-7.828-3.527l-4.648.875c-1.89-11.418-6-21.73-12.149-30.504H504.5c4.145 0 7.5-3.355 7.5-7.5V127.75c0-4.145-3.355-7.5-7.5-7.5s-7.5 3.355-7.5 7.5V387h-85.926c-16.902-12.965-40.91-19.531-71.554-19.531H263.5V95H497v1c0 4.145 3.355 7.5 7.5 7.5s7.5-3.355 7.5-7.5V7.5c0-4.145-3.355-7.5-7.5-7.5zM403.473 400.082a8.5 8.5 0 0 0 .406.34c11.785 9.871 17.094 22.574 19.035 34.848L320.63 454.5h-4.719a97.98 97.98 0 0 1-24.625-3.148 98.1 98.1 0 0 1-23.062-9.25A113.166 113.166 0 0 0 213.23 427.8H89.5c.07-15.617 12.688-28.301 28.191-28.301h75.774a37.11 37.11 0 0 0-.246 4.18c0 3.367 1.289 6.562 3.656 9.03a12.88 12.88 0 0 0 8.95 3.927c41.37 1.133 73.64 5.27 82.222 10.554 3.93 2.414 8.77 6.141 12.988 9.47a7.496 7.496 0 0 0 10.531-1.247 7.495 7.495 0 0 0-1.242-10.531c-4.789-3.778-9.851-7.66-14.422-10.469-14.879-9.16-60.355-11.894-87.593-12.71a20.99 20.99 0 0 1 1.754-6.653 21.222 21.222 0 0 1 19.367-12.578h110.09c31.195-.004 51.257 7.18 63.953 17.609zM15 80V15h482v65zm0 0"/><path d="M53.5 24.5C41.094 24.5 31 34.594 31 47s10.094 22.5 22.5 22.5S76 59.406 76 47 65.906 24.5 53.5 24.5zm0 30c-4.137 0-7.5-3.363-7.5-7.5s3.363-7.5 7.5-7.5S61 42.863 61 47s-3.363 7.5-7.5 7.5zm60-30C101.094 24.5 91 34.594 91 47s10.094 22.5 22.5 22.5S136 59.406 136 47s-10.094-22.5-22.5-22.5zm0 30c-4.137 0-7.5-3.363-7.5-7.5s3.363-7.5 7.5-7.5 7.5 3.363 7.5 7.5-3.363 7.5-7.5 7.5zm60-30C161.094 24.5 151 34.594 151 47s10.094 22.5 22.5 22.5S196 59.406 196 47s-10.094-22.5-22.5-22.5zm0 30c-4.137 0-7.5-3.363-7.5-7.5s3.363-7.5 7.5-7.5 7.5 3.363 7.5 7.5-3.363 7.5-7.5 7.5zm292.414 170.926h-172c-4.144 0-7.5 3.355-7.5 7.5s3.356 7.5 7.5 7.5h172a7.5 7.5 0 1 0 0-15zm-172-27.344h86a7.5 7.5 0 1 0 0-15h-86a7.5 7.5 0 0 0-7.5 7.5c0 4.145 3.356 7.5 7.5 7.5zm172 63.172h-172a7.5 7.5 0 0 0-7.5 7.5c0 4.144 3.356 7.5 7.5 7.5h172a7.5 7.5 0 1 0 0-15zm0 35.828h-172a7.5 7.5 0 0 0-7.5 7.5c0 4.145 3.356 7.5 7.5 7.5h172a7.5 7.5 0 1 0 0-15zm-413.656 6.504v.101c0 18.258 14.851 33.11 33.11 33.11h92.78c18.254 0 33.11-14.852 33.11-33.11v-.101c0-33.188-20.45-61.68-49.406-73.566 14.777-9.793 24.546-26.563 24.546-45.579 0-30.129-24.511-54.64-54.644-54.64-30.129 0-54.64 24.512-54.64 54.64 0 19.016 9.769 35.786 24.546 45.579-28.953 11.886-49.402 40.375-49.402 73.566zM92.113 184.44c0-21.859 17.785-39.644 39.645-39.644 21.86 0 39.644 17.785 39.644 39.644s-17.785 39.645-39.644 39.645c-21.86 0-39.645-17.785-39.645-39.645zm39.645 54.645c35.562 0 64.5 28.934 64.5 64.5v.101c0 9.989-8.125 18.11-18.11 18.11h-92.78c-9.985 0-18.11-8.121-18.11-18.11v-.101c0-35.566 28.933-64.5 64.5-64.5zm0 0"/><path d="M159.688 195.023a7.498 7.498 0 0 0-10.188-2.953c-.082.043-8.309 4.426-17.742 4.426-9.422 0-17.649-4.375-17.766-4.437a7.497 7.497 0 0 0-10.164 2.964 7.502 7.502 0 0 0 2.953 10.188c.465.258 11.574 6.285 24.977 6.285 13.398 0 24.508-6.027 24.976-6.285a7.504 7.504 0 0 0 2.953-10.188zm-33.774-23.46a6.428 6.428 0 1 1-12.854-.005 6.428 6.428 0 0 1 12.854.005zm24.543 0a6.427 6.427 0 0 1-6.43 6.425 6.423 6.423 0 0 1-6.425-6.425 6.427 6.427 0 1 1 12.855 0zm0 0"/></svg>