<svg height="512pt" viewBox="0 0 512 512" width="512pt" xmlns="http://www.w3.org/2000/svg"><path d="M359.43 109H108.203c-4.14 0-7.5 3.355-7.5 7.5s3.36 7.5 7.5 7.5H359.43c4.144 0 7.5-3.355 7.5-7.5s-3.356-7.5-7.5-7.5zm0 0"/><path d="M486.762 182.668V36.5a7.5 7.5 0 0 0-7.5-7.5H419.43V7.5c0-4.145-3.356-7.5-7.5-7.5H384c-4.145 0-7.5 3.355-7.5 7.5s3.355 7.5 7.5 7.5h20.43v65H63.2V15h288.55c4.145 0 7.5-3.355 7.5-7.5s-3.355-7.5-7.5-7.5H55.7a7.5 7.5 0 0 0-7.5 7.5V131H31.5C14.133 131 0 145.133 0 162.5V192a7.5 7.5 0 1 0 15 0v-29.5c0-9.098 7.402-16.5 16.5-16.5h151.633c4.992 0 9.66 2.223 12.808 6.102l27.032 33.293c6.011 7.402 14.922 11.644 24.457 11.644H480.5c9.098 0 16.5 7.402 16.5 16.5V405h-16.668c-4.14 0-7.5 3.355-7.5 7.5s3.36 7.5 7.5 7.5H497v60.5c0 9.098-7.402 16.5-16.5 16.5h-449c-9.098 0-16.5-7.402-16.5-16.5V420h433c4.145 0 7.5-3.355 7.5-7.5s-3.355-7.5-7.5-7.5H15V223.832c0-4.14-3.36-7.5-7.5-7.5s-7.5 3.36-7.5 7.5V480.5C0 497.867 14.133 512 31.5 512h449c17.367 0 31.5-14.133 31.5-31.5V213.54c0-15.227-10.86-27.962-25.238-30.872zM419.43 124h52.332v58.04H419.43zm52.332-80v65H419.43V44zM234.617 175.941l-8.672-10.683H359.43c4.144 0 7.5-3.356 7.5-7.5a7.5 7.5 0 0 0-7.5-7.5H213.77l-6.18-7.613C201.578 135.246 192.664 131 183.133 131H63.199V95h341.23v87.04h-157a16.444 16.444 0 0 1-12.812-6.099zm0 0"/></svg>