<svg xmlns="http://www.w3.org/2000/svg" viewBox="0 0 424.038 424.038"><path d="M352.4 34.019c-32.4 0-58 26-58 58.4s26 58 58 58 58.4-26 58.4-58.4-26-58-58.4-58zm0 103.6c-25.2 0-45.6-20.4-45.6-45.6s20.8-45.2 45.6-45.2c25.2 0 45.6 20.4 45.6 45.6 0 25.2-20.4 45.2-45.6 45.2z"/><path d="M370.8 101.219c-.4-1.2-.4-2-1.2-3.2-.4-.8-.8-2-1.6-2.8-.8-.8-1.2-1.6-2-2.4s-1.6-1.6-2.8-2c-.8-.8-2-1.2-2.8-1.6-1.2-.4-2-1.2-3.2-1.6-1.2-.4-2.4-.8-3.2-1.2-.4 0-1.2-.4-1.6-.8-.4-.4-1.2-.4-1.6-.8-.4-.4-1.2-.4-1.6-.8l-1.2-1.2c-.4-.4-.8-.8-.8-1.6-.4-.4-.4-1.2-.4-1.6v-2c0-.4.4-1.2.4-1.6.4-.4.4-1.2.8-1.6l1.2-1.2c.4-.4 1.2-.8 2-.8.8-.4 1.2-.4 2-.4h2.4c.8 0 1.2 0 2 .4.8 0 1.6.4 2 .4.4 0 1.2.4 1.6.4.8 0 1.2.4 1.6.4l2 .8.4-2.4.8-6.4v-1.6l-1.6-.4c-.4 0-1.2-.4-1.6-.4-.4 0-.8-.4-1.6-.4-.4 0-1.2-.4-2-.4s-1.2-.4-2-.4h-.4v-7.6h-9.6v8h-.4c-1.2.4-2.4.8-3.6 1.6-1.2.4-2 1.2-2.8 2s-1.6 1.6-2.4 2.8c-.8.8-1.2 2-1.6 3.2l-1.2 3.6c-.4 1.2-.4 2.8-.4 4s0 2 .4 3.2c.4 1.2.4 2 1.2 3.2.4.8 1.2 2 1.6 2.8.8.8 1.2 1.6 2 2.4.8.8 1.6 1.6 2.8 2 .8.8 2 1.2 2.8 1.6 1.2.4 2.4 1.2 3.2 1.6 1.2.4 2.4.8 3.2 1.2.4 0 1.2.4 1.6.8.4.4 1.2.4 1.6.8.4.4.8.8 1.2.8l1.2 1.2c.4.4.4.8.8 1.6 0 .4.4 1.2.4 2v2c0 .4-.4 1.2-.8 1.6l-1.2 1.2c-.4.4-.8.8-1.6 1.2-.4.4-1.2.4-1.6.8-.4 0-1.2.4-2 .4h-5.2c-.8 0-1.6-.4-2-.4-.8 0-1.6-.4-2.4-.8-.8-.4-1.6-.4-2.4-.8-.4 0-.8-.4-1.2-.4-.4 0-.8-.4-1.2-.4l-2.4-1.2-.4 2.8-.8 7.2v1.2l1.2.4c1.6-.4 2.4 0 3.6.4.8.4 2 .8 2.8.8.8.4 2 .4 3.2.8 1.2.4 2 .4 3.2.4h.8v8h9.6v-8.4h.4c1.2-.4 2.4-.8 3.6-1.6 1.2-.4 2-1.2 3.2-2 .8-.8 1.6-1.6 2.4-2.8.8-.8 1.2-2 2-3.2l1.2-3.6c.4-1.2.4-2.4.4-4 0-1.2 0-2-.4-3.2zm-46.4 56.8c-2-2.8-6.4-3.2-9.2-1.2l-64.8 51.6-83.6-34.8c-2-.8-4.4-.4-6 .8l-89.6 64c-2.8 2-3.6 6-1.6 8.8 1.2 2 3.2 2.8 5.2 2.8 1.2 0 2.4-.4 3.6-1.2l86.8-62 84 34.8c2 .8 4.8.4 6.4-.8l67.6-53.6c2.8-2 3.2-6.4 1.2-9.2z"/><path d="M418 377.219h-29.6v-185.2c0-3.6-2.8-6.4-6.4-6.4h-58.8c-3.6 0-6.4 2.8-6.4 6.4v185.2h-21.6v-121.2c0-3.6-2.8-6.4-6.4-6.4h-59.2c-3.6 0-6.4 2.8-6.4 6.4v121.2h-21.6v-130.8c0-3.6-2.8-6.4-6.4-6.4h-58.8c-3.6 0-6.4 2.8-6.4 6.4v130.8h-21.6v-93.2c0-3.6-2.8-6.4-6.4-6.4H42.8c-3.6 0-6.4 2.8-6.4 6.4v93.2h-30c-3.6 0-6.4 2.8-6.4 6.4 0 3.6 2.8 6.4 6.4 6.4h411.2c3.6 0 6.4-2.8 6.4-6.4.4-3.6-2.4-6.4-6-6.4zm-322.8 0h-46v-86.8h46v86.8zm93.6 0h-46v-124.4h46v124.4zm93.2 0h-46v-114.8h46v114.8zm93.6 0h-46v-178.8h46v178.8z"/></svg>