<svg xmlns="http://www.w3.org/2000/svg" viewBox="0 0 511.995 511.995" width="512" height="512"><path d="M98.102 6.525c-13.19-7.94-28.91-8.65-42.62-2.04l229.87 230.36 75.16-75.51L98.102 6.525zm-63.74 19.28a46.845 46.845 0 0 0-4.46 20v421.38c0 7.06 1.57 13.79 4.5 19.8l229.78-230.87-229.82-230.31zm251.021 251.55l-229.5 230.59c6.09 2.82 12.57 4.05 19.04 4.05 7.99 0 15.96-1.91 23.18-6.25l262.46-153.04-75.18-75.35zm175.07-59.82c-.09-.06-.19-.12-.28-.17l-72.86-42.43-80.77 81.15 80.82 80.99s73-42.56 73.09-42.61c13.55-8.23 21.64-22.61 21.64-38.47s-8.09-30.24-21.64-38.46z"/></svg>