<svg height="511pt" viewBox="1 -72 511.999 511" width="511pt" xmlns="http://www.w3.org/2000/svg"><path d="M504.5 111.191h-24.668c-4.14 0-7.5 3.36-7.5 7.5s3.36 7.5 7.5 7.5H497v138.254H380.77v-48.703h61.73a7.5 7.5 0 1 0 0-15h-61.73v-74.55h67.062c4.14 0 7.5-3.36 7.5-7.5s-3.36-7.5-7.5-7.5H380.68c-.875-8.504-8.082-15.16-16.813-15.16h-65.195c-8.73 0-15.938 6.656-16.813 15.16h-12.32a39.98 39.98 0 0 1-15.187-2.981l60.84-60.79c5.203-5.202 8.066-12.108 8.066-19.444 0-7.336-2.867-14.243-8.067-19.446-10.71-10.707-28.144-10.71-38.863 0l-75.422 75.356-2.367-1.078a19.956 19.956 0 0 0-16.32-.094l-83.18 36.77a20.03 20.03 0 0 0-10.937 12.117 20.022 20.022 0 0 0 1.734 16.234 44.822 44.822 0 0 0 2.328 3.59l-22.984 9.597a15.665 15.665 0 0 0-6.914 5.61l-37.352 54.664a13.569 13.569 0 0 0 2.453 18.047l5.196 4.39a24.393 24.393 0 0 0 5.078 3.29L24.59 260.061c-.125.125-.23.254-.348.383-.144.157-.293.313-.43.477-.062.078-.117.16-.18.242-.175.227-.35.457-.51.695a.117.117 0 0 0-.017.032 11.334 11.334 0 0 0-1.84 5.402c-7.542 4.637-17.882 15.918-21.18 43.355-.425 3.512.774 6.965 3.286 9.477a11.403 11.403 0 0 0 8.102 3.375c.457 0 .918-.027 1.382-.082 27.458-3.293 38.75-13.625 43.387-21.164a11.448 11.448 0 0 0 7.235-3.316l18.386-18.372c.032-.03.059-.07.09-.101l20.578-20.567a24.577 24.577 0 0 0 10.696 4.516l.925 7.95c.758 6.53 4.016 12.37 9.172 16.449 4.387 3.468 9.692 5.304 15.188 5.304.96 0 1.933-.058 2.902-.172l7.078-.82.559 4.797a24.437 24.437 0 0 0 9.16 16.445c4.387 3.477 9.703 5.32 15.219 5.32.957 0 1.922-.058 2.89-.167l18.473-2.153c12.246-1.414 22.027-10.34 24.926-21.883l10.695-1.05a52.559 52.559 0 0 0 13.145-3.032 52.353 52.353 0 0 0 11.953-6.293 30.835 30.835 0 0 1 17.84-5.66h9.289c2.234 6.723 8.57 11.594 16.035 11.594h65.195c7.465 0 13.8-4.871 16.035-11.594H504.5c4.14 0 7.5-3.36 7.5-7.5V118.691c0-4.14-3.36-7.5-7.5-7.5zM286.93 19.145c4.87-4.868 12.793-4.868 17.656-.004a12.425 12.425 0 0 1 3.672 8.836 12.43 12.43 0 0 1-3.668 8.836l-64.844 64.785L215.48 90.53zM42.242 232.277l-4.222-3.57 36.613-53.586a.7.7 0 0 1 .305-.246l29.046-12.129a44.536 44.536 0 0 0 12.391 5.602L83.238 201.46a7.497 7.497 0 0 0-.004 10.605 7.46 7.46 0 0 0 5.305 2.2 7.47 7.47 0 0 0 5.3-2.196l42.942-42.906a43.355 43.355 0 0 0 3.774-.902l30.492-8.719a6.18 6.18 0 0 1 6.176 1.668l1.402 1.457-41.27 41.234-24.074 2.801c-6.527.758-12.367 4.012-16.441 9.164-4.078 5.149-5.906 11.578-5.149 18.106l1.047 9.02c.184 1.562.508 3.073.961 4.523l-17.144 17.136-17.668-17.656 12.332-12.32a7.5 7.5 0 0 0-10.602-10.613L50.27 234.397c-2.829.516-5.801-.242-8.028-2.12zm13.102 53.57l-5.528-5.519-12.144-12.137 10.601-10.59 17.672 17.653zM15.62 307.88c2.965-17.914 9.32-24.848 13.074-27.445l3.29 3.285 11.113 11.105c-2.602 3.746-9.547 10.098-27.477 13.055zm92.016-66.617l-1.047-9.02a9.526 9.526 0 0 1 2.008-7.062 9.524 9.524 0 0 1 6.414-3.578l26.504-3.079c.015-.003.03-.003.047-.007l9.3-1.082a14.483 14.483 0 0 1 1.64-.094c7.06 0 13.173 5.305 14.009 12.48.898 7.758-4.676 14.801-12.434 15.703l-35.8 4.16c-5.255.61-10.032-3.167-10.641-8.421zm32.039 37.785a9.502 9.502 0 0 1-7.047-1.996 9.541 9.541 0 0 1-3.578-6.422l-.817-7 27.578-3.207c7.735-.899 14.66-4.758 19.493-10.863a29.336 29.336 0 0 0 1.765-2.489c5.668 1.309 10.145 6.063 10.852 12.121a14.074 14.074 0 0 1-2.965 10.422 14.048 14.048 0 0 1-9.465 5.274zm53.387 23.422l-18.477 2.148a9.521 9.521 0 0 1-7.063-2.008 9.535 9.535 0 0 1-3.574-6.418l-.558-4.796 13.836-1.606c7.734-.898 14.656-4.758 19.492-10.863a29.995 29.995 0 0 0 1.894-2.7 14.166 14.166 0 0 1 6.89 10.57c.063.536.099 1.126.099 1.74-.063 7.124-5.45 13.112-12.54 13.933zm80.289-38.024c-9.524 0-18.676 2.907-26.48 8.399a37.272 37.272 0 0 1-8.532 4.492 37.697 37.697 0 0 1-9.395 2.168l-9.468.93a29.181 29.181 0 0 0-16.473-18.766 29.277 29.277 0 0 0-.184-4.207c-1.406-12.09-10.09-21.668-21.246-24.723.067-1.539.016-3.09-.168-4.648-1.445-12.434-10.57-22.149-22.078-24.938l29.692-29.668 30.964 32.227a97.63 97.63 0 0 0 7.305 6.851c3.168 2.672 7.899 2.278 10.57-.89a7.5 7.5 0 0 0-.89-10.57 81.414 81.414 0 0 1-6.168-5.786l-42.766-44.504a21.148 21.148 0 0 0-21.117-5.69l-30.488 8.718a29.488 29.488 0 0 1-33.63-13.543 4.952 4.952 0 0 1-.433-4.063 4.958 4.958 0 0 1 2.735-3.03l83.183-36.77a4.932 4.932 0 0 1 4.031.023l54.282 24.75a54.944 54.944 0 0 0 22.941 4.984h12.23l-.003 94.47-10.317-2.352a81.575 81.575 0 0 1-9.367-2.739 7.5 7.5 0 0 0-9.59 4.535 7.5 7.5 0 0 0 4.531 9.59 96.345 96.345 0 0 0 11.094 3.239l13.649 3.113v28.398zm92.418 9.692c0 1.05-.852 1.902-1.903 1.902h-65.195a1.905 1.905 0 0 1-1.902-1.902V112.934c0-1.047.855-1.899 1.902-1.899h65.195c1.051 0 1.903.852 1.903 1.899zm0 0"/><path d="M489.5 322.5h-467C10.094 322.5 0 332.594 0 345s10.094 22.5 22.5 22.5h467c12.406 0 22.5-10.094 22.5-22.5s-10.094-22.5-22.5-22.5zm0 30h-467c-4.137 0-7.5-3.363-7.5-7.5s3.363-7.5 7.5-7.5h467c4.137 0 7.5 3.363 7.5 7.5s-3.363 7.5-7.5 7.5zM331 134.492c-12.406 0-22.5 10.094-22.5 22.5s10.094 22.5 22.5 22.5 22.5-10.094 22.5-22.5-10.094-22.5-22.5-22.5zm0 30a7.507 7.507 0 0 1-7.5-7.5c0-4.137 3.363-7.5 7.5-7.5s7.5 3.363 7.5 7.5c0 4.137-3.363 7.5-7.5 7.5zm0 0"/></svg>