<svg height="512pt" viewBox="0 0 512 512" width="512pt" xmlns="http://www.w3.org/2000/svg"><path d="M461 408.332a7.5 7.5 0 0 0-7.5 7.5v24.086c0 6.894-5.605 12.5-12.5 12.5H71c-6.895 0-12.5-5.606-12.5-12.5V256c0-4.14-3.36-7.5-7.5-7.5s-7.5 3.36-7.5 7.5v228.5c0 15.164 12.336 27.5 27.5 27.5h370c15.164 0 27.5-12.336 27.5-27.5v-68.668a7.5 7.5 0 0 0-7.5-7.5zm-7.5 76.168c0 6.895-5.605 12.5-12.5 12.5H71c-6.895 0-12.5-5.605-12.5-12.5v-20.09a27.31 27.31 0 0 0 12.5 3.012h370a27.31 27.31 0 0 0 12.5-3.012zm37-364.5h-75V7.5A7.5 7.5 0 0 0 408 0h-24a7.5 7.5 0 1 0 0 15h16.5v165h-289V15h242.168c4.14 0 7.5-3.36 7.5-7.5s-3.36-7.5-7.5-7.5H104c-4.14 0-7.5 3.36-7.5 7.5V120h-75C9.645 120 0 129.645 0 141.5v32C0 185.355 9.645 195 21.5 195h25.02c-1.926 3.754-3.02 8-3.02 12.5V224c0 4.14 3.36 7.5 7.5 7.5s7.5-3.36 7.5-7.5v-16.5c0-6.895 5.605-12.5 12.5-12.5h77.988c1.739 13.73 8.16 26.012 17.63 35.191.23.254.48.489.737.704C178 240.87 192.293 247 208 247h96c15.707 0 30-6.129 40.645-16.102.261-.222.511-.457.75-.714 9.46-9.18 15.882-21.457 17.617-35.184H441c6.895 0 12.5 5.605 12.5 12.5v176.332c0 4.145 3.355 7.5 7.5 7.5s7.5-3.355 7.5-7.5V207.5c0-4.5-1.094-8.746-3.02-12.5h25.02c11.855 0 21.5-9.645 21.5-21.5v-32c0-11.855-9.645-21.5-21.5-21.5zM304 232h-1.266l-14.937-37h7.015l33.387 29.828A44.224 44.224 0 0 1 304 232zm-96 0a44.234 44.234 0 0 1-24.2-7.172L217.188 195h7.016l-14.937 37zm32.379-37h8.121v37h-23.059zm23.121 0h8.121l14.938 37H263.5zm-242-15a6.505 6.505 0 0 1-6.5-6.5v-32c0-3.586 2.914-6.5 6.5-6.5h75v13H56c-4.14 0-7.5 3.36-7.5 7.5s3.36 7.5 7.5 7.5h40.5v17zm173.176 15l-21.942 19.605A44.305 44.305 0 0 1 164.133 195zm144.59 19.605L317.324 195h30.543a44.305 44.305 0 0 1-8.601 19.605zM497 173.5c0 3.586-2.914 6.5-6.5 6.5h-75v-17H456a7.5 7.5 0 1 0 0-15h-40.5v-13h75c3.586 0 6.5 2.914 6.5 6.5zm0 0"/><path d="M106 311.5c12.406 0 22.5-10.094 22.5-22.5s-10.094-22.5-22.5-22.5-22.5 10.094-22.5 22.5 10.094 22.5 22.5 22.5zm0-30c4.137 0 7.5 3.363 7.5 7.5s-3.363 7.5-7.5 7.5-7.5-3.363-7.5-7.5 3.363-7.5 7.5-7.5zm60 30c12.406 0 22.5-10.094 22.5-22.5s-10.094-22.5-22.5-22.5-22.5 10.094-22.5 22.5 10.094 22.5 22.5 22.5zm0-30c4.137 0 7.5 3.363 7.5 7.5s-3.363 7.5-7.5 7.5-7.5-3.363-7.5-7.5 3.363-7.5 7.5-7.5zm60 30c12.406 0 22.5-10.094 22.5-22.5s-10.094-22.5-22.5-22.5-22.5 10.094-22.5 22.5 10.094 22.5 22.5 22.5zm0-30c4.137 0 7.5 3.363 7.5 7.5s-3.363 7.5-7.5 7.5-7.5-3.363-7.5-7.5 3.363-7.5 7.5-7.5zm60 30c12.406 0 22.5-10.094 22.5-22.5s-10.094-22.5-22.5-22.5-22.5 10.094-22.5 22.5 10.094 22.5 22.5 22.5zm0-30c4.137 0 7.5 3.363 7.5 7.5s-3.363 7.5-7.5 7.5-7.5-3.363-7.5-7.5 3.363-7.5 7.5-7.5zm60 30c12.406 0 22.5-10.094 22.5-22.5s-10.094-22.5-22.5-22.5-22.5 10.094-22.5 22.5 10.094 22.5 22.5 22.5zm0-30c4.137 0 7.5 3.363 7.5 7.5s-3.363 7.5-7.5 7.5-7.5-3.363-7.5-7.5 3.363-7.5 7.5-7.5zm60 30c12.406 0 22.5-10.094 22.5-22.5s-10.094-22.5-22.5-22.5-22.5 10.094-22.5 22.5 10.094 22.5 22.5 22.5zm0-30c4.137 0 7.5 3.363 7.5 7.5s-3.363 7.5-7.5 7.5-7.5-3.363-7.5-7.5 3.363-7.5 7.5-7.5zm-300 90c12.406 0 22.5-10.094 22.5-22.5s-10.094-22.5-22.5-22.5-22.5 10.094-22.5 22.5 10.094 22.5 22.5 22.5zm0-30c4.137 0 7.5 3.363 7.5 7.5s-3.363 7.5-7.5 7.5-7.5-3.363-7.5-7.5 3.363-7.5 7.5-7.5zm60 30c12.406 0 22.5-10.094 22.5-22.5s-10.094-22.5-22.5-22.5-22.5 10.094-22.5 22.5 10.094 22.5 22.5 22.5zm0-30c4.137 0 7.5 3.363 7.5 7.5s-3.363 7.5-7.5 7.5-7.5-3.363-7.5-7.5 3.363-7.5 7.5-7.5zm60 30c12.406 0 22.5-10.094 22.5-22.5s-10.094-22.5-22.5-22.5-22.5 10.094-22.5 22.5 10.094 22.5 22.5 22.5zm0-30c4.137 0 7.5 3.363 7.5 7.5s-3.363 7.5-7.5 7.5-7.5-3.363-7.5-7.5 3.363-7.5 7.5-7.5zm60 30c12.406 0 22.5-10.094 22.5-22.5s-10.094-22.5-22.5-22.5-22.5 10.094-22.5 22.5 10.094 22.5 22.5 22.5zm0-30c4.137 0 7.5 3.363 7.5 7.5s-3.363 7.5-7.5 7.5-7.5-3.363-7.5-7.5 3.363-7.5 7.5-7.5zm60 30c12.406 0 22.5-10.094 22.5-22.5s-10.094-22.5-22.5-22.5-22.5 10.094-22.5 22.5 10.094 22.5 22.5 22.5zm0-30c4.137 0 7.5 3.363 7.5 7.5s-3.363 7.5-7.5 7.5-7.5-3.363-7.5-7.5 3.363-7.5 7.5-7.5zm60 30c12.406 0 22.5-10.094 22.5-22.5s-10.094-22.5-22.5-22.5-22.5 10.094-22.5 22.5 10.094 22.5 22.5 22.5zm0-30c4.137 0 7.5 3.363 7.5 7.5s-3.363 7.5-7.5 7.5-7.5-3.363-7.5-7.5 3.363-7.5 7.5-7.5zm-300 90c12.406 0 22.5-10.094 22.5-22.5s-10.094-22.5-22.5-22.5-22.5 10.094-22.5 22.5 10.094 22.5 22.5 22.5zm0-30c4.137 0 7.5 3.363 7.5 7.5s-3.363 7.5-7.5 7.5-7.5-3.363-7.5-7.5 3.363-7.5 7.5-7.5zm60 30c12.406 0 22.5-10.094 22.5-22.5s-10.094-22.5-22.5-22.5-22.5 10.094-22.5 22.5 10.094 22.5 22.5 22.5zm0-30c4.137 0 7.5 3.363 7.5 7.5s-3.363 7.5-7.5 7.5-7.5-3.363-7.5-7.5 3.363-7.5 7.5-7.5zm60 30c12.406 0 22.5-10.094 22.5-22.5s-10.094-22.5-22.5-22.5-22.5 10.094-22.5 22.5 10.094 22.5 22.5 22.5zm0-30c4.137 0 7.5 3.363 7.5 7.5s-3.363 7.5-7.5 7.5-7.5-3.363-7.5-7.5 3.363-7.5 7.5-7.5zm60 30c12.406 0 22.5-10.094 22.5-22.5s-10.094-22.5-22.5-22.5-22.5 10.094-22.5 22.5 10.094 22.5 22.5 22.5zm0-30c4.137 0 7.5 3.363 7.5 7.5s-3.363 7.5-7.5 7.5-7.5-3.363-7.5-7.5 3.363-7.5 7.5-7.5zm60 30c12.406 0 22.5-10.094 22.5-22.5s-10.094-22.5-22.5-22.5-22.5 10.094-22.5 22.5 10.094 22.5 22.5 22.5zm0-30c4.137 0 7.5 3.363 7.5 7.5s-3.363 7.5-7.5 7.5-7.5-3.363-7.5-7.5 3.363-7.5 7.5-7.5zm60 30c12.406 0 22.5-10.094 22.5-22.5s-10.094-22.5-22.5-22.5-22.5 10.094-22.5 22.5 10.094 22.5 22.5 22.5zm0-30c4.137 0 7.5 3.363 7.5 7.5s-3.363 7.5-7.5 7.5-7.5-3.363-7.5-7.5 3.363-7.5 7.5-7.5zm-250-359c-4.14 0-7.5 3.36-7.5 7.5s3.36 7.5 7.5 7.5h200a7.5 7.5 0 1 0 0-15zm200 33.332H156a7.5 7.5 0 1 0 0 15h200c4.145 0 7.5-3.355 7.5-7.5a7.5 7.5 0 0 0-7.5-7.5zm0 33.336H156a7.5 7.5 0 1 0 0 15h200a7.5 7.5 0 0 0 7.5-7.5c0-4.145-3.355-7.5-7.5-7.5zm0 33.332H156c-4.14 0-7.5 3.36-7.5 7.5s3.36 7.5 7.5 7.5h200a7.5 7.5 0 1 0 0-15zm0 0"/></svg>