<svg height="512pt" viewBox="0 0 512 512.001" width="512pt" xmlns="http://www.w3.org/2000/svg"><path d="M505.426 344.152l-76.946-76.957c18.59-24.496 30.196-53.86 33.172-84.644 3.645-37.781-5.765-75.953-26.5-107.488-2.277-3.461-6.93-4.422-10.386-2.145a7.503 7.503 0 0 0-2.145 10.39c39.238 59.672 31.008 139.7-19.57 190.282-59.074 59.078-155.188 59.078-214.258 0-59.074-59.078-59.074-155.207 0-214.285C247.863.227 343.98.227 403.031 59.285l.41.414c2.922 2.938 7.668 2.957 10.606.035a7.497 7.497 0 0 0 .039-10.605l-.43-.434c-64.922-64.925-170.55-64.925-235.472 0a167.376 167.376 0 0 0-5.922 6.235H7.5c-4.14 0-7.5 3.36-7.5 7.5v33.172a7.5 7.5 0 0 0 15 0V69.934h145.23a165.214 165.214 0 0 0-14.789 25.234H52c-4.14 0-7.5 3.355-7.5 7.5s3.36 7.5 7.5 7.5h87.234a166.156 166.156 0 0 0-5.382 18.336H52a7.5 7.5 0 1 0 0 15h79.078a167.595 167.595 0 0 0-1.512 18.332H52a7.503 7.503 0 0 0 0 15.004h77.828c1.352 21.789 6.942 43.36 16.79 63.348h-12.614a7.5 7.5 0 0 0-7.5 7.503v222.032a7.5 7.5 0 0 0 7.5 7.504h60a7.5 7.5 0 0 0 7.5-7.504V303.625a165.252 165.252 0 0 0 21 12.297v153.8a7.503 7.503 0 0 0 7.5 7.505h60a7.5 7.5 0 0 0 7.5-7.504V332.879a169.214 169.214 0 0 0 17.504-1.078v115.855a7.5 7.5 0 1 0 15 0v-118.27c23.707-4.921 46.539-15.038 66.656-30.355l76.93 76.942c4.254 4.25 9.906 6.593 15.914 6.593a22.362 22.362 0 0 0 15.914-6.593c8.77-8.766 8.773-23.04.004-31.82zm-318.922 118.07h-45v-207.03h13.512a166.604 166.604 0 0 0 23.168 29.007 168.455 168.455 0 0 0 8.32 7.762zm51.004 0V322.376a166.952 166.952 0 0 0 45 9.973v129.875zm257.312-96.859a7.461 7.461 0 0 1-5.308 2.2 7.445 7.445 0 0 1-5.305-2.2l-75.98-75.984a169.16 169.16 0 0 0 5.43-5.18c1.773-1.773 3.5-3.582 5.183-5.43l75.972 75.989c2.926 2.926 2.93 7.687.008 10.605zm0 0"/><path d="M322.508 472.496a7.5 7.5 0 0 0-7.5 7.5V497H15V128.11c0-4.145-3.355-7.5-7.5-7.5a7.5 7.5 0 0 0-7.5 7.5V504.5a7.5 7.5 0 0 0 7.5 7.5h315.008c4.144 0 7.5-3.355 7.5-7.5v-24.504c0-4.144-3.356-7.5-7.5-7.5zm0 0"/><path d="M32.5 307.695v162.028c0 4.14 3.36 7.5 7.5 7.5h60.004c4.14 0 7.5-3.36 7.5-7.5V307.695c0-4.14-3.36-7.5-7.5-7.5H40c-4.14 0-7.5 3.36-7.5 7.5zm15 7.504h45.004v147.02H47.5zm60.582-105.015a7.5 7.5 0 0 0 7.5-7.504 7.5 7.5 0 0 0-7.5-7.5H52a7.502 7.502 0 0 0 0 15.004zm187.84-180.196c-36.5 0-70.781 14.18-96.524 39.926-25.742 25.746-39.921 60.031-39.921 96.535s14.18 70.79 39.921 96.535c25.747 25.746 60.024 39.926 96.524 39.926s70.777-14.18 96.523-39.926c25.743-25.746 39.918-60.03 39.918-96.535 0-36.504-14.175-70.789-39.918-96.535-25.746-25.746-60.023-39.926-96.523-39.926zm85.914 222.387c-22.91 22.914-53.422 35.531-85.914 35.531-32.496 0-63.004-12.617-85.914-35.531-22.914-22.914-35.531-53.43-35.531-85.926 0-32.5 12.617-63.015 35.53-85.93 23.684-23.687 54.802-35.535 85.915-35.535s62.23 11.848 85.914 35.536c22.91 22.914 35.527 53.43 35.527 85.93 0 32.495-12.617 63.01-35.527 85.925zm0 0"/></svg>