<svg height="512pt" viewBox="0 0 512 512" width="512pt" xmlns="http://www.w3.org/2000/svg"><path d="M504.5 118.5c-4.14 0-7.5 3.36-7.5 7.5v371H197v-17c0-4.14-3.36-7.5-7.5-7.5s-7.5 3.36-7.5 7.5v24.5c0 4.14 3.36 7.5 7.5 7.5h315c4.14 0 7.5-3.36 7.5-7.5V126c0-4.14-3.36-7.5-7.5-7.5zm0-63.5H211v-8.938C211 20.665 190.336 0 164.937 0H96.25c-4.14 0-7.5 3.36-7.5 7.5s3.36 7.5 7.5 7.5h68.688C182.065 15 196 28.934 196 46.063v92.874c0 17.13-13.934 31.063-31.063 31.063H119a7.493 7.493 0 0 0-7.191 5.379c-.73 2.469-6.778 24.266 1.898 39.207-3.227-.79-6.426-2.145-9.312-4.332-7.832-5.938-12.286-17.11-13.239-33.2A7.502 7.502 0 0 0 83.668 170H46.062C28.934 170 15 156.066 15 138.937V46.063C15 28.934 28.934 15 46.063 15H64.5c4.14 0 7.5-3.36 7.5-7.5S68.64 0 64.5 0H46.062C20.665 0 0 20.664 0 46.063v92.874C0 164.337 20.664 185 46.063 185h30.765c2.164 17.027 8.371 29.523 18.504 37.203 8.54 6.477 18.3 8.313 26.625 8.313 5.164 0 9.781-.707 13.203-1.453 3.95-.86 6.766-4.415 6.692-8.458a8.52 8.52 0 0 0-7-8.21c-3.739-.668-6.274-2.27-7.993-5.036-3.656-5.894-3.03-15.695-1.87-22.359h39.948A45.82 45.82 0 0 0 182 181.71v265.958a7.5 7.5 0 1 0 15 0V171.965c8.625-8.38 14-20.086 14-33.028V70h286v26a7.5 7.5 0 1 0 15 0V62.5c0-4.14-3.36-7.5-7.5-7.5zm0 0"/><path d="M234 110.5h220c4.14 0 7.5-3.36 7.5-7.5s-3.36-7.5-7.5-7.5H234c-4.14 0-7.5 3.36-7.5 7.5s3.36 7.5 7.5 7.5zm0 33.332h220a7.5 7.5 0 1 0 0-15H234a7.5 7.5 0 1 0 0 15zm0 33.336h220a7.5 7.5 0 1 0 0-15H234a7.5 7.5 0 1 0 0 15zm0 33.332h56.078a7.5 7.5 0 1 0 0-15H234c-4.14 0-7.5 3.36-7.5 7.5s3.36 7.5 7.5 7.5zm219 47H239c-4.14 0-7.5 3.36-7.5 7.5v180c0 4.14 3.36 7.5 7.5 7.5h214c4.14 0 7.5-3.36 7.5-7.5V265c0-4.14-3.36-7.5-7.5-7.5zm-206.5 180v-27.105l59.824-52.5L410.355 437.5zm199 0h-10.46l-121.427-92.914c-4.601-3.524-11.101-3.305-15.453.52L246.5 390.44V272.5h199zm0 0"/><path d="M395 344.5c16.816 0 30.5-13.684 30.5-30.5s-13.684-30.5-30.5-30.5-30.5 13.684-30.5 30.5 13.684 30.5 30.5 30.5zm0-46c8.547 0 15.5 6.953 15.5 15.5s-6.953 15.5-15.5 15.5-15.5-6.953-15.5-15.5 6.953-15.5 15.5-15.5zM57 79.602c0 11.062 5.648 32.601 43.492 52.539a11.789 11.789 0 0 0 5.508 1.363c1.895 0 3.785-.453 5.512-1.363C149.352 112.203 155 90.664 155 79.6c0-17.44-12.41-31.101-28.25-31.101-9.441 0-16.402 3.887-20.75 7.371-4.348-3.484-11.309-7.371-20.75-7.371C69.41 48.5 57 62.16 57 79.602zM85.25 63.5c6.23 0 10.531 3.035 13.04 5.582 2.015 2.04 4.823 3.215 7.71 3.215s5.695-1.172 7.71-3.215c2.509-2.547 6.81-5.582 13.04-5.582 8.605 0 13.25 8.297 13.25 16.102 0 12.785-12.367 26.757-34 38.476-21.633-11.719-34-25.691-34-38.476C72 71.797 76.645 63.5 85.25 63.5zm0 0"/></svg>