<svg height="512pt" viewBox="-66 0 512 512" width="512pt" xmlns="http://www.w3.org/2000/svg"><path d="M299.5 118.5h-220c-4.14 0-7.5 3.36-7.5 7.5s3.36 7.5 7.5 7.5h220a7.5 7.5 0 1 0 0-15zm-220 48.371h128.594c4.14 0 7.5-3.36 7.5-7.5s-3.36-7.5-7.5-7.5H79.5c-4.14 0-7.5 3.36-7.5 7.5s3.36 7.5 7.5 7.5zm220 224.258h-220c-4.14 0-7.5 3.36-7.5 7.5s3.36 7.5 7.5 7.5h220a7.5 7.5 0 1 0 0-15zm0 33.371h-220c-4.14 0-7.5 3.36-7.5 7.5s3.36 7.5 7.5 7.5h220a7.5 7.5 0 1 0 0-15zM31 47c0 12.406 10.094 22.5 22.5 22.5S76 59.406 76 47 65.906 24.5 53.5 24.5 31 34.594 31 47zm30 0c0 4.137-3.363 7.5-7.5 7.5S46 51.137 46 47s3.363-7.5 7.5-7.5S61 42.863 61 47zm30 0c0 12.406 10.094 22.5 22.5 22.5S136 59.406 136 47s-10.094-22.5-22.5-22.5S91 34.594 91 47zm30 0c0 4.137-3.363 7.5-7.5 7.5S106 51.137 106 47s3.363-7.5 7.5-7.5 7.5 3.363 7.5 7.5zm30 0c0 12.406 10.094 22.5 22.5 22.5S196 59.406 196 47s-10.094-22.5-22.5-22.5S151 34.594 151 47zm30 0c0 4.137-3.363 7.5-7.5 7.5S166 51.137 166 47s3.363-7.5 7.5-7.5 7.5 3.363 7.5 7.5zm0 0"/><path d="M371.5 0H7.5C3.36 0 0 3.36 0 7.5v440.25c0 4.14 3.36 7.5 7.5 7.5s7.5-3.36 7.5-7.5V95h302.5a7.5 7.5 0 1 0 0-15H15V15h349v65h-13.5a7.5 7.5 0 1 0 0 15H364v402H15v-17.125c0-4.14-3.36-7.5-7.5-7.5s-7.5 3.36-7.5 7.5V504.5c0 4.14 3.36 7.5 7.5 7.5h364a7.5 7.5 0 0 0 7.5-7.5V7.5a7.5 7.5 0 0 0-7.5-7.5zm0 0"/><path d="M98.66 301.969c.078 6.37 5.281 11.531 11.668 11.531h3.32V351c0 12.406 10.094 22.5 22.5 22.5 12.41 0 22.5-10.094 22.5-22.5v-37.5h3.329c2.078 0 4.027-.55 5.718-1.508l55.899 18.051a7.533 7.533 0 0 0 2.304.367 7.507 7.507 0 0 0 7.137-5.2 7.5 7.5 0 0 0-4.832-9.44l-54.55-17.618v-68.308L277 196.469V331.53l-18.34-5.926a7.502 7.502 0 0 0-9.441 4.836 7.5 7.5 0 0 0 4.832 9.442l25.203 8.137a9.761 9.761 0 0 0 8.73-1.375A9.756 9.756 0 0 0 292 338.77V189.23c0-3.105-1.5-6.05-4.016-7.875s-5.78-2.34-8.707-1.382l-111.582 36.035a11.575 11.575 0 0 0-5.718-1.508h-51.649c-6.387 0-11.586 5.156-11.668 11.527-7.87 1.297-15.129 4.996-20.883 10.75C70.504 244.051 66.5 253.72 66.5 264c0 19.07 13.937 34.934 32.16 37.969zM143.648 351c0 4.137-3.363 7.5-7.5 7.5-4.132 0-7.5-3.363-7.5-7.5v-37.5h15zm-29.996-121.5h45v69h-45zm-25.27 17.883a23.35 23.35 0 0 1 10.27-6.012v45.25C88.77 283.844 81.5 274.758 81.5 264c0-6.277 2.445-12.18 6.883-16.617zm0 0"/></svg>