<svg height="512pt" viewBox="0 0 512 512" width="512pt" xmlns="http://www.w3.org/2000/svg"><path d="M504.5 122h-21v-18.5A7.5 7.5 0 0 0 476 96h-63.578V22c0-12.133-9.871-22-22-22h-31c-12.133 0-22 9.867-22 22v74H216.328C200.371 74.477 174.79 60.5 146 60.5S91.629 74.477 75.672 96H36a7.5 7.5 0 0 0-7.5 7.5V122h-21a7.5 7.5 0 0 0-7.5 7.5v360a7.5 7.5 0 0 0 7.5 7.5h227.29c3.097 8.73 11.433 15 21.21 15s18.113-6.27 21.21-15h42.622a7.5 7.5 0 1 0 0-15H278.5v-17H476a7.5 7.5 0 0 0 7.5-7.5V191.668c0-4.145-3.355-7.5-7.5-7.5s-7.5 3.355-7.5 7.5V420h-205V111h73.922v149.293c0 4.84 2.793 9.027 6.844 11.066-1.465 7.278-1.297 18.157 5.293 32.473H301a7.497 7.497 0 0 0-7.5 7.5 7.5 7.5 0 0 0 7.5 7.5h57.156a144.169 144.169 0 0 0 6.739 9.082c2.437 3.035 6.09 4.777 10.023 4.777h.004c3.933 0 7.586-1.742 10.023-4.777 2.516-3.133 4.75-6.16 6.742-9.082H431a7.5 7.5 0 1 0 0-15h-30.715c6.59-14.316 6.758-25.191 5.293-32.469 4.05-2.043 6.844-6.23 6.844-11.07v-149.29H468.5v49c0 4.142 3.36 7.5 7.5 7.5a7.5 7.5 0 0 0 7.5-7.5v-23H497v345H352a7.497 7.497 0 0 0-7.5 7.5 7.5 7.5 0 0 0 7.5 7.5h152.5a7.5 7.5 0 0 0 7.5-7.5v-360a7.5 7.5 0 0 0-7.5-7.503zm-461 328v-15h205v15zM146 75.5c39.977 0 72.5 32.523 72.5 72.5s-32.523 72.5-72.5 72.5-72.5-32.523-72.5-72.5 32.523-72.5 72.5-72.5zm-7.5 159.676c2.473.21 4.973.324 7.5.324s5.027-.113 7.5-.324V349c0 4.137-3.363 7.5-7.5 7.5s-7.5-3.363-7.5-7.5zM15 137h13.5v214.5c0 4.14 3.355 7.5 7.5 7.5s7.5-3.36 7.5-7.5V111h23.219c-5.27 11.246-8.219 23.781-8.219 37 0 40.473 27.621 74.605 65 84.563V349c0 12.406 10.094 22.5 22.5 22.5s22.5-10.094 22.5-22.5V232.562c37.379-9.957 65-44.09 65-84.562 0-13.219-2.95-25.754-8.219-37H248.5v309h-205v-36c0-4.14-3.355-7.5-7.5-7.5s-7.5 3.36-7.5 7.5v73.5A7.5 7.5 0 0 0 36 465h197.5v17H15zm248.5 352.5c0 4.137-3.363 7.5-7.5 7.5s-7.5-3.363-7.5-7.5V465h15zm205-54.5v15h-205v-15zM354.59 257.691h-2.168v-15h45v15zm-2.168-196.003h45v15h-45zm0 166.003V91.688h45V227.69zm7-212.691h31c3.855 0 7 3.14 7 7v24.691h-45V22c0-3.86 3.14-7 7-7zm-.09 257.691h8.09v12.5c0 4.141 3.355 7.5 7.5 7.5s7.5-3.359 7.5-7.5v-12.5h8.09c1.687 5.809 2.625 20.141-15.59 43.711-18.211-23.57-17.277-37.902-15.59-43.71zm0 0"/><path d="M301 283.5h19.344c4.14 0 7.5-3.36 7.5-7.5s-3.36-7.5-7.5-7.5H301a7.5 7.5 0 1 0 0 15zm137.5 63.168c0-4.145-3.355-7.5-7.5-7.5H301a7.497 7.497 0 0 0-7.5 7.5 7.5 7.5 0 0 0 7.5 7.5h130a7.5 7.5 0 0 0 7.5-7.5zM301 374.5a7.5 7.5 0 1 0 0 15h46.105a7.5 7.5 0 1 0 0-15zm0 0"/></svg>