<svg height="511pt" viewBox="-62 0 511 511.999" width="511pt" xmlns="http://www.w3.org/2000/svg"><path d="M157.078 274.508c41.531 0 54.078-29.719 54.59-30.985 1.562-3.835-.273-8.242-4.113-9.8-3.84-1.559-8.2.261-9.758 4.097-.379.887-9.61 21.688-40.719 21.688-31.426 0-42.57-21.137-43.078-22.137a7.507 7.507 0 0 0-10.012-3.41 7.501 7.501 0 0 0-3.449 10.031c.61 1.246 15.371 30.516 56.54 30.516zm0 0"/><path d="M366.984 344.016h-9.535l.04-74.555c.003-7.332-2.848-14.23-8.032-19.414-5.184-5.188-12.078-8.043-19.414-8.043-15.125 0-27.434 12.305-27.441 27.426l-.02 33.898A32.363 32.363 0 0 0 284.777 298c-8.336 0-15.12 6.816-15.12 15.191v42.22c0 7.554-2.5 15.015-7.04 21.01a50.544 50.544 0 0 0-5.8 9.786c-6.192-4.39-12.762-7.988-19.649-10.75l-.223-1.785a9.458 9.458 0 0 0-6.925-8.008l-36.52-9.976v-30.422c45.137-15.512 77.715-58.278 77.992-108.551 2.215.508 4.473.785 6.746.785 19.274 0 33.262-20.645 33.262-49.086 0-21.86-8.715-37.418-23.164-42.293-.371-7.836-1.242-13.672-1.59-15.773.05-3.567-.09-17.493-4.867-33.477-1.184-3.973-5.367-6.23-9.332-5.039a7.497 7.497 0 0 0-5.04 9.332c4.68 15.668 4.235 29.313 4.231 29.438a7.449 7.449 0 0 0 .117 1.668c.028.16 1.52 8.457 1.641 19.738a5.5 5.5 0 0 0 .004.363c.078 10.102-.953 22.527-5.105 33.633a6.11 6.11 0 0 1-4.13 3.781 6.7 6.7 0 0 1-.96.184c-.028 0-.055 0-.086.004-1.074.101-2.504-.059-3.875-1.149-14.754-11.676-20.32-44.52-21.672-54.308-.707-5.102-3.629-9.63-8.02-12.418-7.402-4.703-13.867-9.86-19.21-15.336-11.942-12.223-30.637-14.86-45.47-6.41-24.277 13.836-61.34 20.125-76.148 22.187-7.719 1.074-13.703 6.969-14.894 14.672-3.836 24.816-11.782 44.11-21.27 51.621-1.332 1.059-2.715 1.23-3.781 1.145l-.277-.024A6.113 6.113 0 0 1 43.618 166c-8.84-23.61-3.532-53.437-3.477-53.73.062-.344.105-.7.117-1.051.012-.207 1.008-20.906 10.8-42.656C63.774 40.328 84.79 23.53 113.532 18.637c69.934-11.887 85.594 9.078 86.688 10.71 1.129 2.602 3.449 3.907 6.304 4.048 20.598 1.02 36.664 8.394 47.75 21.925a7.497 7.497 0 0 0 10.555 1.051 7.5 7.5 0 0 0 1.047-10.555c-13.195-16.105-31.664-25.234-54.93-27.16-7.273-8.64-31.156-26.5-99.93-14.804-33.663 5.73-59.199 26.14-73.843 59.023-10.047 22.555-11.66 43.492-11.871 47.184-.309 1.804-1.25 7.824-1.64 16.062C9.21 131 .5 146.555.5 168.414c0 28.441 13.988 49.086 33.258 49.086 2.281 0 4.539-.277 6.754-.785.136 25.152 8.203 49.004 23.367 69.012a7.488 7.488 0 0 0 5.98 2.972 7.446 7.446 0 0 0 4.524-1.523 7.496 7.496 0 0 0 1.449-10.508C62.532 259.118 55.5 238.16 55.5 216.07v-32.027a20.434 20.434 0 0 0 6.48-3.457c3.895-3.082 7.258-7.035 10.168-11.496a37.684 37.684 0 0 0-.648 6.914c0 20.676 16.82 37.5 37.5 37.5 18.11 0 33.262-12.906 36.746-30h20.508c3.484 17.094 18.633 30 36.746 30 20.676 0 37.5-16.824 37.5-37.5 0-2.39-.234-4.727-.664-6.992 2.914 4.492 6.285 8.476 10.187 11.566a20.371 20.371 0 0 0 6.477 3.469v32.023c0 55.38-45.055 100.43-100.43 100.43h-.14c-9.485 0-18.774-1.312-27.68-3.855-.016-.004-.035-.012-.047-.016-11.11-3.176-21.621-8.277-31.16-15.195a7.498 7.498 0 0 0-10.473 1.671 7.494 7.494 0 0 0 1.668 10.473A114.736 114.736 0 0 0 118.5 325.29v30.402l-36.512 9.97a9.458 9.458 0 0 0-6.926 8.003l-.222 1.809c-18.645 7.488-35.281 21.367-47.211 39.52C14.46 435.03 7.5 458.917 7.5 484.07v20.43c0 4.14 3.36 7.5 7.5 7.5h282c4.14 0 7.5-3.36 7.5-7.5v-20.43c0-10.027-1.14-19.886-3.352-29.453.45.035.895.074 1.352.11v.765c0 2.926 1.094 5.68 3.074 7.813-1.879 8.535-.976 23.386 15.367 44.328v.004a11.304 11.304 0 0 0 8.957 4.363 11.29 11.29 0 0 0 8.957-4.367c16.329-20.903 17.278-35.738 15.418-44.281 1.926-2.051 3.118-4.793 3.13-7.809v-.527h9.581c11.313 0 20.516-9.203 20.516-20.512V364.53c0-11.312-9.203-20.515-20.516-20.515zM15.5 168.414c0-9.613 2.324-19.957 8.332-25.277.64 9.039 2.273 18.867 5.738 28.113 1.953 5.238 5.926 9.46 10.93 11.785v17.906c-2.168 1.028-4.426 1.559-6.742 1.559-11.43.004-18.258-17.332-18.258-34.086zm93.5 30.09c-12.406 0-22.5-10.094-22.5-22.5 0-12.41 10.094-22.5 22.5-22.5s22.5 10.09 22.5 22.5c0 12.406-10.094 22.5-22.5 22.5zm94 0c-12.406 0-22.5-10.094-22.5-22.5 0-12.41 10.094-22.5 22.5-22.5s22.5 10.09 22.5 22.5c0 12.406-10.094 22.5-22.5 22.5zm0-60c-18.11 0-33.262 12.902-36.746 30h-20.508c-3.484-17.098-18.637-30-36.746-30-11.21 0-21.281 4.95-28.16 12.773 4.21-11.441 6.605-23.297 7.918-31.777a2.498 2.498 0 0 1 2.14-2.105c15.665-2.18 54.965-8.887 81.504-24.008 8.907-5.075 20.137-3.489 27.309 3.86 6.156 6.296 13.523 12.19 21.902 17.515.664.418 1.102 1.078 1.203 1.808 1.07 7.739 3.496 21.473 8.422 34.797-6.883-7.875-16.984-12.863-28.238-12.863zm79.445 32.75c3.457-9.246 5.086-19.078 5.723-28.113 6.008 5.32 8.332 15.66 8.332 25.273 0 16.754-6.832 34.09-18.262 34.09-2.316 0-4.57-.531-6.738-1.559v-17.898c5.012-2.328 8.988-6.55 10.945-11.793zM155.93 331.5h.14c7.672 0 15.172-.758 22.43-2.195v38.605l-.285 1.09h-44.422l-.293-1.129v-38.543a116.314 116.314 0 0 0 22.43 2.172zm18.386 52.5l-2.343 9.008c-2.368 9.105-9.801 12.347-15.97 12.347-6.167 0-13.6-3.242-15.968-12.347L137.691 384zM22.5 484.07c0-39.37 20.129-75.004 50.184-91.062L59.894 497H22.5zm267 0V497h-37.395l-2.449-19.914a7.497 7.497 0 0 0-8.36-6.531 7.499 7.499 0 0 0-6.526 8.36L236.992 497H75.008L89.5 379.16l29.352-8.015 6.664 25.636c3.668 14.102 15.918 23.574 30.484 23.574h.004c14.566 0 26.816-9.472 30.484-23.57l6.668-25.64 29.352 8.015 8.328 67.758a7.495 7.495 0 0 0 8.36 6.527c4.109-.504 7.03-4.25 6.527-8.36l-6.403-52.089a82.815 82.815 0 0 1 13.375 8.914c-.3 3.371-.261 6.785.157 10.2 1.515 12.46 7.925 31.488 31.964 39.324 3.102 10.476 4.684 21.433 4.684 32.636zm13-44.382c-20.922-1.833-32.602-11.696-34.758-29.395a33.474 33.474 0 0 1 .223-9.621 8.25 8.25 0 0 0 .164-.863c.996-5.11 3.172-10.004 6.45-14.332 6.5-8.586 10.081-19.266 10.081-30.067v-42.219c0-.144.09-.191.117-.191 9.774 0 17.723 8.055 17.723 17.953zM342.395 452h-24.868l.055-15h24.82zm-12.352-195c3.328 0 6.453 1.297 8.805 3.648a12.345 12.345 0 0 1 3.64 8.805L342.41 422h-24.89l.082-152.563c.003-6.855 5.586-12.437 12.441-12.437zm-.14 237.555c-9.981-14.121-10.454-23.16-9.708-27.543l19.508-.008c.711 4.281.254 13.344-9.8 27.55zm42.597-60.051a5.519 5.519 0 0 1-5.516 5.512H357.5V359.02h9.484a5.52 5.52 0 0 1 5.516 5.515zm0 0"/></svg>