<svg height="512pt" viewBox="0 0 512 512" width="512pt" xmlns="http://www.w3.org/2000/svg"><path d="M106.5 383.668c0 4.14 3.36 7.5 7.5 7.5s7.5-3.36 7.5-7.5v-80.18c.152 0 .305.008.457.008 5.168 0 9.781-.71 13.203-1.453a8.514 8.514 0 0 0 6.692-8.457 8.52 8.52 0 0 0-7-8.211c-3.735-.668-6.274-2.27-7.989-5.035-3.656-5.895-3.035-15.695-1.875-22.36h39.95c25.398 0 46.062-20.664 46.062-46.062v-92.875c0-25.398-20.664-46.063-46.063-46.063H121.5V61h38.168c4.14 0 7.5-3.36 7.5-7.5s-3.36-7.5-7.5-7.5H121.5v-8.5c0-12.406 10.094-22.5 22.5-22.5h224c12.406 0 22.5 10.094 22.5 22.5V46H191.668a7.5 7.5 0 1 0 0 15H390.5v35c0 4.14 3.36 7.5 7.5 7.5s7.5-3.36 7.5-7.5V37.5C405.5 16.82 388.68 0 368 0H144c-20.68 0-37.5 16.82-37.5 37.5v35.48H46.062C20.665 72.98 0 93.645 0 119.043v92.875c0 25.398 20.664 46.062 46.063 46.062h30.765c2.164 17.028 8.371 29.524 18.5 37.204 3.574 2.71 7.363 4.597 11.172 5.89zM91.152 250.035a7.499 7.499 0 0 0-7.488-7.055H46.062C28.934 242.98 15 229.047 15 211.918v-92.875c0-17.129 13.934-31.063 31.063-31.063h118.874c17.13 0 31.063 13.934 31.063 31.063v92.875c0 17.129-13.934 31.062-31.063 31.062H119a7.498 7.498 0 0 0-7.191 5.38c-.73 2.468-6.778 24.269 1.898 39.206-3.227-.789-6.426-2.144-9.312-4.336-7.832-5.937-12.29-17.105-13.243-33.195zM236 489h40c4.14 0 7.5-3.36 7.5-7.5s-3.36-7.5-7.5-7.5h-40c-4.14 0-7.5 3.36-7.5 7.5s3.36 7.5 7.5 7.5zm0 0"/><path d="M155 152.578c0-17.437-12.41-31.098-28.25-31.098-9.441 0-16.402 3.887-20.75 7.372-4.348-3.485-11.309-7.372-20.75-7.372-15.84 0-28.25 13.66-28.25 31.098 0 11.067 5.648 32.606 43.492 52.543a11.789 11.789 0 0 0 5.508 1.363c1.895 0 3.785-.457 5.512-1.363C149.352 185.184 155 163.645 155 152.578zm-83 0c0-7.805 4.645-16.098 13.25-16.098 6.23 0 10.531 3.036 13.04 5.583 2.015 2.042 4.823 3.21 7.71 3.21s5.695-1.171 7.71-3.21c2.509-2.547 6.81-5.583 13.04-5.583 8.605 0 13.25 8.293 13.25 16.098 0 12.79-12.367 26.762-34 38.48-21.633-11.722-34-25.69-34-38.48zm393.938 42.402H405.5v-67.316c0-4.14-3.36-7.5-7.5-7.5s-7.5 3.36-7.5 7.5v67.316h-43.438c-25.398 0-46.062 20.665-46.062 46.063v92.871c0 25.402 20.664 46.066 46.063 46.066h39.94c1.134 6.602 1.774 16.47-1.855 22.34-1.714 2.778-4.257 4.383-8 5.055a8.517 8.517 0 0 0-7 8.207 8.518 8.518 0 0 0 6.692 8.461c3.422.742 8.031 1.45 13.203 1.45.148 0 .305-.005.457-.005V451h-269v-35.168a7.5 7.5 0 1 0-15 0V474.5c0 20.68 16.82 37.5 37.5 37.5h224c20.676 0 37.5-16.82 37.5-37.5v-51.426c3.809-1.293 7.594-3.18 11.168-5.89 10.133-7.68 16.34-20.176 18.5-37.204h30.766c25.402 0 46.066-20.664 46.066-46.062v-92.875c0-25.398-20.664-46.063-46.063-46.063zM390.5 474.5c0 12.406-10.094 22.5-22.5 22.5H144c-12.406 0-22.5-10.094-22.5-22.5V466h269zM497 333.918c0 17.129-13.934 31.062-31.063 31.062h-37.605a7.498 7.498 0 0 0-7.484 7.055c-.957 16.09-5.41 27.262-13.243 33.195-2.886 2.192-6.085 3.547-9.312 4.336 8.676-14.941 2.629-36.742 1.898-39.207A7.498 7.498 0 0 0 393 364.98h-45.937c-17.13 0-31.063-13.933-31.063-31.062v-92.875c0-17.129 13.934-31.063 31.063-31.063h118.875c17.128 0 31.062 13.934 31.062 31.063zm0 0"/><path d="M428.676 274.93A28.343 28.343 0 0 0 435 257.055c0-15.715-12.785-28.5-28.5-28.5s-28.5 12.785-28.5 28.5c0 6.765 2.371 12.98 6.324 17.875C372.254 281.3 364 293.977 364 308.547v.664c0 10.113 8.23 18.344 18.348 18.344h48.308c10.114 0 18.344-8.23 18.344-18.344v-.664c0-14.57-8.254-27.246-20.324-33.617zM406.5 243.555c7.445 0 13.5 6.058 13.5 13.5 0 7.445-6.055 13.5-13.5 13.5s-13.5-6.055-13.5-13.5c0-7.442 6.055-13.5 13.5-13.5zM434 309.21c0 1.844-1.5 3.344-3.348 3.344h-48.308A3.348 3.348 0 0 1 379 309.21v-.664c0-12.676 10.313-22.992 22.992-22.992h9.016c12.68 0 22.992 10.316 22.992 22.992zM348.11 92.648h-106a7.5 7.5 0 0 0-7.5 7.5 7.5 7.5 0 0 0 7.5 7.5h106c4.14 0 7.5-3.359 7.5-7.5 0-4.14-3.36-7.5-7.5-7.5zm0 30h-106a7.5 7.5 0 0 0-7.5 7.5 7.5 7.5 0 0 0 7.5 7.5h106c4.14 0 7.5-3.359 7.5-7.5 0-4.14-3.36-7.5-7.5-7.5zm7.5 37.5c0-4.14-3.36-7.5-7.5-7.5h-106a7.5 7.5 0 0 0-7.5 7.5 7.5 7.5 0 0 0 7.5 7.5h106c4.14 0 7.5-3.359 7.5-7.5zm-81.52 151.68c0-4.14-3.36-7.5-7.5-7.5h-106a7.5 7.5 0 0 0-7.5 7.5v30a7.5 7.5 0 0 0 7.5 7.5h106c4.14 0 7.5-3.36 7.5-7.5zm-15 22.5h-91v-15h91zm7.5 30h-106a7.5 7.5 0 1 0 0 15h106c4.14 0 7.5-3.36 7.5-7.5s-3.36-7.5-7.5-7.5zm0 0"/></svg>