<svg height="512pt" viewBox="0 0 512 512" width="512pt" xmlns="http://www.w3.org/2000/svg"><path d="M489.5 467h-51v-18.668c0-4.14-3.36-7.5-7.5-7.5s-7.5 3.36-7.5 7.5V467h-15V317.5h15v97.832a7.5 7.5 0 1 0 15 0V317.5H451c12.406 0 22.5-10.094 22.5-22.5s-10.094-22.5-22.5-22.5h-2.012V265a27.33 27.33 0 0 0-2.898-12.27H456c4.14 0 7.5-3.359 7.5-7.5V7.5c0-4.14-3.36-7.5-7.5-7.5H56c-4.14 0-7.5 3.36-7.5 7.5v24c0 4.14 3.36 7.5 7.5 7.5s7.5-3.36 7.5-7.5V15h385v222.73l-40.992-.23c1.66-17.586 3.312-40.559 3.312-62.34 0-21.11-14.226-38.457-24.41-48.172 11.746-14.707 10.817-36.273-2.8-49.89-14.622-14.621-38.41-14.621-53.032 0L296.48 111.19c-3.613 3.621-3.613 9.508.004 13.13l39.903 39.902a9.25 9.25 0 0 0 6.566 2.714 9.241 9.241 0 0 0 6.563-2.714l26.468-26.465c8.329 7.887 19.836 21.64 19.836 37.402 0 22.488-1.89 46.73-3.382 62.34l-56.188.23c-4.14 0-7.5 3.36-7.5 7.5s3.36 7.5 7.5 7.5h12.637a27.318 27.318 0 0 0-2.899 12.27v7.5H242.805v-19.77h60.945c4.14 0 7.5-3.359 7.5-7.5s-3.36-7.5-7.5-7.5h-8.797c.348-1.449.547-2.949.547-4.5v-90c0-10.75-8.746-19.5-19.5-19.5H160c-10.754 0-19.5 8.75-19.5 19.5v90c0 1.551.2 3.051.547 4.5h-13.86V230c0-6.34-5.16-11.5-11.5-11.5h-32c-6.34 0-11.5 5.16-11.5 11.5v7.73H63.5V63.5c0-4.14-3.36-7.5-7.5-7.5s-7.5 3.36-7.5 7.5v181.73c0 4.141 3.36 7.5 7.5 7.5h16.188v19.77H61c-12.406 0-22.5 10.094-22.5 22.5s10.094 22.5 22.5 22.5h12.5V467h-51C10.094 467 0 477.094 0 489.5S10.094 512 22.5 512h467c12.406 0 22.5-10.094 22.5-22.5S501.906 467 489.5 467zM342.953 149.574l-31.82-31.816 30.05-30.055c8.774-8.773 23.047-8.773 31.82 0 8.774 8.774 8.774 23.047 0 31.82zM118.5 467V317.5h135V400c0 4.14 3.36 7.5 7.5 7.5h132.5V467zm275-74.5h-125v-75h125zM360.988 265c0-6.086 4.375-11.164 10.145-12.27h52.71c5.77 1.106 10.145 6.184 10.145 12.27v7.5h-73zm-133.183 7.344h-19.61V252.73h19.61zM155.5 167.8h125v41.922h-125zm4.5-29.07h116c2.48 0 4.5 2.019 4.5 4.5v9.57h-125v-9.57c0-2.481 2.02-4.5 4.5-4.5zm-4.5 94.5v-8.508h125v8.507a4.505 4.505 0 0 1-4.484 4.5H159.984a4.505 4.505 0 0 1-4.484-4.5zm37.695 19.5v19.77h-66.007v-19.77zM87.188 233.5h25v39h-25zM53.5 295c0-4.137 3.363-7.5 7.5-7.5h390c4.137 0 7.5 3.363 7.5 7.5s-3.363 7.5-7.5 7.5H61a7.507 7.507 0 0 1-7.5-7.5zm35 22.5h15V467h-15zm401 179.5h-467c-4.137 0-7.5-3.363-7.5-7.5s3.363-7.5 7.5-7.5h467c4.137 0 7.5 3.363 7.5 7.5s-3.363 7.5-7.5 7.5zm0 0"/><path d="M313 362.5h34c4.14 0 7.5-3.36 7.5-7.5s-3.36-7.5-7.5-7.5h-34c-4.14 0-7.5 3.36-7.5 7.5s3.36 7.5 7.5 7.5zm0 0"/></svg>