<svg height="512pt" viewBox="-102 0 512 512" width="512pt" xmlns="http://www.w3.org/2000/svg"><path d="M299.5 91h-15.07l-10.125-34.07a14.927 14.927 0 0 0-4.5-7l-24.942-21.75a14.938 14.938 0 0 0-9.816-3.68h-23.602c-2.433 0-4.855.605-7 1.746l-13.152 6.98-.715-2.413a14.855 14.855 0 0 0-5.621-7.883L156.551 2.734A14.745 14.745 0 0 0 147.969 0h-22.11a14.786 14.786 0 0 0-13.656 9.078l-6.558 15.633-29.872 5.64a14.754 14.754 0 0 0-10.289 7.54l-7.78 14.476-18.474 6.156a14.757 14.757 0 0 0-9.968 11.86L26.18 91H7.5C3.36 91 0 94.36 0 98.5v40c0 4.14 3.36 7.5 7.5 7.5h6.684l16.425 311.285c-3.152.887-5.468 3.777-5.468 7.215v40c0 4.14 3.359 7.5 7.5 7.5H57.5c4.14 0 7.5-3.36 7.5-7.5s-3.36-7.5-7.5-7.5H40.14v-25h226.72v25H89.25c-4.14 0-7.5 3.36-7.5 7.5s3.36 7.5 7.5 7.5h185.11c4.14 0 7.5-3.36 7.5-7.5v-40c0-3.438-2.317-6.328-5.47-7.215l6.903-130.836a7.495 7.495 0 0 0-7.094-7.883c-4.117-.207-7.668 2.957-7.886 7.094l-.567 10.762-22.437-29.313 25.718-32.851-1.027 19.46a7.495 7.495 0 0 0 7.094 7.884c4.113.203 7.668-2.957 7.883-7.094l2.015-38.153v-.011L292.816 146h6.684a7.5 7.5 0 0 0 7.5-7.5v-40a7.5 7.5 0 0 0-7.5-7.5zm-26.398 143.945l-25.403-33.918 29.227-38.539zM241.91 417.02l23.063-27.98-2.88 54.597zM253.398 457h-44.437l23.144-28.082zm-68.402-311L153.5 187.148 122.004 146zM74.406 404.738L40.7 363.84l-.226-4.328 30.765-40.203 34.516 44.09zm40.906-29.125l28.665 36.614-30.883 39.453-28.883-35.047zm-76.058-39.191l-3.281-62.16 25.715 32.847zm41.402-29.414l29.64-38.73 33.79 44.566-28.961 38.191zm-9.55-12.203L38.757 253.48l29.969-40.02 32.168 42.423zm6.976-93.832l33.191-44.317 32.782 42.832-33.703 44.04zM100.512 146l-31.86 42.54L36.398 146zM59.3 201.027l-25.403 33.918-3.824-72.46zm5.79 215.993l-20.18 26.617-2.883-54.598zm9.805 11.898L98.039 457H53.602zm78.605-4.523L179.023 457h-51.046zm40.406 27.285l-30.883-39.453 28.665-36.614 31.101 41.02zM153.5 400.059l-28.813-36.805 28.813-38 28.813 38zm9.414-87.215l33.79-44.567 29.64 38.73-34.465 44.028zM153.5 300.43l-33.746-44.504 33.746-44.098 33.746 44.098zm9.445-100.942l32.782-42.832 33.191 44.317-32.27 42.554zM206.488 146h64.114l-32.254 42.54zM44.078 72.719l18.434-6.145a14.73 14.73 0 0 0 8.367-7.035l7.773-14.469 29.868-5.636a14.767 14.767 0 0 0 10.918-8.825L125.984 15h21.93l28.293 20.113 1.578 5.325a14.88 14.88 0 0 0-3.39 2.804l-15.211 17.07-18.875-4.285c-7.235-1.64-14.668 2.356-17.282 9.301L113.363 91H41.348zM15 106h202.5a7.5 7.5 0 1 0 0-15h-88.129l7.617-20.348 18.875 4.29a14.947 14.947 0 0 0 14.442-4.614l15.254-17.074 4.644-2.469c.027-.015.059-.027.086-.043L211.445 39.5l23.559-.016 24.922 21.72L268.78 91h-19.53a7.5 7.5 0 1 0 0 15H292v25H15zm251.527 253.512l-.226 4.328-33.707 40.898-31.348-41.34 34.516-44.09zm-60.422-103.63l32.168-42.421 29.97 40.02-32.348 41.324zm0 0"/></svg>