<svg height="512pt" viewBox="-22 0 512 512" width="512pt" xmlns="http://www.w3.org/2000/svg"><path d="M445.465 32.148h-57.93C374.56 32.148 364 42.707 364 55.688v361.96c0 .29.02.575.05.856.009.058.02.117.028.176.035.246.078.484.137.718a7.314 7.314 0 0 0 .297.957l.035.106a7.288 7.288 0 0 0 .418.863l42.613 75.711.059.106c1.215 2.074 2.941 3.625 4.933 4.511.024.012.043.028.067.036.265.117.543.203.816.292.145.047.281.114.426.153.113.031.23.047.344.074.742.18 1.5.29 2.277.29 3.121 0 6.035-1.52 8.027-4.126.012-.012.024-.023.035-.039.133-.176.247-.371.372-.555.144-.214.293-.414.425-.636a.063.063 0 0 1 .016-.028c.016-.027.027-.054.043-.078l1.437-2.555 41.18-73.156c0-.008.004-.012.008-.02.152-.273.289-.554.406-.847.016-.035.024-.07.04-.105a7.92 7.92 0 0 0 .241-.747c.02-.07.036-.136.055-.207.055-.234.102-.472.133-.718.008-.059.02-.118.027-.176.032-.281.051-.567.051-.856V159.5a7.5 7.5 0 1 0-15 0v250.648h-15v-315h15V127.5a7.5 7.5 0 1 0 15 0V55.687c.004-12.98-10.555-23.539-23.531-23.539zm-14.922 425.207h-28.086l-18.129-32.207h64.344zm-19.64 15h11.195l-5.598 9.95zM394 410.148h-15v-315h15zm30 0h-15v-315h15zm-45-330v-24.46c0-4.708 3.828-8.54 8.535-8.54h57.93c4.707 0 8.535 3.832 8.535 8.54v24.46zM341.5 39H247v-3c0-7.445-6.055-13.5-13.5-13.5h-14.965C216.175 9.719 204.957 0 191.5 0h-34c-13.457 0-24.676 9.719-27.035 22.5H115.5c-7.445 0-13.5 6.055-13.5 13.5v3H7.5C3.36 39 0 42.36 0 46.5V96c0 4.14 3.36 7.5 7.5 7.5S15 100.14 15 96V54h87v15H37.5c-4.14 0-7.5 3.36-7.5 7.5v398c0 4.14 3.36 7.5 7.5 7.5h203c4.14 0 7.5-3.36 7.5-7.5s-3.36-7.5-7.5-7.5H45V84h57v6c0 7.445 6.055 13.5 13.5 13.5h118c7.445 0 13.5-6.055 13.5-13.5v-6h57v383h-30.832a7.5 7.5 0 1 0 0 15H311.5c4.14 0 7.5-3.36 7.5-7.5v-398c0-4.14-3.36-7.5-7.5-7.5H247V54h87v443H15V127.668a7.5 7.5 0 1 0-15 0V504.5c0 4.14 3.36 7.5 7.5 7.5h334c4.14 0 7.5-3.36 7.5-7.5v-458c0-4.14-3.36-7.5-7.5-7.5zm-184-24h34c5.113 0 9.516 3.09 11.45 7.5h-56.9c1.934-4.41 6.337-7.5 11.45-7.5zM232 88.5H117v-51h115zm0 0"/><path d="M79.5 155.5h192c4.14 0 7.5-3.36 7.5-7.5s-3.36-7.5-7.5-7.5h-192c-4.14 0-7.5 3.36-7.5 7.5s3.36 7.5 7.5 7.5zm0 33.332h192a7.5 7.5 0 1 0 0-15h-192a7.5 7.5 0 1 0 0 15zM279 214.668a7.5 7.5 0 0 0-7.5-7.5h-192a7.5 7.5 0 1 0 0 15h192c4.14 0 7.5-3.36 7.5-7.5zM79.5 240.5c-4.14 0-7.5 3.36-7.5 7.5s3.36 7.5 7.5 7.5h48.941a7.5 7.5 0 1 0 0-15zm0 0"/></svg>