<svg height="512pt" viewBox="0 0 512 512" width="512pt" xmlns="http://www.w3.org/2000/svg"><path d="M506.996 58.93L459.91 42.3a7.5 7.5 0 0 0-4.992 14.145L497 71.305v364.172l-150.668-52.032V18.102l78.41 27.687a7.5 7.5 0 0 0 4.992-14.145L341.328.43a7.98 7.98 0 0 0-2.496-.43c-1.352 0-2.824.41-4.016 1.164L171.98 104.348 9.523 58.778A7.502 7.502 0 0 0 0 66v380a7.496 7.496 0 0 0 5.004 7.07l30.863 10.899a7.496 7.496 0 0 0 9.566-4.574 7.5 7.5 0 0 0-4.574-9.57L15 440.694v-364.8l150.668 42.261v375.742l-94.629-33.414c-3.902-1.382-8.187.668-9.566 4.575s.668 8.187 4.574 9.57l104.625 36.941a8.07 8.07 0 0 0 2.496.43h.004c1.484 0 3.02-.473 4.293-1.352l162.527-113.52 162.059 55.962A7.498 7.498 0 0 0 512 446V66a7.496 7.496 0 0 0-5.004-7.07zm-326.328 57.668l150.664-95.47v363.75L180.668 490.114zm0 0"/><path d="M143.164 469.59a7.497 7.497 0 0 0 7.504-7.5V135.21a7.503 7.503 0 0 0-5.477-7.222L39.523 98.352A7.502 7.502 0 0 0 30 105.574v319.203a7.497 7.497 0 0 0 5.004 7.075l105.664 37.312a7.534 7.534 0 0 0 2.496.426zm-7.496-328.692v92.32L45 207.786v-92.32zm0 310.59L45 419.473v-196.11l90.668 25.434zM364.504 43.785a7.506 7.506 0 0 0-3.172 6.125v317.504a7.5 7.5 0 0 0 5.055 7.09l105.664 36.488a7.516 7.516 0 0 0 6.8-.98 7.502 7.502 0 0 0 3.149-6.11V87.222a7.505 7.505 0 0 0-5.004-7.074L371.328 42.836a7.507 7.507 0 0 0-6.824.95zM467 393.38l-90.668-31.309V238.895L467 270.91zm0-300.852v162.477l-90.668-32.02V60.512zm0 0"/><path d="M391.605 282.008l56.418 19.926a7.57 7.57 0 0 0 2.5.43 7.502 7.502 0 0 0 2.497-14.575l-56.422-19.926a7.502 7.502 0 0 0-9.57 4.575 7.502 7.502 0 0 0 4.577 9.57zm0 30.625l56.418 19.922a7.496 7.496 0 0 0 9.57-4.574 7.496 7.496 0 0 0-4.573-9.567l-56.422-19.926a7.502 7.502 0 0 0-9.57 4.575 7.502 7.502 0 0 0 4.577 9.57zm0 30.625l56.418 19.922a7.502 7.502 0 0 0 4.996-14.145l-56.421-19.922a7.502 7.502 0 0 0-9.57 4.575 7.502 7.502 0 0 0 4.577 9.57zM312.45 55.453a7.5 7.5 0 0 0-7.63.234l-105.668 66.954a7.495 7.495 0 0 0-3.484 6.336V160a7.5 7.5 0 1 0 15 0v-26.898l90.664-57.446v293.586l-90.664 63.324V192a7.5 7.5 0 1 0-15 0v254.953a7.504 7.504 0 0 0 4.031 6.652 7.516 7.516 0 0 0 3.465.848 7.475 7.475 0 0 0 4.297-1.351L313.129 379.3a7.5 7.5 0 0 0 3.203-6.149V62.023a7.498 7.498 0 0 0-3.883-6.57zm0 0"/></svg>