<svg height="512pt" viewBox="0 0 512 512" width="512pt" xmlns="http://www.w3.org/2000/svg"><path d="M499.77 447.629c-50.512-16.18-101.75-22.895-152.293-19.973-28.172 1.633-51.102 6.028-67.313 10.149l27.371-48.63c.004-.003.004-.01.008-.015.152-.273.289-.558.406-.855.016-.032.024-.063.035-.094.098-.246.18-.5.25-.758.016-.066.036-.133.051-.2a7.21 7.21 0 0 0 .137-.726c.008-.058.02-.117.027-.175.031-.282.051-.563.051-.852V106a7.5 7.5 0 1 0-15 0v271.996h-15V63h15v10.832a7.5 7.5 0 1 0 15 0V23.535C308.5 10.56 297.941 0 284.965 0h-57.93C214.06 0 203.5 10.559 203.5 23.535V385.5c0 .29.02.574.05.855.009.055.02.114.028.172.035.246.078.489.137.727.015.066.035.133.05.2.07.257.153.51.25.757.012.031.02.062.036.098a7.4 7.4 0 0 0 .406.851c.004.004.004.012.008.016l27.379 48.644c-27.196-6.898-73.82-14.703-132.367-8.625a7.5 7.5 0 0 0-6.688 8.235 7.495 7.495 0 0 0 8.234 6.683c68.653-7.125 119.957 5.504 141.254 12.242l4.801 8.532.059.105a11.57 11.57 0 0 0 1.496 2.008H17.602A2.6 2.6 0 0 1 15 464.398c0-.703.273-1.226.488-1.52a2.634 2.634 0 0 1 1.32-.968c17.419-5.578 35.18-10.047 52.797-13.281a7.497 7.497 0 0 0 6.02-8.73 7.5 7.5 0 0 0-8.73-6.024c-18.243 3.352-36.633 7.98-54.668 13.754-3.555 1.144-6.61 3.348-8.848 6.398A17.503 17.503 0 0 0 0 464.398c0 4.48 1.695 8.559 4.46 11.668A22.389 22.389 0 0 0 0 489.5C0 501.906 10.094 512 22.5 512h467c12.406 0 22.5-10.094 22.5-22.5 0-5.031-1.66-9.68-4.46-13.434 2.765-3.109 4.46-7.187 4.46-11.668a17.556 17.556 0 0 0-12.23-16.77zm-4.583 14.281a2.601 2.601 0 0 1 1.813 2.488 2.603 2.603 0 0 1-2.602 2.602H263.363c.035-.035.063-.074.098-.11.512-.574.992-1.199 1.398-1.898l.036-.058c.007-.016.02-.032.027-.047l3.598-6.395 1.203-2.14c27.984-8.832 114.972-29.829 225.465 5.558zM233.5 377.996h-15V63h15zM288.172 393l-18.129 32.207h-28.086L223.828 393zm-37.77 47.207h11.196L256 450.152zm13.098-62.21h-15V63h15zm-45-354.462c0-4.707 3.828-8.535 8.535-8.535h57.93c4.707 0 8.535 3.828 8.535 8.535V48h-75zM489.5 497h-467c-4.137 0-7.5-3.363-7.5-7.5s3.363-7.5 7.5-7.5h467c4.137 0 7.5 3.363 7.5 7.5s-3.363 7.5-7.5 7.5zm0 0"/><path d="M41.637 181.207h26.48c2.031 14.926 7.602 25.93 16.61 32.758 7.742 5.87 16.57 7.531 24.09 7.531 4.648 0 8.796-.637 11.87-1.305a8.405 8.405 0 0 0 6.602-8.347 8.404 8.404 0 0 0-6.906-8.098c-3.047-.547-5.11-1.836-6.488-4.062-2.946-4.746-2.547-12.782-1.645-18.48h34.613c22.957 0 41.637-18.677 41.637-41.638v-82.21c0-22.958-18.676-41.637-41.637-41.637H41.637C18.68 15.723 0 34.399 0 57.355v82.215c0 22.957 18.68 41.637 41.637 41.637zM15 57.355C15 42.668 26.95 30.72 41.637 30.72h105.226c14.688 0 26.637 11.949 26.637 26.636v82.215c0 14.688-11.95 26.637-26.637 26.637H106.2a7.497 7.497 0 0 0-7.191 5.379c-.63 2.121-5.63 20.152.8 33.562-2.09-.695-4.132-1.71-6.019-3.136-6.723-5.098-10.55-14.77-11.379-28.75a7.501 7.501 0 0 0-7.484-7.059h-33.29C26.95 166.207 15 154.258 15 139.57zm455.363 145.711h-22.238a7.5 7.5 0 1 0 0 15h22.238c14.688 0 26.637 11.95 26.637 26.637v82.211c0 14.688-11.95 26.64-26.637 26.64h-33.289a7.498 7.498 0 0 0-7.484 7.055c-.828 13.98-4.66 23.653-11.38 28.75-1.886 1.426-3.929 2.442-6.022 3.137 6.433-13.41 1.43-31.441.804-33.562a7.5 7.5 0 0 0-7.191-5.38h-40.664c-14.688 0-26.637-11.949-26.637-26.64v-82.21c0-14.688 11.95-26.638 26.637-26.638h50.988a7.5 7.5 0 1 0 0-15h-50.988c-22.957 0-41.637 18.68-41.637 41.637v82.211c0 22.961 18.676 41.64 41.637 41.64h34.613c.902 5.7 1.3 13.735-1.645 18.477-1.378 2.227-3.44 3.52-6.488 4.063-3.93.707-6.836 4.113-6.906 8.105a8.397 8.397 0 0 0 6.602 8.34c3.074.668 7.222 1.305 11.87 1.305 7.516 0 16.348-1.66 24.087-7.531 9.007-6.829 14.582-17.829 16.613-32.758h26.48c22.957 0 41.637-18.68 41.637-41.637v-82.211c0-22.96-18.68-41.64-41.637-41.64zm0 0"/><path d="M382.656 276.465c12.961 0 23.5-10.543 23.5-23.5 0-12.961-10.539-23.5-23.5-23.5-12.957 0-23.5 10.539-23.5 23.5 0 12.957 10.543 23.5 23.5 23.5zm0-32c4.688 0 8.5 3.812 8.5 8.5 0 4.683-3.812 8.5-8.5 8.5-4.683 0-8.5-3.817-8.5-8.5 0-4.688 3.817-8.5 8.5-8.5zm68 52c-12.957 0-23.5 10.539-23.5 23.5 0 12.957 10.543 23.5 23.5 23.5 12.961 0 23.5-10.543 23.5-23.5 0-12.961-10.539-23.5-23.5-23.5zm0 32c-4.683 0-8.5-3.817-8.5-8.5 0-4.688 3.817-8.5 8.5-8.5 4.688 0 8.5 3.812 8.5 8.5 0 4.683-3.812 8.5-8.5 8.5zm6.699-93.305l-92 92a7.497 7.497 0 0 0 0 10.606 7.47 7.47 0 0 0 5.301 2.195c1.922 0 3.84-.73 5.305-2.195l92-92a7.497 7.497 0 0 0 0-10.606 7.497 7.497 0 0 0-10.606 0zM94 151.5c29.5 0 53.5-24 53.5-53.5a53.492 53.492 0 0 0-7.383-27.137 7.506 7.506 0 0 0-10.265-2.656L101.5 84.887V52a7.5 7.5 0 0 0-7.5-7.5c-29.5 0-53.5 24-53.5 53.5s24 53.5 53.5 53.5zm-7.5-91.266V98a7.5 7.5 0 0 0 11.3 6.465l32.555-19.153A38.532 38.532 0 0 1 132.5 98c0 21.23-17.27 38.5-38.5 38.5S55.5 119.23 55.5 98c0-18.664 13.348-34.27 31-37.766zm0 0"/></svg>