<svg height="512pt" viewBox="0 0 512 512.001" width="512pt" xmlns="http://www.w3.org/2000/svg"><path d="M474.5 357.5c20.68 0 37.5-16.82 37.5-37.5V160c0-20.68-16.82-37.5-37.5-37.5h-19V82c0-4.145-3.355-7.5-7.5-7.5h-22.5v-67c0-4.145-3.355-7.5-7.5-7.5H94a7.5 7.5 0 0 0-7.5 7.5v67H64a7.5 7.5 0 0 0-7.5 7.5v40.5h-19C16.824 122.5 0 139.32 0 160v15.5a7.5 7.5 0 1 0 15 0V160c0-12.406 10.094-22.5 22.5-22.5h437c12.406 0 22.5 10.094 22.5 22.5v160c0 12.406-10.094 22.5-22.5 22.5h-21v-80.45c0-12.984-10.563-23.55-23.55-23.55H384c-4.14 0-7.5 3.355-7.5 7.5s3.36 7.5 7.5 7.5h45.95c4.714 0 8.55 3.836 8.55 8.55v80.45h-13V286c0-4.145-3.355-7.5-7.5-7.5H94a7.5 7.5 0 0 0-7.5 7.5v56.5h-13v-80.45c0-4.714 3.836-8.55 8.55-8.55H352c4.145 0 7.5-3.355 7.5-7.5s-3.355-7.5-7.5-7.5H82.05c-12.984 0-23.55 10.563-23.55 23.55v80.45h-21C25.094 342.5 15 332.406 15 320V207.5a7.5 7.5 0 1 0-15 0V320c0 20.68 16.824 37.5 37.5 37.5h49V490a7.5 7.5 0 0 0 7.5 7.5h34c4.14 0 7.5-3.355 7.5-7.5s-3.36-7.5-7.5-7.5h-26.5v-189h309v82.953c-24.117 11.41-40.848 35.973-40.848 64.375 0 15.555 5.032 29.95 13.532 41.672H160.25a7.5 7.5 0 1 0 0 15h237.586c11.953 9.09 26.848 14.5 42.992 14.5C480.07 512 512 480.07 512 440.824c0-39.242-31.93-71.172-71.172-71.172a71.08 71.08 0 0 0-15.328 1.68V357.5zM101.5 15h309v107.5h-309zm-30 74.5h15v33h-15zm354 33v-33h15v33zM497 440.824C497 471.801 471.8 497 440.828 497c-30.976 0-56.176-25.2-56.176-56.176 0-30.972 25.2-56.172 56.176-56.172 30.973 0 56.172 25.2 56.172 56.172zm0 0"/><path d="M151 350.523h210a7.5 7.5 0 0 0 7.5-7.5c0-4.144-3.355-7.5-7.5-7.5H151a7.5 7.5 0 1 0 0 15zm0 33.332h210c4.145 0 7.5-3.355 7.5-7.5a7.5 7.5 0 0 0-7.5-7.5H151a7.5 7.5 0 1 0 0 15zm0 33.336h210a7.5 7.5 0 0 0 7.5-7.5c0-4.144-3.355-7.5-7.5-7.5H151a7.5 7.5 0 1 0 0 15zm61.031 25.832a7.5 7.5 0 0 0-7.5-7.5H151a7.5 7.5 0 1 0 0 15h53.531c4.14 0 7.5-3.359 7.5-7.5zm190.657 2.832l27.667 22.122a7.49 7.49 0 0 0 4.684 1.64c2.07 0 4.125-.855 5.602-2.512l37.91-42.582a7.501 7.501 0 0 0-11.203-9.976l-33.18 37.27-22.113-17.68a7.5 7.5 0 0 0-10.543 1.175 7.5 7.5 0 0 0 1.175 10.543zm11.32-234.73c13.504 0 24.492-10.988 24.492-24.508 0-13.508-10.988-24.492-24.492-24.492H97.992c-13.504 0-24.492 10.984-24.492 24.508 0 13.504 10.988 24.492 24.492 24.492zM88.5 186.617c0-5.234 4.258-9.492 9.492-9.492h316.016c5.234 0 9.492 4.258 9.492 9.508 0 5.23-4.258 9.492-9.492 9.492H97.992c-5.234 0-9.492-4.262-9.492-9.508zm0 0"/></svg>