<svg height="512pt" viewBox="0 0 512 512" width="512pt" xmlns="http://www.w3.org/2000/svg"><path d="M489.5 467h-69V256a7.5 7.5 0 1 0-15 0v211h-45V195.027h45V224a7.5 7.5 0 1 0 15 0v-36.473a7.5 7.5 0 0 0-7.5-7.5h-60a7.5 7.5 0 0 0-7.5 7.5V467h-52V252.5a7.5 7.5 0 0 0-7.5-7.5h-60a7.5 7.5 0 0 0-7.5 7.5V467h-52V312.5a7.5 7.5 0 0 0-7.5-7.5H99a7.5 7.5 0 0 0-7.5 7.5V416a7.5 7.5 0 1 0 15 0v-96h45v147h-45v-18.832a7.5 7.5 0 1 0-15 0V467h-69C10.094 467 0 477.094 0 489.5S10.094 512 22.5 512h467c12.406 0 22.5-10.094 22.5-22.5S501.906 467 489.5 467zm-256-207h45v207h-45zm256 237h-467c-4.137 0-7.5-3.363-7.5-7.5s3.363-7.5 7.5-7.5h467c4.137 0 7.5 3.363 7.5 7.5s-3.363 7.5-7.5 7.5zM236.457 84.14a13.487 13.487 0 0 0-2.937-14.745L197.57 33.46c-5.277-5.273-13.863-5.273-19.144 0v.004l-35.95 35.93a13.494 13.494 0 0 0-2.937 14.746 13.497 13.497 0 0 0 12.512 8.359h71.894c5.5 0 10.41-3.281 12.512-8.36zm-80.871-6.64L188 45.105 220.414 77.5zm17.551 39.273a7.5 7.5 0 1 1-15 0 7.5 7.5 0 0 1 15 0zm44.726 44.727c0 4.14-3.36 7.5-7.5 7.5s-7.5-3.36-7.5-7.5 3.36-7.5 7.5-7.5 7.5 3.36 7.5 7.5zm-52.573 7.848a7.48 7.48 0 0 0 5.304-2.196l45.422-45.422a7.51 7.51 0 0 0 0-10.609 7.51 7.51 0 0 0-10.61 0l-45.422 45.426a7.504 7.504 0 0 0 0 10.605 7.48 7.48 0 0 0 5.305 2.196zm0 0"/><path d="M120.375 208.254H192a7.5 7.5 0 0 0 7.5-7.5 7.5 7.5 0 0 0-7.5-7.5h-71.625c-20.059 0-36.375-16.3-36.375-36.34V51.34C84 31.3 100.316 15 120.375 15h135.25C275.684 15 292 31.3 292 51.34v105.574c0 20.04-16.316 36.34-36.375 36.34h-31.5a7.5 7.5 0 0 0-7.5 7.5 7.5 7.5 0 0 0 7.5 7.5h31.5c28.328 0 51.375-23.031 51.375-51.34V51.34C307 23.03 283.953 0 255.625 0h-135.25C92.047 0 69 23.031 69 51.34v105.574c0 28.309 23.047 51.34 51.375 51.34zm0 0"/></svg>