<svg height="512pt" viewBox="-36 0 512 512" width="512pt" xmlns="http://www.w3.org/2000/svg"><path d="M222.5 489c4.14 0 7.5-3.355 7.5-7.5s-3.36-7.5-7.5-7.5h-40c-4.14 0-7.5 3.355-7.5 7.5s3.36 7.5 7.5 7.5zm0 0"/><path d="M431.5 407.379a7.5 7.5 0 0 0 7.5-7.5v-82.692c0-24.64-20.063-44.687-44.719-44.687H352v-32.836c3.258-3.539 5.438-7.871 7.43-11.84 1.73-3.441 3.367-6.695 5.285-8.61 1.914-1.917 5.168-3.55 8.61-5.28 5.784-2.907 12.34-6.2 16.077-12.664 3.692-6.38 3.285-13.653 2.93-20.07-.219-3.903-.422-7.587.3-10.298.669-2.5 2.63-5.476 4.704-8.625 3.594-5.46 7.664-11.644 7.664-19.273 0-7.633-4.07-13.816-7.664-19.277-2.074-3.149-4.035-6.125-4.703-8.625-.727-2.711-.52-6.395-.301-10.297.355-6.414.762-13.692-2.93-20.07-3.742-6.465-10.293-9.758-16.078-12.665-3.441-1.726-6.695-3.363-8.61-5.277-1.917-1.918-3.554-5.172-5.28-8.613-1.997-3.97-4.172-8.301-7.434-11.84V37.5C352 16.82 335.18 0 314.5 0h-224C69.82 0 53 16.82 53 37.5V64a7.5 7.5 0 1 0 15 0v-3h148.125c-1.227 2.336-2.46 4.41-3.836 5.79-1.918 1.913-5.168 3.55-8.613 5.28-5.785 2.903-12.336 6.2-16.078 12.664-3.692 6.38-3.286 13.653-2.926 20.07.215 3.9.422 7.583-.305 10.294-.668 2.504-2.629 5.476-4.703 8.629-3.59 5.457-7.664 11.64-7.664 19.273 0 7.629 4.07 13.816 7.664 19.273 2.074 3.149 4.035 6.125 4.703 8.625.727 2.711.52 6.399.305 10.297-.36 6.418-.766 13.692 2.926 20.07 3.742 6.465 10.297 9.758 16.078 12.665 3.445 1.73 6.695 3.363 8.613 5.28 1.914 1.915 3.55 5.169 5.281 8.61 2.907 5.785 6.2 12.34 12.664 16.082 6.38 3.688 13.653 3.282 20.07 2.926 3.903-.219 7.587-.422 10.294.3 2.504.673 5.48 2.63 8.629 4.704 5.457 3.594 11.64 7.664 19.273 7.664s13.816-4.07 19.273-7.664c3.153-2.074 6.125-4.031 8.63-4.7 2.706-.73 6.394-.523 10.292-.304 3.29.184 6.801.375 10.305.024V272.5h-32.352c-24.656 0-44.714 20.047-44.714 44.688v38.292c-6.391 1.09-15.63 1.641-21.188-1.812-2.601-1.61-4.105-4-4.734-7.52-.711-3.96-4.149-6.894-8.172-6.968-4.031-.106-7.57 2.726-8.43 6.66-1.883 8.656-3.523 25.187 6.66 38.617 7.422 9.79 19.465 15.805 35.864 17.926v29.43A44.417 44.417 0 0 0 264.27 451H155.625c-4.14 0-7.5 3.355-7.5 7.5s3.36 7.5 7.5 7.5h120.27c7.78 6.547 17.812 10.5 28.753 10.5h32.258C335.891 487.973 326.23 497 314.5 497h-224C78.094 497 68 486.906 68 474.5V466h55.625c4.14 0 7.5-3.355 7.5-7.5s-3.36-7.5-7.5-7.5H68v-36.887c.336.032.672.051 1.012.051a11.59 11.59 0 0 0 8.258-3.422l2.347-2.347 26.524 26.523c4.386 4.383 10.148 6.57 15.906 6.57 5.762 0 11.523-2.191 15.906-6.574 8.774-8.773 8.774-23.055 0-31.828l-26.516-26.508 2.352-2.355a11.57 11.57 0 0 0 2.984-5.11L221.141 315.7a9.748 9.748 0 0 0 5.183-7.148 9.758 9.758 0 0 0-2.73-8.403l-105.73-105.734c-2.196-2.191-5.344-3.215-8.407-2.73s-5.734 2.421-7.144 5.18L68 263.905V95.668a7.5 7.5 0 1 0-15 0v197.547l-4.11 8.027a11.647 11.647 0 0 0-5.105 2.977l-36.52 36.52c-4.511 4.515-4.542 11.84-.1 16.402C2.514 363.62 0 371.367 0 379.51c0 10.298 4.008 19.966 11.277 27.223 7.274 7.274 16.942 11.282 27.223 11.282 5.055 0 9.957-.977 14.5-2.82V474.5c0 20.68 16.82 37.5 37.5 37.5h224c20.008 0 36.402-15.75 37.445-35.5h42.336c24.66 0 44.719-20.047 44.719-44.688 0-4.14-3.36-7.5-7.5-7.5s-7.5 3.36-7.5 7.5c0 16.372-13.332 29.688-29.719 29.688h-89.633c-16.386 0-29.714-13.316-29.714-29.688v-36.257a7.5 7.5 0 0 0-7.059-7.489c-15.453-.914-26.172-5.18-31.852-12.671-1.949-2.57-3.207-5.403-3.976-8.274 14.492 7.98 35.14 2.254 37.504 1.555a7.493 7.493 0 0 0 5.379-7.192v-44.297c0-16.37 13.332-29.687 29.718-29.687h89.633c16.387 0 29.715 13.316 29.715 29.687v82.692a7.505 7.505 0 0 0 7.504 7.5zM68 37.5C68 25.094 78.094 15 90.5 15h224c12.406 0 22.5 10.094 22.5 22.5v1.645c-3.504-.348-7.016-.157-10.305.023-3.898.219-7.586.426-10.293-.3-2.504-.669-5.476-2.63-8.629-4.704-5.457-3.594-11.64-7.664-19.273-7.664s-13.816 4.07-19.273 7.664c-3.153 2.074-6.125 4.035-8.63 4.703-2.71.727-6.394.52-10.292.301-6.418-.352-13.692-.762-20.07 2.93-1.883 1.09-3.493 2.422-4.907 3.902H68zm259.527 194.355c-4.672-.261-9.972-.558-15 .786-4.847 1.297-8.992 4.023-13 6.664-4.058 2.672-7.89 5.195-11.027 5.195s-6.969-2.523-11.023-5.195c-4.008-2.64-8.157-5.368-13.004-6.664-2.934-.786-5.965-1.008-8.907-1.008-2.097 0-4.148.113-6.093.222-4.743.262-9.223.512-11.727-.933-2.586-1.5-4.617-5.547-6.773-9.832-2.188-4.356-4.45-8.86-8.078-12.485-3.625-3.625-8.13-5.89-12.485-8.078-4.285-2.152-8.332-4.187-9.828-6.77-1.45-2.503-1.2-6.984-.934-11.726.258-4.676.555-9.976-.789-15.004-1.296-4.847-4.023-8.992-6.664-13C189.523 149.97 187 146.137 187 143s2.523-6.969 5.195-11.023c2.637-4.008 5.368-8.157 6.664-13.004 1.344-5.024 1.047-10.325.79-15-.266-4.743-.516-9.223.933-11.727 1.496-2.586 5.543-4.621 9.828-6.773 4.356-2.188 8.86-4.45 12.485-8.078 3.628-3.625 5.89-8.13 8.078-12.485 2.156-4.285 4.187-8.332 6.773-9.828 2.504-1.45 6.984-1.195 11.727-.934 4.675.262 9.976.555 15-.789 4.847-1.297 8.996-4.023 13.004-6.664 4.054-2.672 7.886-5.191 11.023-5.191s6.969 2.52 11.027 5.191c4.008 2.64 8.153 5.368 13 6.664 5.028 1.344 10.328 1.051 15.004.79 4.739-.266 9.223-.516 11.723.933 2.586 1.496 4.621 5.547 6.773 9.828 2.188 4.356 4.453 8.86 8.078 12.488 3.625 3.625 8.13 5.887 12.485 8.075 4.285 2.156 8.332 4.187 9.832 6.773 1.445 2.504 1.195 6.98.933 11.727-.261 4.675-.554 9.976.79 15 1.293 4.847 4.023 8.996 6.664 13.004 2.671 4.054 5.195 7.886 5.195 11.023s-2.524 6.969-5.195 11.027c-2.641 4.008-5.371 8.153-6.664 13-1.344 5.028-1.051 10.328-.79 15.004.262 4.742.512 9.223-.933 11.727-1.496 2.586-5.547 4.617-9.832 6.77-4.356 2.19-8.86 4.452-12.485 8.077s-5.886 8.13-8.078 12.485c-2.152 4.285-4.187 8.332-6.773 9.828-2.504 1.45-6.98 1.2-11.727.937zm-200.18 181.836c2.926 2.926 2.926 7.688 0 10.614-2.921 2.922-7.683 2.922-10.605 0l-26.52-26.52 10.606-10.601zm-14.976-203.554l95.5 95.504-96.676 49.476-48.304-48.305zM52.043 317.176l48.793 48.793-31.82 31.816-48.793-48.789zM21.879 396.12C17.44 391.691 15 385.793 15 379.511a23.4 23.4 0 0 1 3.004-11.519L50.016 400a23.385 23.385 0 0 1-11.516 3.012c-6.273 0-12.176-2.446-16.621-6.89zm0 0"/><path d="M401 365.254c0-4.14-3.36-7.5-7.5-7.5h-90a7.5 7.5 0 1 0 0 15h90a7.5 7.5 0 0 0 7.5-7.5zM303.5 387.5c-4.14 0-7.5 3.355-7.5 7.5s3.36 7.5 7.5 7.5h38.996c4.14 0 7.5-3.355 7.5-7.5s-3.36-7.5-7.5-7.5zm90-60h-90c-4.14 0-7.5 3.355-7.5 7.5s3.36 7.5 7.5 7.5h90c4.14 0 7.5-3.355 7.5-7.5s-3.36-7.5-7.5-7.5zm-138-196c12.957 0 23.5-10.543 23.5-23.5s-10.543-23.5-23.5-23.5S232 95.043 232 108s10.543 23.5 23.5 23.5zm0-32c4.688 0 8.5 3.813 8.5 8.5s-3.813 8.5-8.5 8.5-8.5-3.813-8.5-8.5 3.813-8.5 8.5-8.5zM347 175c0-12.957-10.543-23.5-23.5-23.5S300 162.043 300 175s10.543 23.5 23.5 23.5S347 187.957 347 175zm-23.5 8.5c-4.688 0-8.5-3.813-8.5-8.5s3.813-8.5 8.5-8.5 8.5 3.813 8.5 8.5-3.813 8.5-8.5 8.5zm17.305-93.305a7.51 7.51 0 0 0-10.61 0l-92 92a7.51 7.51 0 0 0 0 10.61A7.5 7.5 0 0 0 243.5 195c1.918 0 3.84-.734 5.305-2.195l92-92a7.51 7.51 0 0 0 0-10.61zm0 0"/></svg>