<svg height="512pt" viewBox="-21 0 512 512" width="512pt" xmlns="http://www.w3.org/2000/svg"><path d="M447.02 76.059h-47.274l-.824-4.786 15.77-15.242c4.062-3.922 5.507-9.691 3.773-15.054-1.742-5.387-6.317-9.239-11.942-10.051l-21.851-3.145-9.762-19.605C372.402 3.133 367.332 0 361.684 0c-5.653 0-10.723 3.133-13.23 8.172l-9.763 19.605-21.847 3.149c-5.625.812-10.203 4.66-11.942 10.05-1.734 5.364-.289 11.13 3.77 15.055l15.773 15.242-.828 4.786H286.25v-8.95c0-15.062-12.262-27.32-27.328-27.32-7.285 0-14.14 2.84-19.317 7.996a28.075 28.075 0 0 0-2.128 2.406c-4.829-4.293-11.18-6.91-18.137-6.91-7.29 0-14.149 2.836-19.332 8.004-5.149 5.164-7.988 12.024-7.988 19.313v5.46H171a7.5 7.5 0 0 0-7.5 7.5 7.5 7.5 0 0 0 7.5 7.5h21.02v45h-87.051v-45h33.781a7.5 7.5 0 0 0 7.5-7.5 7.5 7.5 0 0 0-7.5-7.5H72.39c-4.835 0-9.023 2.794-11.062 6.848-10.926-2.195-29.953-.722-56.55 20.63C1.741 105.972 0 109.628 0 113.561s1.742 7.586 4.777 10.024c21.125 16.965 37.477 21.387 48.785 21.387 2.93 0 5.52-.301 7.766-.75 2.043 4.047 6.23 6.84 11.067 6.84l119.625-.004.007 68.82c0 9.34-6.398 21.047-13.691 25.055-7.879 4.316-11.711 13.808-9.121 22.57.64 2.16 1.347 4.766 2.172 7.781 3.324 12.211 8.015 29.395 15.418 44.86-8.332 1.035-14.805 8.148-14.805 16.753v65.2c0 8.05 5.664 14.797 13.215 16.484V448a7.5 7.5 0 1 0 15 0v-29h47.078v40.5c0 4.145 3.355 7.5 7.5 7.5a7.5 7.5 0 0 0 7.5-7.5V419h72.922v78h-135v-17c0-4.145-3.356-7.5-7.5-7.5a7.5 7.5 0 0 0-7.5 7.5v24.5a7.5 7.5 0 0 0 7.5 7.5h150c4.144 0 7.5-3.355 7.5-7.5v-85.508C359.48 418.93 367 411.38 367 402.098v-65.196c0-7.37-4.746-13.632-11.34-15.941a56.718 56.718 0 0 0 3.86-20.602V256a7.5 7.5 0 0 0-7.5-7.5 7.497 7.497 0 0 0-7.5 7.5v44.36a41.665 41.665 0 0 1-4.915 19.64H203.617c-8.71-15.457-14.105-35.238-17.758-48.656-.843-3.098-1.574-5.774-2.257-8.09-.606-2.047.21-4.219 1.949-5.172 12.043-6.613 21.48-23.395 21.48-38.203l-.011-149.277c0-3.293 1.28-6.391 3.597-8.711a12.273 12.273 0 0 1 8.723-3.61c6.793 0 12.32 5.528 12.32 12.32V177.27a7.5 7.5 0 0 0 7.5 7.5c4.145 0 7.5-3.356 7.5-7.5V91.059h74.363l-.296 1.722c-.957 5.531 1.27 11.031 5.812 14.352 4.582 3.344 10.555 3.793 15.586 1.172l19.559-10.196 16.605 8.657v29.296H322.91a27.488 27.488 0 0 0-24.289-14.62c-12.309 0-23.168 8.285-26.402 20.128a27.232 27.232 0 0 0-.969 7.242v36.118c0 4.144 3.355 7.5 7.5 7.5s7.5-3.356 7.5-7.5v-36.118c0-1.125.145-2.222.437-3.273 1.461-5.355 6.368-9.098 12.024-9.098 5.562 0 10.473 3.743 11.937 9.11.286 1.039.43 2.136.43 3.261v40.997a7.5 7.5 0 1 0 15 0v-17.66c0-2.458.961-4.77 2.707-6.516a9.14 9.14 0 0 1 6.516-2.692c5.082 0 9.219 4.13 9.219 9.207v51.602a7.5 7.5 0 0 0 7.5 7.5c4.144 0 7.5-3.355 7.5-7.5v-51.602c0-9.039-4.985-16.93-12.348-21.09h99.848c12.12 0 21.98-9.867 21.98-22v-31c0-12.128-9.86-22-21.98-22zm-372.02 60V91.063h14.969v44.996zm-58.71-22.496C39.86 95.352 54.19 96.285 60 97.972v8.09H47.5a7.5 7.5 0 1 0 0 15H60v8.09c-5.809 1.687-20.14 2.624-43.71-15.59zM352 402.098c0 1.05-.852 1.902-1.902 1.902H188.902a1.902 1.902 0 0 1-1.902-1.902v-65.196c0-1.05.852-1.902 1.902-1.902h161.196c1.05 0 1.902.855 1.902 1.902zM246.602 67.109c0-3.289 1.28-6.386 3.605-8.71a12.261 12.261 0 0 1 8.715-3.61c6.797 0 12.328 5.527 12.328 12.32v8.95h-24.59s-.058-8.633-.058-8.95zm115.082 15.977c-2.356 0-4.704.559-6.848 1.676l-19.234 10.023 3.656-21.137c.828-4.785-.77-9.66-4.27-13.046l-15.43-14.91 21.387-3.083a14.757 14.757 0 0 0 11.114-8.02l9.625-19.331 9.62 19.332a14.757 14.757 0 0 0 11.118 8.02l21.383 3.081-15.43 14.914a14.663 14.663 0 0 0-4.27 13.043l1.965 11.356c.004.027.008.055.016.086l1.68 9.7-19.235-10.028a14.816 14.816 0 0 0-6.847-1.676zm31.605 52.973v-27.024a14.735 14.735 0 0 0 3.531-1.902c4.547-3.32 6.778-8.82 5.82-14.352l-.296-1.722h5.914v45zm60.711-7c0 3.859-3.133 7-6.98 7h-23.758v-45h23.758c3.847 0 6.98 3.14 6.98 7zm0 0"/><path d="M306.043 346.727c-12.406 0-22.5 10.093-22.5 22.5s10.094 22.5 22.5 22.5 22.5-10.094 22.5-22.5-10.094-22.5-22.5-22.5zm0 30c-4.137 0-7.5-3.364-7.5-7.5 0-4.133 3.363-7.5 7.5-7.5s7.5 3.367 7.5 7.5c0 4.136-3.363 7.5-7.5 7.5zm-136.762-169.25c-1.742-5.387-6.316-9.239-11.941-10.051l-21.852-3.145-9.758-19.605c-2.511-5.043-7.582-8.176-13.23-8.176s-10.719 3.133-13.23 8.176l-9.758 19.605-21.852 3.145c-5.625.812-10.2 4.664-11.941 10.05-1.735 5.364-.29 11.133 3.77 15.055l15.773 15.242-3.719 21.508c-.957 5.531 1.27 11.031 5.816 14.352a14.76 14.76 0 0 0 8.72 2.863c2.335 0 4.687-.558 6.862-1.691l19.559-10.196 19.559 10.192c5.03 2.625 11 2.176 15.582-1.168 4.543-3.32 6.773-8.82 5.816-14.356l-3.719-21.504 15.77-15.242c4.062-3.926 5.508-9.691 3.773-15.054zm-30.09 19.628a14.654 14.654 0 0 0-4.265 13.047l3.656 21.137-19.234-10.023c-2.145-1.121-4.496-1.68-6.848-1.68s-4.703.559-6.848 1.68l-19.234 10.023 3.656-21.137a14.666 14.666 0 0 0-4.27-13.05l-15.429-14.91 21.387-3.083a14.757 14.757 0 0 0 11.113-8.02l9.625-19.331 9.621 19.332a14.766 14.766 0 0 0 11.117 8.02l21.383 3.081zm0 0"/></svg>