<svg height="511pt" viewBox="-41 1 511 511.999" width="511pt" xmlns="http://www.w3.org/2000/svg"><path d="M87.332 309.254h28.004c2.156 0 4.207.808 5.77 2.27l10.628 9.953a7.465 7.465 0 0 0 5.125 2.027c2 0 3.996-.797 5.473-2.371 2.832-3.024 2.68-7.774-.344-10.602l-10.629-9.953a23.348 23.348 0 0 0-16.023-6.324H87.332a7.5 7.5 0 0 0-7.5 7.5 7.5 7.5 0 0 0 7.5 7.5zm11.128-88.313l10.626-9.953a7.5 7.5 0 1 0-10.254-10.95l-10.625 9.954a8.407 8.407 0 0 1-5.77 2.274H54.434a7.5 7.5 0 1 0 0 15h28.004c5.98 0 11.671-2.246 16.023-6.325zm216.204 73.313a23.365 23.365 0 0 0-16.027 6.324l-10.625 9.953a7.5 7.5 0 1 0 10.254 10.946l10.625-9.954a8.43 8.43 0 0 1 5.773-2.27h28c4.145 0 7.5-3.355 7.5-7.5 0-4.144-3.355-7.5-7.5-7.5zm68.399-74.488c0-4.145-3.356-7.5-7.5-7.5h-28a8.41 8.41 0 0 1-5.774-2.274l-10.625-9.953a7.495 7.495 0 0 0-10.598.348 7.5 7.5 0 0 0 .344 10.601l10.625 9.953a23.365 23.365 0 0 0 16.028 6.325h28a7.5 7.5 0 0 0 7.5-7.5zm0 0"/><path d="M429.5 259.176c0-15.043-6.79-29.215-18.355-38.73 5.503-8.216 8.492-17.95 8.492-27.864 0-26.336-20.496-48.012-46.492-50.125a55.546 55.546 0 0 1-.008-.844c0-27.742-19.516-47.113-47.457-47.113h-40.723c-12.547 0-23.965 4.867-32.457 12.79V76c0-7.36-4.98-13.57-11.75-15.496V25.75C240.75 11.55 229.2 0 215 0s-25.75 11.55-25.75 25.75v34.754C182.477 62.426 177.5 68.637 177.5 76v31.29c-8.496-7.923-19.914-12.79-32.46-12.79H143c-4.145 0-7.5 3.355-7.5 7.5s3.355 7.5 7.5 7.5h2.04c17.898 0 32.46 14.406 32.46 32.11v29.968h-20.504a8.421 8.421 0 0 1-5.77-2.27l-10.624-9.953a7.5 7.5 0 0 0-10.254 10.945l10.625 9.954a23.348 23.348 0 0 0 16.023 6.324H177.5v54.797h-17.04a69.063 69.063 0 0 0-21.378 3.383l-5.926 1.922a7.495 7.495 0 0 0-4.816 9.445 7.499 7.499 0 0 0 9.445 4.82l5.926-1.922a54.164 54.164 0 0 1 16.75-2.648H177.5v75.176h-5.797a28.394 28.394 0 0 0-19.473 7.68l-9.175 8.593a7.508 7.508 0 0 0-.344 10.606 7.485 7.485 0 0 0 5.477 2.37 7.47 7.47 0 0 0 5.125-2.027l9.175-8.593a13.422 13.422 0 0 1 9.215-3.63h5.797v25.337c0 16.883-13.883 30.613-30.95 30.613h-21.948c-11.473 0-20.809-9.223-20.809-20.559 0-.125.008-.261.016-.414.082-1.91.28-6.386-2.985-9.797-1.406-1.472-3.941-3.226-8.011-3.226-19.672 0-35.672-15.836-35.672-35.297 0-7.406 2.3-14.5 6.652-20.516a11.345 11.345 0 0 0 1.332-10.91l-.125-.308c-1.86-4.578-6.477-7.422-11.469-7.086-.789.054-1.582.082-2.36.082-19.671 0-35.671-15.832-35.671-35.297 0-11.578 5.762-22.434 15.414-29.04 2.926-2.003 4.672-5.292 4.672-8.792 0-2.418-.848-4.797-2.39-6.7-5.126-6.32-7.833-13.949-7.833-22.058 0-19.465 16-35.297 35.672-35.297 10.824 0 10.824-10.984 10.824-15.676 0-23.699 17.485-32.109 32.461-32.109h6.43a7.5 7.5 0 1 0 0-15h-6.43c-27.945 0-47.46 19.371-47.46 47.11 0 .304 0 .585-.005.843-25.992 2.117-46.492 23.793-46.492 50.129 0 9.914 2.989 19.648 8.492 27.863C7.29 229.961.5 244.133.5 259.175c0 26.735 21.125 48.669 47.68 50.208-3.97 7.293-6.04 15.414-6.04 23.824 0 26.398 20.598 48.117 46.68 50.14.75 18.962 16.512 34.153 35.782 34.153h21.949a45.946 45.946 0 0 0 30.949-11.93v30.297c0 5.567 2.844 10.48 7.156 13.383-2.605 10.652-1.992 30.184 20.317 57.973C207.41 510.258 211.066 512 215 512s7.586-1.742 10.023-4.777c22.313-27.786 22.926-47.313 20.32-57.97 4.313-2.898 7.157-7.812 7.157-13.378V405.57c8.172 7.407 19.035 11.93 30.945 11.93h21.95c19.27 0 35.03-15.191 35.78-34.148 9.84-.75 19.098-4.286 26.977-10.332a7.499 7.499 0 0 0-9.129-11.898c-6.296 4.827-13.847 7.382-21.835 7.382-4.07 0-6.606 1.754-8.016 3.226-3.262 3.41-3.067 7.887-2.98 9.797.003.153.011.29.015.41 0 11.34-9.336 20.563-20.812 20.563h-21.95c-17.062 0-30.945-13.734-30.945-30.613V346.55h5.793a13.44 13.44 0 0 1 9.219 3.629l9.172 8.593a7.481 7.481 0 0 0 5.128 2.028 7.5 7.5 0 0 0 5.129-12.977l-9.175-8.594a28.384 28.384 0 0 0-19.473-7.683H252.5v-75.172h17.035c5.703 0 11.336.89 16.754 2.648l5.922 1.922a7.5 7.5 0 0 0 9.45-4.82 7.502 7.502 0 0 0-4.821-9.45l-5.922-1.921a69.185 69.185 0 0 0-21.383-3.383H252.5V224a7.5 7.5 0 0 0-7.5-7.5 7.497 7.497 0 0 0-7.5 7.5v30.5h-45V76c0-.621.523-1.121 1.168-1.121h42.66c.645 0 1.172.5 1.172 1.121v115.918a7.5 7.5 0 1 0 15 0v-5.34H273c5.984 0 11.676-2.242 16.027-6.32l10.625-9.953c3.024-2.832 3.18-7.578.348-10.602s-7.578-3.18-10.602-.348l-10.625 9.954a8.405 8.405 0 0 1-5.773 2.27h-20.5v-29.97c0-17.703 14.562-32.109 32.457-32.109h40.723c14.972 0 32.457 8.41 32.457 32.113 0 4.688 0 15.672 10.828 15.672 19.672 0 35.672 15.836 35.672 35.297 0 8.11-2.707 15.738-7.836 22.063a10.674 10.674 0 0 0-2.387 6.695c0 3.5 1.746 6.789 4.672 8.793 9.652 6.605 15.414 17.46 15.414 29.043 0 19.46-16.004 35.297-35.672 35.297-.777 0-1.57-.028-2.363-.082-5.008-.344-9.606 2.504-11.45 7.039l-.136.336c-1.469 3.66-.973 7.746 1.332 10.933 4.348 6.012 6.648 13.102 6.648 20.508 0 1.887-.148 3.773-.445 5.617a7.497 7.497 0 0 0 6.211 8.598c.402.066.805.098 1.2.098a7.503 7.503 0 0 0 7.398-6.31c.422-2.628.636-5.32.636-8.003 0-8.41-2.07-16.535-6.039-23.82 26.551-1.543 47.68-23.477 47.68-50.211zM215 15c5.926 0 10.75 4.82 10.75 10.75v34.129h-21.5V25.75c0-5.93 4.82-10.75 10.75-10.75zm22.5 420.879c0 .617-.523 1.121-1.168 1.121H193.68c-.649 0-1.18-.508-1.18-1.133V399.5h45zM215 495.71c-18.21-23.566-17.277-37.899-15.59-43.711h8.09v12.5c0 4.145 3.355 7.5 7.5 7.5a7.5 7.5 0 0 0 7.5-7.5V452h8.09c1.687 5.809 2.625 20.14-15.59 43.71zm22.5-226.21v115h-45v-115zm0 0"/></svg>