<svg height="512pt" viewBox="0 0 512 512.001" width="512pt" xmlns="http://www.w3.org/2000/svg"><path d="M192.125 165.484h26.48c2.032 14.926 7.602 25.93 16.61 32.758 7.742 5.867 16.57 7.531 24.09 7.531 4.648 0 8.797-.636 11.875-1.304a8.405 8.405 0 0 0 6.597-8.348 8.407 8.407 0 0 0-6.902-8.098c-3.05-.543-5.113-1.835-6.492-4.058-2.946-4.746-2.547-12.785-1.645-18.48h34.614c22.96 0 41.636-18.68 41.636-41.637V95.832a7.5 7.5 0 1 0-15 0v28.016c0 14.687-11.949 26.636-26.636 26.636h-40.66a7.501 7.501 0 0 0-7.196 5.38c-.625 2.124-5.629 20.152.805 33.566-2.094-.7-4.137-1.711-6.02-3.14-6.726-5.099-10.554-14.77-11.383-28.75a7.498 7.498 0 0 0-7.484-7.056h-33.289c-14.688 0-26.637-11.949-26.637-26.636V41.637c0-14.688 11.95-26.637 26.637-26.637h105.227c14.691 0 26.64 11.95 26.64 26.637v22.195c0 4.145 3.356 7.5 7.5 7.5a7.5 7.5 0 0 0 7.5-7.5V41.637C338.988 18.68 320.312 0 297.352 0H192.125c-22.957 0-41.637 18.68-41.637 41.637v82.21c0 22.962 18.68 41.637 41.637 41.637zm136.227 181.032h-26.477c-2.031-14.926-7.605-25.93-16.613-32.758-12.528-9.5-27.907-7.98-35.961-6.227-3.899.848-6.676 4.356-6.602 8.344s2.977 7.395 6.906 8.098c3.047.547 5.11 1.84 6.489 4.062 2.945 4.746 2.547 12.785 1.648 18.48h-34.617c-22.957 0-41.637 18.68-41.637 41.637v82.211c0 22.961 18.68 41.637 41.637 41.637h105.227c22.96 0 41.636-18.676 41.636-41.637v-82.21c0-22.962-18.676-41.637-41.636-41.637zm26.636 123.847c0 14.688-11.949 26.637-26.636 26.637H223.125c-14.687 0-26.637-11.95-26.637-26.637v-82.21c0-14.688 11.95-26.637 26.637-26.637h40.664a7.493 7.493 0 0 0 7.191-5.38c.63-2.124 5.633-20.152-.8-33.566 2.093.7 4.136 1.711 6.02 3.14 6.722 5.095 10.55 14.77 11.378 28.75a7.502 7.502 0 0 0 7.488 7.056h33.286c14.687 0 26.636 11.949 26.636 26.636zM185 232.71c0-11.855-9.645-21.5-21.5-21.5H132v-14.5c0-11.855-9.645-21.5-21.5-21.5h-36c-11.855 0-21.5 9.645-21.5 21.5v14.5H21.5c-11.855 0-21.5 9.645-21.5 21.5v108c0 11.853 9.645 21.5 21.5 21.5H32a7.5 7.5 0 0 0 7.5-7.5c0-4.144-3.355-7.5-7.5-7.5H21.5a6.51 6.51 0 0 1-6.5-6.5V279.2a21.41 21.41 0 0 0 6.5 1.01H36v7.423a7.5 7.5 0 0 0 7.5 7.5c4.145 0 7.5-3.356 7.5-7.5v-7.422h83v7.422a7.5 7.5 0 0 0 7.5 7.5c4.145 0 7.5-3.356 7.5-7.5v-7.422h14.5c2.266 0 4.45-.36 6.5-1.012v61.512c0 3.582-2.914 6.5-6.5 6.5H64a7.5 7.5 0 1 0 0 15h99.5c11.855 0 21.5-9.649 21.5-21.5zm-117-36c0-3.585 2.918-6.5 6.5-6.5h36c3.586 0 6.5 2.915 6.5 6.5v14.5H68zm95.5 68.5H149v-3.577c0-4.145-3.355-7.5-7.5-7.5a7.5 7.5 0 0 0-7.5 7.5v3.578H51v-3.578c0-4.145-3.355-7.5-7.5-7.5a7.5 7.5 0 0 0-7.5 7.5v3.578H21.5a6.51 6.51 0 0 1-6.5-6.5v-26c0-3.586 2.918-6.5 6.5-6.5h142c3.586 0 6.5 2.914 6.5 6.5v26c0 3.582-2.914 6.5-6.5 6.5zm0 0"/><path d="M100 247.133a7.5 7.5 0 1 1-15 0 7.5 7.5 0 1 1 15 0zM289.238 46.23h-88a7.5 7.5 0 0 0-7.5 7.5c0 4.145 3.356 7.5 7.5 7.5h88c4.145 0 7.5-3.355 7.5-7.5a7.5 7.5 0 0 0-7.5-7.5zm7.5 37.5a7.5 7.5 0 0 0-7.5-7.5h-88a7.5 7.5 0 0 0-7.5 7.5c0 4.145 3.356 7.5 7.5 7.5h88c4.145 0 7.5-3.355 7.5-7.5zm-95.5 20.524a7.497 7.497 0 0 0-7.5 7.5c0 4.144 3.356 7.5 7.5 7.5h44c4.145 0 7.5-3.356 7.5-7.5 0-4.145-3.355-7.5-7.5-7.5zm59.039 301.812a7.5 7.5 0 1 1-15 0 7.5 7.5 0 1 1 15 0zM305 450.793a7.5 7.5 0 1 1-15 0 7.5 7.5 0 0 1 7.5-7.5c4.145 0 7.5 3.355 7.5 7.5zm-12.453-50.379l-45.422 45.422a7.497 7.497 0 0 0 0 10.605 7.475 7.475 0 0 0 5.3 2.2c1.923 0 3.84-.735 5.305-2.2l45.422-45.421a7.497 7.497 0 0 0 0-10.606 7.497 7.497 0 0 0-10.605 0zm211.965-135.851a7.498 7.498 0 0 0-9.977-3.606 7.499 7.499 0 0 0-3.601 9.977c4.023 8.586 6.066 17.785 6.066 27.351v.106c0 9.988-8.125 18.109-18.11 18.109h-92.78c-9.985 0-18.11-8.121-18.11-18.11v-.105c0-35.562 28.938-64.496 64.5-64.496 14.89 0 29.414 5.191 40.898 14.617a7.497 7.497 0 0 0 10.555-1.039 7.497 7.497 0 0 0-1.039-10.555 79.208 79.208 0 0 0-20.309-12.093c14.774-9.793 24.54-26.563 24.54-45.574 0-30.13-24.512-54.645-54.641-54.645-30.133 0-54.645 24.516-54.645 54.645 0 19.015 9.77 35.785 24.547 45.578C373.45 236.609 353 265.098 353 298.285v.106c0 18.257 14.852 33.109 33.11 33.109h92.78c18.258 0 33.11-14.855 33.11-33.11v-.105c0-11.785-2.52-23.133-7.488-33.723zm-111.653-85.418c0-21.86 17.782-39.645 39.641-39.645s39.645 17.781 39.645 39.645c0 21.859-17.786 39.64-39.645 39.64s-39.64-17.781-39.64-39.64zm0 0"/><path d="M460.43 189.723a7.503 7.503 0 0 0-10.188-2.953c-.078.046-8.308 4.43-17.742 4.43-9.355 0-17.54-4.317-17.762-4.438a7.504 7.504 0 0 0-10.168 2.965 7.502 7.502 0 0 0 2.953 10.187c.47.258 11.575 6.285 24.977 6.285s24.512-6.027 24.977-6.285a7.506 7.506 0 0 0 2.953-10.191zm-33.774-23.461a6.43 6.43 0 0 1-6.43 6.43 6.43 6.43 0 0 1 .001-12.86 6.43 6.43 0 0 1 6.43 6.43zm24.547 0a6.43 6.43 0 1 1-12.86 0 6.43 6.43 0 0 1 12.86 0zm0 0"/></svg>