<svg height="512pt" viewBox="0 0 512 512" width="512pt" xmlns="http://www.w3.org/2000/svg"><path d="M504.5 122h-21v-18.5A7.5 7.5 0 0 0 476 96h-91.059c-4.14 0-7.5 3.36-7.5 7.5s3.36 7.5 7.5 7.5H468.5v33.023c-11.473-13.753-28.73-22.523-48-22.523-34.465 0-62.5 28.04-62.5 62.5 0 22.61 12.07 42.453 30.102 53.43C353.594 250.54 329 283.95 329 323v.121c0 20.61 16.77 37.379 37.379 37.379H468.5V420h-205v-36.332c0-4.145-3.355-7.5-7.5-7.5s-7.5 3.355-7.5 7.5V420h-205v-59.5h102.121c20.61 0 37.379-16.77 37.379-37.379V323c0-39.05-24.594-72.46-59.102-85.57C141.93 226.453 154 206.61 154 184c0-34.46-28.035-62.5-62.5-62.5-19.27 0-36.527 8.77-48 22.523V111h173.137a62.74 62.74 0 0 0 6.965 4.93c-34.508 13.11-59.102 46.52-59.102 85.57v.121c0 20.61 16.77 37.379 37.379 37.379H248.5v112.668c0 4.14 3.355 7.5 7.5 7.5s7.5-3.36 7.5-7.5V239h46.621c20.61 0 37.379-16.77 37.379-37.379v-.121c0-39.05-24.594-72.46-59.102-85.57a62.74 62.74 0 0 0 6.965-4.93h57.246a7.5 7.5 0 1 0 0-15h-43.886c6.18-9.691 9.777-21.18 9.777-33.5C318.5 28.04 290.465 0 256 0s-62.5 28.04-62.5 62.5c0 12.32 3.598 23.809 9.777 33.5H36a7.5 7.5 0 0 0-7.5 7.5V122h-21a7.5 7.5 0 0 0-7.5 7.5v360a7.5 7.5 0 0 0 7.5 7.5h227.29c3.097 8.73 11.433 15 21.21 15s18.113-6.27 21.21-15H504.5a7.5 7.5 0 0 0 7.5-7.5v-360a7.5 7.5 0 0 0-7.5-7.5zm-172 79.5v.121c0 12.34-10.04 22.379-22.379 22.379H201.88c-12.34 0-22.379-10.04-22.379-22.379v-.121c0-42.184 34.316-76.5 76.5-76.5s76.5 34.316 76.5 76.5zM256 15c26.191 0 47.5 21.309 47.5 47.5S282.191 110 256 110c-11.219 0-21.535-3.918-29.672-10.445a7.51 7.51 0 0 0-3.262-2.875C214.098 88.03 208.5 75.91 208.5 62.5c0-26.191 21.309-47.5 47.5-47.5zm212.5 230.133a91.351 91.351 0 0 0-15.602-7.703 63.075 63.075 0 0 0 15.602-13.453zM373 184c0-26.191 21.309-47.5 47.5-47.5S468 157.809 468 184s-21.309 47.5-47.5 47.5S373 210.191 373 184zm-29 139.121V323c0-42.184 34.316-76.5 76.5-76.5S497 280.816 497 323v.121c0 12.34-10.04 22.379-22.379 22.379H366.38c-12.34 0-22.379-10.04-22.379-22.379zM263.5 450v-15h205v15zM168 323v.121c0 12.34-10.04 22.379-22.379 22.379H37.38c-.164 0-.324-.008-.488-.012a7.467 7.467 0 0 0-.891-.058c-.063 0-.121.007-.184.011C24.203 344.633 15 334.937 15 323.121V323c0-21.945 9.305-41.75 24.156-55.715a7.514 7.514 0 0 0 3.23-2.879C55.688 253.242 72.817 246.5 91.5 246.5c42.184 0 76.5 34.316 76.5 76.5zM91.5 136.5c26.191 0 47.5 21.309 47.5 47.5s-21.309 47.5-47.5 47.5S44 210.191 44 184s21.309-47.5 47.5-47.5zM59.102 237.43a91.351 91.351 0 0 0-15.602 7.703v-21.156a63.075 63.075 0 0 0 15.602 13.453zM15 137h13.5v119.703A92.277 92.277 0 0 0 15 272.86zm0 216.043a37.232 37.232 0 0 0 13.5 6.383V457.5A7.5 7.5 0 0 0 36 465h59.332a7.5 7.5 0 1 0 0-15H43.5v-15h205v15H128.332c-4.14 0-7.5 3.36-7.5 7.5s3.36 7.5 7.5 7.5H233.5v17H15zM263.5 489.5c0 4.137-3.363 7.5-7.5 7.5-4.133 0-7.496-3.36-7.5-7.488v-.012c0-.008-.004-.012-.004-.02V465h15v24.5zm15-7.5v-17H476c4.14 0 7.5-3.36 7.5-7.5v-98.074a37.232 37.232 0 0 0 13.5-6.383V482zm205-225.297V137H497v135.86a92.277 92.277 0 0 0-13.5-16.157zm0 0"/><path d="M227.465 85.637c.531.293 13.219 7.18 28.535 7.18s28.004-6.887 28.535-7.18a7.487 7.487 0 0 0 2.953-10.16c-1.98-3.63-6.535-4.961-10.164-2.997-.101.055-9.969 5.332-21.324 5.332-11.266 0-21.066-5.19-21.32-5.328-3.621-1.984-8.172-.66-10.168 2.961a7.505 7.505 0 0 0 2.953 10.192zm21.719-38.164a7.5 7.5 0 1 1-15 0c0-4.145 3.355-7.5 7.5-7.5a7.5 7.5 0 0 1 7.5 7.5zm28.632 0a7.5 7.5 0 1 1-15 0 7.5 7.5 0 0 1 7.5-7.5c4.145 0 7.5 3.355 7.5 7.5zM441.824 193.98c-.101.055-9.969 5.333-21.324 5.333-11.266 0-21.066-5.192-21.32-5.329-3.621-1.984-8.172-.66-10.168 2.961-1.996 3.63-.676 8.192 2.953 10.188.531.293 13.219 7.18 28.535 7.18s28.004-6.883 28.535-7.18a7.484 7.484 0 0 0 2.953-10.16c-1.98-3.625-6.535-4.957-10.164-2.993zm-28.14-25.007a7.5 7.5 0 1 1-15 0c0-4.145 3.355-7.5 7.5-7.5a7.5 7.5 0 0 1 7.5 7.5zm28.632 0a7.5 7.5 0 1 1-15 0 7.5 7.5 0 0 1 7.5-7.5c4.145 0 7.5 3.355 7.5 7.5zM62.965 207.137c.531.293 13.219 7.18 28.535 7.18s28.004-6.887 28.535-7.18a7.487 7.487 0 0 0 2.953-10.16c-1.98-3.63-6.535-4.961-10.164-2.997-.101.055-9.969 5.333-21.324 5.333-11.266 0-21.066-5.192-21.32-5.329-3.621-1.984-8.172-.66-10.168 2.961a7.505 7.505 0 0 0 2.953 10.192zm21.719-38.164a7.5 7.5 0 1 1-15 0c0-4.145 3.355-7.5 7.5-7.5a7.5 7.5 0 0 1 7.5 7.5zm28.632 0a7.5 7.5 0 1 1-15 0 7.5 7.5 0 0 1 7.5-7.5c4.145 0 7.5 3.355 7.5 7.5zm0 0"/></svg>