<svg height="512pt" viewBox="0 0 512 512.001" width="512pt" xmlns="http://www.w3.org/2000/svg"><path d="M504.5 332.156H480a7.5 7.5 0 1 0 0 15h17V485.41H380.773v-48.703H442.5a7.5 7.5 0 1 0 0-15h-61.727v-74.55h67.059c4.145 0 7.5-3.356 7.5-7.5a7.5 7.5 0 0 0-7.5-7.5h-67.148c-.875-8.5-8.082-15.157-16.813-15.157h-65.195c-9.32 0-16.903 7.582-16.903 16.902v.957a12.698 12.698 0 0 1-1.14-2.351c-4.43-12.324-13.817-35.887-26.895-55.238-5.918-8.743-9.043-19.16-9.043-30.125v-19.06c0-8.823-7.18-16-16-16h-9.25c-15.418 0-33.422 11.872-33.422 45.33v46.1c0 9.56-15.183 18.91-26.52 18.91l-66.214.122c-15.066 0-27.324 12.258-27.324 27.32A27.213 27.213 0 0 0 72.8 367.93c-6.438 5.004-10.586 12.816-10.586 21.582 0 9.34 4.71 17.597 11.879 22.527a27.196 27.196 0 0 0-6.04 17.117c0 15.067 12.255 27.324 27.321 27.324h1.863a24.31 24.31 0 0 0-1.804 9.22c0 16.179 12.773 22.831 19.527 24.09.453.081.91.124 1.371.124h43.418a7.5 7.5 0 1 0 0-15h-42.586c-1.762-.48-6.73-2.437-6.73-9.219 0-3.52 1.972-6.687 5.14-8.254.54-.265 1.02-.601 1.477-.96h10.93a7.5 7.5 0 1 0 0-15H95.374c-6.793 0-12.32-5.528-12.32-12.325 0-6.793 5.527-12.32 12.32-12.32h29.594a7.5 7.5 0 0 0 7.5-7.5c0-4.145-3.356-7.5-7.5-7.5h-35.43c-6.797 0-12.324-5.527-12.324-12.324 0-6.793 5.527-12.32 12.324-12.32h28.457a7.5 7.5 0 1 0 0-15H93.29c-6.797 0-12.324-5.528-12.324-12.325 0-6.793 5.527-12.32 12.324-12.32l66.215-.121c18.805 0 41.52-15.13 41.52-33.91v-46.102c0-22.363 9.515-30.328 18.421-30.328h9.25a1 1 0 0 1 1 1v19.059c0 13.972 4.016 27.296 11.614 38.53 12.62 18.665 21.832 42.52 25.21 51.91 1.805 5.017 5 9.364 9.243 12.575 3.644 2.758 5.855 7.082 6.011 11.64v103.372c-.312 5.422-4.808 9.742-10.308 9.742h-79.633c-4.14 0-7.5 3.36-7.5 7.5 0 4.14 3.36 7.5 7.5 7.5h79.633c3.672 0 7.156-.793 10.308-2.2v7.384c0 9.32 7.582 16.902 16.903 16.902h65.195c7.465 0 13.8-4.867 16.035-11.59H504.5a7.5 7.5 0 0 0 7.5-7.5V339.656a7.5 7.5 0 0 0-7.5-7.5zM365.773 495.098c0 1.05-.855 1.902-1.902 1.902h-65.195a1.902 1.902 0 0 1-1.903-1.902V333.902c0-1.05.852-1.902 1.903-1.902h65.195c1.047 0 1.902.852 1.902 1.902zm0 0"/><path d="M331 355.457c-12.406 0-22.5 10.094-22.5 22.5s10.094 22.5 22.5 22.5 22.5-10.094 22.5-22.5-10.094-22.5-22.5-22.5zm0 30c-4.137 0-7.5-3.363-7.5-7.5s3.363-7.5 7.5-7.5 7.5 3.363 7.5 7.5-3.363 7.5-7.5 7.5zM108.04 250.746c9.5 7.203 20.39 9.246 29.687 9.246 5.789 0 10.96-.793 14.796-1.625a8.652 8.652 0 0 0 6.805-8.594c-.074-4.109-3.066-7.617-7.117-8.343-4.563-.817-7.672-2.785-9.79-6.203-4.472-7.211-3.546-19.235-2.108-26.973h46.312c28.328 0 51.375-23.031 51.375-51.34V51.34C238 23.03 214.953 0 186.625 0H96.168a7.5 7.5 0 1 0 0 15h90.457C206.684 15 223 31.3 223 51.34v105.574c0 20.04-16.316 36.34-36.375 36.34h-52.266a7.498 7.498 0 0 0-7.191 5.375c-.828 2.8-7.785 27.844 2.477 44.46.277.45.566.891.867 1.321-4.602-.793-9.27-2.48-13.41-5.617-9.149-6.941-14.352-19.89-15.454-38.484a7.502 7.502 0 0 0-7.488-7.055H51.375c-20.055 0-36.375-16.3-36.375-36.34V51.34C15 31.3 31.32 15 51.375 15H64a7.5 7.5 0 1 0 0-15H51.375C23.047 0 0 23.031 0 51.34v105.574c0 28.309 23.047 51.34 51.375 51.34h35.918c2.32 19.523 9.281 33.797 20.746 42.492zm0 0"/><path d="M48.496 88.398c0 15.75 8.184 46.5 62.984 75.489a13.932 13.932 0 0 0 13.032 0c54.804-28.989 62.984-59.739 62.984-75.489 0-24.054-16.91-42.898-38.5-42.898-14.863 0-25.297 7.008-31 12.223-5.7-5.215-16.133-12.223-31-12.223-21.59 0-38.5 18.844-38.5 42.898zm38.5-27.898c10.578 0 17.863 5.156 22.11 9.477 2.316 2.363 5.558 3.714 8.89 3.714 3.332 0 6.574-1.351 8.89-3.71 4.247-4.325 11.532-9.481 22.11-9.481 15.266 0 23.5 14.375 23.5 27.898 0 20.961-19.855 43.528-54.5 61.965-34.644-18.437-54.5-41.004-54.5-61.965 0-13.523 8.238-27.898 23.5-27.898zm0 0"/></svg>