<svg height="512pt" viewBox="0 0 512 512.001" width="512pt" xmlns="http://www.w3.org/2000/svg"><path d="M488 449.91V62.09c13.758-3.371 24-15.805 24-30.59C512 14.133 497.871 0 480.5 0c-14.785 0-27.215 10.242-30.59 24H62.09C58.715 10.242 46.285 0 31.5 0 14.133 0 0 14.133 0 31.5c0 14.785 10.242 27.215 24 30.59v9.746c0 4.14 3.36 7.5 7.5 7.5s7.5-3.36 7.5-7.5V62.09C50.355 59.305 59.305 50.355 62.09 39h387.82c2.785 11.355 11.738 20.305 23.09 23.09v387.82c-11.352 2.785-20.305 11.738-23.09 23.09H128.332a7.5 7.5 0 1 0 0 15H449.91c3.375 13.762 15.805 24 30.59 24 17.371 0 31.5-14.129 31.5-31.5 0-14.785-10.242-27.215-24-30.59zM31.5 48C22.402 48 15 40.598 15 31.5S22.402 15 31.5 15 48 22.402 48 31.5 40.598 48 31.5 48zM464 31.5c0-9.098 7.402-16.5 16.5-16.5S497 22.402 497 31.5 489.598 48 480.5 48 464 40.598 464 31.5zM480.5 497c-9.098 0-16.5-7.402-16.5-16.5s7.402-16.5 16.5-16.5 16.5 7.402 16.5 16.5-7.402 16.5-16.5 16.5zm0 0"/><path d="M96 473H62.09c-2.785-11.355-11.735-20.305-23.09-23.09V103.832c0-4.14-3.36-7.5-7.5-7.5s-7.5 3.36-7.5 7.5V449.91c-13.758 3.375-24 15.805-24 30.59C0 497.867 14.133 512 31.5 512c14.785 0 27.215-10.242 30.59-24H96c4.14 0 7.5-3.36 7.5-7.5s-3.36-7.5-7.5-7.5zm-64.5 24c-9.098 0-16.5-7.402-16.5-16.5S22.402 464 31.5 464 48 471.402 48 480.5 40.598 497 31.5 497zm252.637-370.93l63.488 202.051c1.242 3.953 5.45 6.145 9.406 4.906a7.503 7.503 0 0 0 4.906-9.402L298.445 121.57c-2.832-9.011-11.097-15.066-20.562-15.066H234.12c-9.465 0-17.73 6.055-20.566 15.07l-84.52 268.98a11.533 11.533 0 0 0 1.703 10.247 11.558 11.558 0 0 0 9.285 4.699h57.008c5.043 0 9.453-3.23 10.985-8.062l17.32-55.125h61.332l17.324 55.144a11.475 11.475 0 0 0 10.98 8.043h57.008c3.653 0 7.125-1.758 9.286-4.7a11.552 11.552 0 0 0 1.703-10.25l-11.442-36.405a7.498 7.498 0 0 0-9.402-4.907 7.497 7.497 0 0 0-4.906 9.403l10.008 31.859H317.53l-18.203-57.938a7.501 7.501 0 0 0-7.156-5.253h-72.34a7.495 7.495 0 0 0-7.152 5.254L194.473 390.5h-49.696l83.09-264.43a6.522 6.522 0 0 1 6.254-4.57h43.762a6.526 6.526 0 0 1 6.254 4.57zm0 0"/><path d="M256 216.91a9.47 9.47 0 0 0-9.074 6.653l-15.399 49a7.502 7.502 0 0 0 1.106 6.687 7.503 7.503 0 0 0 6.047 3.063h34.64a7.503 7.503 0 0 0 6.047-3.063 7.502 7.502 0 0 0 1.106-6.688l-15.403-49.007a9.465 9.465 0 0 0-9.07-6.645zm-7.102 50.403L256 244.719l7.102 22.594zm0 0"/></svg>