<svg height="512pt" viewBox="-66 0 512 512" width="512pt" xmlns="http://www.w3.org/2000/svg"><path d="M31 47c0 12.406 10.094 22.5 22.5 22.5S76 59.406 76 47 65.906 24.5 53.5 24.5 31 34.594 31 47zm30 0c0 4.137-3.363 7.5-7.5 7.5S46 51.137 46 47s3.363-7.5 7.5-7.5S61 42.863 61 47zm30 0c0 12.406 10.094 22.5 22.5 22.5S136 59.406 136 47s-10.094-22.5-22.5-22.5S91 34.594 91 47zm30 0c0 4.137-3.363 7.5-7.5 7.5S106 51.137 106 47s3.363-7.5 7.5-7.5 7.5 3.363 7.5 7.5zm30 0c0 12.406 10.094 22.5 22.5 22.5S196 59.406 196 47s-10.094-22.5-22.5-22.5S151 34.594 151 47zm30 0c0 4.137-3.363 7.5-7.5 7.5S166 51.137 166 47s3.363-7.5 7.5-7.5 7.5 3.363 7.5 7.5zm0 0"/><path d="M371.5 0H7.5A7.5 7.5 0 0 0 0 7.5v440.168c0 4.14 3.36 7.5 7.5 7.5s7.5-3.36 7.5-7.5V95h302.25c4.14 0 7.5-3.355 7.5-7.5s-3.36-7.5-7.5-7.5H15V15h349v65h-14.5c-4.14 0-7.5 3.355-7.5 7.5s3.36 7.5 7.5 7.5H364v402H15v-16.5a7.5 7.5 0 1 0-15 0v24a7.5 7.5 0 0 0 7.5 7.5h364a7.5 7.5 0 0 0 7.5-7.5V7.5a7.5 7.5 0 0 0-7.5-7.5zm0 0"/><path d="M189.5 326c49.352 0 89.5-40.148 89.5-89.5S238.852 147 189.5 147 100 187.148 100 236.5s40.148 89.5 89.5 89.5zm0-164c41.078 0 74.5 33.422 74.5 74.5S230.578 311 189.5 311 115 277.578 115 236.5s33.422-74.5 74.5-74.5zm0 0"/><path d="M65.61 215.004C61.573 221.133 57 228.078 57 236.5s4.574 15.367 8.61 21.496c2.43 3.691 4.722 7.176 5.535 10.219.875 3.277.636 7.586.382 12.148-.402 7.207-.855 15.375 3.211 22.403 4.125 7.129 11.485 10.828 17.98 14.093 4.028 2.024 7.837 3.938 10.16 6.262 2.325 2.32 4.235 6.129 6.263 10.16 3.261 6.492 6.96 13.856 14.09 17.98a23.159 23.159 0 0 0 3.769 1.731V480.5a7.502 7.502 0 0 0 11.387 6.414L189.5 455.93l51.11 30.984A7.517 7.517 0 0 0 244.5 488a7.502 7.502 0 0 0 7.5-7.5v-88.375a7.5 7.5 0 1 0-15 0v75.059l-15-9.094V354.684c3.168-.657 7.152-.446 11.363-.211 1.192.066 2.407.132 3.637.18v5.097a7.5 7.5 0 1 0 15 0v-6.758a22.981 22.981 0 0 0 3.77-1.73c7.128-4.125 10.828-11.485 14.09-17.98 2.023-4.028 3.937-7.837 6.261-10.16 2.32-2.321 6.129-4.235 10.16-6.263 6.496-3.261 13.856-6.96 17.98-14.09 4.067-7.03 3.614-15.199 3.212-22.406-.254-4.562-.493-8.87.382-12.148.813-3.043 3.106-6.528 5.536-10.215 4.035-6.133 8.609-13.078 8.609-21.5s-4.574-15.367-8.61-21.496c-2.43-3.692-4.722-7.176-5.535-10.215-.875-3.277-.636-7.59-.382-12.152.402-7.203.855-15.371-3.211-22.403-4.125-7.129-11.485-10.828-17.98-14.09-4.028-2.027-7.837-3.94-10.16-6.265-2.325-2.32-4.235-6.129-6.263-10.16-3.261-6.492-6.96-13.856-14.09-17.98-7.03-4.067-15.199-3.61-22.406-3.212-4.562.254-8.87.496-12.148-.382-3.043-.813-6.528-3.106-10.219-5.536-6.129-4.035-13.074-8.609-21.496-8.609s-15.367 4.574-21.496 8.61c-3.692 2.43-7.176 4.722-10.219 5.535-3.277.875-7.59.636-12.148.382-7.207-.402-15.375-.855-22.407 3.211-7.128 4.125-10.828 11.485-14.09 17.98-2.023 4.028-3.937 7.837-6.261 10.16-2.32 2.321-6.129 4.235-10.16 6.263-6.496 3.261-13.856 6.96-17.98 14.09-4.067 7.03-3.614 15.199-3.212 22.406.254 4.562.493 8.87-.382 12.148-.813 3.043-3.106 6.527-5.536 10.219zM142 354.652c1.23-.047 2.445-.113 3.637-.18 4.21-.234 8.195-.445 11.363.212V458.09l-15 9.094zm43.613 86.094L172 448.996V362.97c5.133 3.183 10.855 6.031 17.5 6.031s12.367-2.848 17.5-6.031v86.027l-13.613-8.25a7.51 7.51 0 0 0-7.774 0zM78.137 223.25c2.98-4.523 6.058-9.2 7.5-14.59 1.496-5.594 1.175-11.32.867-16.855-.313-5.61-.606-10.907 1.219-14.063 1.882-3.25 6.668-5.652 11.73-8.199 4.918-2.469 10-5.023 14.031-9.059 4.036-4.03 6.59-9.117 9.059-14.03 2.547-5.067 4.95-9.852 8.2-11.731 3.155-1.825 8.452-1.528 14.058-1.22 5.539.31 11.265.63 16.86-.866 5.386-1.442 10.066-4.52 14.589-7.5 4.797-3.157 9.324-6.137 13.25-6.137s8.453 2.98 13.25 6.137c4.523 2.98 9.2 6.058 14.59 7.5 5.594 1.496 11.32 1.175 16.855.867 5.61-.309 10.907-.606 14.059 1.219 3.25 1.879 5.656 6.664 8.2 11.73 2.472 4.914 5.026 10 9.058 14.031 4.035 4.036 9.12 6.59 14.035 9.063 5.066 2.543 9.851 4.945 11.73 8.195 1.825 3.156 1.532 8.453 1.22 14.059-.31 5.539-.63 11.265.866 16.86 1.442 5.39 4.52 10.066 7.5 14.589 3.157 4.797 6.137 9.324 6.137 13.25s-2.98 8.453-6.137 13.25c-2.98 4.523-6.058 9.2-7.5 14.59-1.496 5.594-1.176 11.32-.867 16.855.313 5.61.606 10.907-1.219 14.063-1.882 3.25-6.668 5.652-11.73 8.199-4.918 2.469-10 5.023-14.031 9.059-4.036 4.03-6.59 9.117-9.059 14.03-2.547 5.067-4.95 9.852-8.2 11.731-3.155 1.828-8.452 1.532-14.058 1.22-5.539-.31-11.265-.63-16.86.866-2.222.594-4.316 1.477-6.331 2.504l-.117.059c-2.836 1.457-5.52 3.21-8.141 4.937-4.797 3.157-9.324 6.137-13.25 6.137s-8.453-2.98-13.25-6.137c-2.621-1.726-5.305-3.48-8.137-4.937l-.117-.059c-2.02-1.031-4.113-1.91-6.336-2.504-3.262-.87-6.566-1.125-9.855-1.125-2.352 0-4.692.13-7 .258-5.61.313-10.907.61-14.059-1.219-3.25-1.879-5.656-6.664-8.2-11.73-2.472-4.914-5.026-10-9.058-14.031-4.035-4.036-9.12-6.59-14.035-9.063-5.066-2.543-9.851-4.945-11.73-8.195-1.825-3.156-1.532-8.453-1.22-14.059.31-5.539.63-11.265-.866-16.86-1.442-5.39-4.52-10.066-7.5-14.589C74.98 244.953 72 240.426 72 236.5s2.98-8.453 6.137-13.25zm0 0"/><path d="M141.73 241.29l35.633 28.487a7.48 7.48 0 0 0 4.68 1.641c2.07 0 4.129-.852 5.605-2.512l48.82-54.84a7.497 7.497 0 0 0-.613-10.586 7.502 7.502 0 0 0-10.59.614l-44.09 49.523-30.081-24.047a7.499 7.499 0 0 0-10.54 1.176 7.5 7.5 0 0 0 1.176 10.543zm0 0"/></svg>