<svg height="512pt" viewBox="-38 0 512 512" width="512pt" xmlns="http://www.w3.org/2000/svg"><path d="M427.5 327.5c4.145 0 7.5-3.355 7.5-7.5v-35.5c0-8.445-3.8-16.3-10.414-21.543a.721.721 0 0 0-.05-.035c-.087-.067-.177-.129-.263-.192A27.56 27.56 0 0 0 407.5 257h-25V7.5c0-4.145-3.355-7.5-7.5-7.5H60a7.497 7.497 0 0 0-7.5 7.5v24.168c0 4.14 3.355 7.5 7.5 7.5s7.5-3.36 7.5-7.5V15h300v275.148l-150 85.715-37.965-21.691a7.493 7.493 0 0 0-10.23 2.789 7.496 7.496 0 0 0 2.793 10.23L399.258 497H27.5c-2.848 0-5.527-.934-7.762-2.71A12.417 12.417 0 0 1 15 484.5v-200c0-2.195.582-4.297 1.633-6.145l127.68 72.961a7.46 7.46 0 0 0 3.714.989 7.493 7.493 0 0 0 6.52-3.778 7.503 7.503 0 0 0-2.79-10.234L67.5 290.148V64c0-4.145-3.355-7.5-7.5-7.5s-7.5 3.355-7.5 7.5v193h-25a27.562 27.562 0 0 0-16.781 5.734c-.086.063-.172.121-.254.188a.263.263 0 0 1-.043.027C3.8 268.2 0 276.055 0 284.5v200c0 8.445 3.8 16.3 10.414 21.543A27.582 27.582 0 0 0 27.5 512h380a27.557 27.557 0 0 0 16.828-5.77c.059-.042.121-.085.18-.132a.792.792 0 0 0 .07-.051C431.2 500.8 435 492.945 435 484.5V351.75c0-4.145-3.355-7.5-7.5-7.5s-7.5 3.355-7.5 7.5V484.5c0 2.195-.582 4.297-1.633 6.145L232.617 384.5l185.75-106.145A12.402 12.402 0 0 1 420 284.5V320c0 4.145 3.355 7.5 7.5 7.5zm-375-45.926L35.742 272H52.5zm330-9.574h16.758l-16.758 9.574zm0 0"/><path d="M305.5 201.5c4.145 0 7.5-3.355 7.5-7.5V46c0-4.145-3.355-7.5-7.5-7.5h-176A7.497 7.497 0 0 0 122 46v148c0 4.145 3.355 7.5 7.5 7.5zm-168.5-15v-20.355l47.93-42.06 81.566 62.415zm161 0h-6.82l-26.989-20.652L298 136.457zm0-133v63.082l-45.969 39.961-60.355-46.184c-4.285-3.28-10.34-3.078-14.399.485L137 146.188V53.5zm0 0"/><path d="M257.8 112.68c14.563 0 26.415-11.852 26.415-26.418 0-14.567-11.852-26.414-26.414-26.414-14.567 0-26.418 11.847-26.418 26.414 0 14.566 11.851 26.418 26.418 26.418zm0-37.832c6.294 0 11.415 5.12 11.415 11.414 0 6.297-5.121 11.418-11.414 11.418-6.297 0-11.418-5.121-11.418-11.418 0-6.293 5.12-11.414 11.418-11.414zM102 229c0 4.145 3.355 7.5 7.5 7.5h216c4.145 0 7.5-3.355 7.5-7.5s-3.355-7.5-7.5-7.5h-216a7.497 7.497 0 0 0-7.5 7.5zm7.5 43.5h216c4.145 0 7.5-3.355 7.5-7.5s-3.355-7.5-7.5-7.5h-216c-4.145 0-7.5 3.355-7.5 7.5s3.355 7.5 7.5 7.5zm0 36h216c4.145 0 7.5-3.355 7.5-7.5s-3.355-7.5-7.5-7.5h-216c-4.145 0-7.5 3.355-7.5 7.5s3.355 7.5 7.5 7.5zm0 0"/></svg>