<svg height="512pt" viewBox="0 0 512 512" width="512pt" xmlns="http://www.w3.org/2000/svg"><path d="M496.496 340.5H475.48a27.302 27.302 0 0 0 2.817-9.246c3.918.71 8-.18 11.34-2.621 4.547-3.32 6.773-8.82 5.82-14.352l-3.723-21.508 15.774-15.242c4.058-3.926 5.504-9.691 3.77-15.054-1.743-5.391-6.317-9.239-11.942-10.051l-20.84-3V68c0-15.164-12.336-27.5-27.5-27.5H114.11c-1.851-5.137-6.312-8.785-11.77-9.574L80.493 27.78 70.73 8.176C68.22 3.133 63.152 0 57.5 0c-5.648 0-10.719 3.133-13.227 8.172l-9.761 19.605-21.852 3.149c-5.625.812-10.2 4.66-11.941 10.05-1.73 5.364-.285 11.13 3.773 15.055l15.774 15.242-3.723 21.504c-.957 5.535 1.273 11.035 5.816 14.356a14.763 14.763 0 0 0 8.723 2.863c.809 0 1.617-.094 2.418-.226v17.98a7.5 7.5 0 0 0 7.5 7.5c4.145 0 7.5-3.355 7.5-7.5V102.8l9-4.69 6 3.124V318a7.5 7.5 0 0 0 7.5 7.5h345.203a14.732 14.732 0 0 0 3.156 3.133 14.743 14.743 0 0 0 8.72 2.863c2.335 0 4.687-.558 6.862-1.691l19.555-10.196 9 4.692V328c0 6.895-5.605 12.5-12.5 12.5H61c-6.89 0-12.5-5.605-12.5-12.5V159.75c0-4.145-3.355-7.5-7.5-7.5a7.5 7.5 0 0 0-7.5 7.5V328c0 4.5 1.094 8.746 3.02 12.5H15.504c-8.547 0-15.5 6.953-15.5 15.5v6c0 20.68 16.82 37.5 37.5 37.5h47.578C78.5 407.125 74.5 417.063 74.5 427.93c0 8.199 6.648 14.87 14.82 14.87H160a7.5 7.5 0 0 0 7.5-7.5c0-4.144-3.355-7.5-7.5-7.5H89.5c.07-15.616 12.691-28.3 28.191-28.3h75.774a37.11 37.11 0 0 0-.246 4.18c0 3.367 1.289 6.562 3.656 9.03a12.888 12.888 0 0 0 8.95 3.927c41.37 1.133 73.64 5.27 82.222 10.554 3.93 2.414 8.77 6.141 12.988 9.47a7.499 7.499 0 0 0 10.531-1.247 7.495 7.495 0 0 0-1.242-10.531c-4.789-3.778-9.847-7.66-14.422-10.469-14.879-9.16-60.355-11.894-87.59-12.71a20.883 20.883 0 0 1 1.75-6.653 21.222 21.222 0 0 1 19.368-12.578h110.09c28.875 0 48.214 6.152 61 15.34.187.156.386.3.593.437 13.735 10.133 19.711 23.824 21.801 37.02L320.63 454.5h-4.719a97.98 97.98 0 0 1-24.625-3.148 98.1 98.1 0 0 1-23.062-9.25A113.166 113.166 0 0 0 213.23 427.8H192a7.5 7.5 0 1 0 0 15h21.23a98.146 98.146 0 0 1 47.688 12.402A112.97 112.97 0 0 0 315.91 469.5h.961l21.008 38.586a7.495 7.495 0 0 0 6.586 3.914H482.73c2.696 0 5.188-1.45 6.52-3.797s1.3-5.226-.078-7.547l-39.067-65.5a7.504 7.504 0 0 0-7.828-3.527l-4.644.875c-2.074-12.52-6.817-23.711-13.985-33.004h50.848c20.68 0 37.5-16.82 37.5-37.5v-6c0-8.547-6.953-15.5-15.5-15.5zM50.656 84.762l-13.195 6.875a.21.21 0 0 1-.05.027l-5.993 3.121 3.66-21.137c.824-4.785-.77-9.66-4.27-13.046l-15.43-14.91 21.384-3.083a14.757 14.757 0 0 0 11.117-8.02l9.625-19.331 9.621 19.332a14.757 14.757 0 0 0 11.117 8.02l21.383 3.081-15.43 14.91a14.66 14.66 0 0 0-4.27 13.047l3.657 21.141-8.906-4.644c-.102-.06-.207-.11-.313-.165l-10.011-5.218a14.82 14.82 0 0 0-13.696 0zM78.5 108.949a14.69 14.69 0 0 0 14.14-1.816c4.547-3.32 6.774-8.82 5.82-14.352L97.2 85.5H384c4.14 0 7.5-3.355 7.5-7.5s-3.36-7.5-7.5-7.5H95.54l14.972-14.469c.18-.172.343-.351.511-.531H451c6.89 0 12.5 5.605 12.5 12.5v156.54a14.747 14.747 0 0 0-9.004-3.04c-2.113 0-4.148.441-5.996 1.254V78a7.5 7.5 0 0 0-7.5-7.5h-24.75c-4.145 0-7.5 3.355-7.5 7.5s3.355 7.5 7.5 7.5h17.25v159.781l-1.992 4-21.848 3.145c-5.625.812-10.203 4.664-11.941 10.05-1.735 5.364-.29 11.13 3.77 15.055l15.773 15.242-3.067 17.727H78.5zm375.996 195.637c-2.351 0-4.703.559-6.848 1.676l-19.234 10.023 3.66-21.137c.824-4.785-.77-9.66-4.27-13.046l-15.429-14.91 21.383-3.083a14.75 14.75 0 0 0 11.113-8.02l9.625-19.331 9.625 19.332c.043.09.102.168.145.258.16.324.34.64.543.941a14.75 14.75 0 0 0 10.425 6.82l21.383 3.082-15.43 14.91a14.647 14.647 0 0 0-4.265 13.047l3.656 21.141-5.984-3.121-.07-.035-13.184-6.871a14.777 14.777 0 0 0-6.844-1.676zM469.523 497H348.922l-16.078-29.531 107.062-20.13zm27.473-135c0 12.406-10.094 22.5-22.5 22.5h-66.871c-16.66-11.313-39.492-17.031-68.105-17.031H229.43c-12.586 0-24.157 6.554-30.7 17.031H37.504c-12.406 0-22.5-10.094-22.5-22.5v-6c0-.273.223-.5.5-.5h480.992c.277 0 .5.227.5.5zm0 0"/><path d="M196 124.957h-80a7.5 7.5 0 1 0 0 15h80c4.145 0 7.5-3.355 7.5-7.5s-3.355-7.5-7.5-7.5zm0 29.035h-80a7.5 7.5 0 0 0-7.5 7.5 7.5 7.5 0 0 0 7.5 7.5h80c4.145 0 7.5-3.355 7.5-7.5 0-4.144-3.355-7.5-7.5-7.5zm0 29.035h-80a7.5 7.5 0 0 0-7.5 7.5 7.5 7.5 0 0 0 7.5 7.5h80c4.145 0 7.5-3.355 7.5-7.5 0-4.144-3.355-7.5-7.5-7.5zm0 29.036h-80a7.5 7.5 0 1 0 0 15h80c4.145 0 7.5-3.356 7.5-7.5a7.5 7.5 0 0 0-7.5-7.5zm0 29.035h-80a7.5 7.5 0 0 0-7.5 7.5 7.5 7.5 0 0 0 7.5 7.5h80c4.145 0 7.5-3.356 7.5-7.5 0-4.145-3.355-7.5-7.5-7.5zm198.133-37.246c2.39-3.63 5.367-8.145 5.367-13.852s-2.977-10.223-5.367-13.855c-1.156-1.754-2.352-3.57-2.668-4.758-.352-1.325-.227-3.582-.106-5.77.239-4.27.536-9.59-2.238-14.383-2.805-4.843-7.594-7.25-11.441-9.183-1.926-.969-3.914-1.969-4.84-2.895-.922-.922-1.922-2.914-2.89-4.84-1.934-3.847-4.34-8.636-9.188-11.441-4.79-2.77-10.11-2.473-14.383-2.234-2.184.12-4.441.246-5.766-.11-1.187-.316-3.004-1.511-4.758-2.668-3.632-2.39-8.148-5.363-13.855-5.363-5.703 0-10.223 2.973-13.852 5.363-1.757 1.157-3.57 2.352-4.757 2.668-1.329.356-3.586.23-5.77.11-4.273-.243-9.594-.536-14.383 2.234-4.843 2.805-7.254 7.594-9.187 11.441-.965 1.926-1.965 3.914-2.89 4.84-.923.926-2.915 1.926-4.84 2.89-3.848 1.938-8.641 4.345-11.442 9.188-2.77 4.793-2.477 10.11-2.234 14.383.12 2.188.246 4.446-.11 5.77-.316 1.187-1.512 3.004-2.668 4.758-2.39 3.632-5.363 8.148-5.363 13.855s2.973 10.223 5.363 13.855c1.156 1.754 2.352 3.57 2.668 4.758.356 1.325.23 3.582.11 5.77-.239 4.27-.536 9.59 2.234 14.383 2.805 4.843 7.594 7.25 11.441 9.183 1.926.969 3.914 1.969 4.84 2.895.926.922 1.926 2.914 2.89 4.84 1.938 3.847 4.345 8.636 9.188 11.441 4.793 2.773 10.114 2.477 14.383 2.234 2.184-.117 4.442-.246 5.77.11 1.187.316 3 1.511 4.757 2.668 3.63 2.39 8.149 5.363 13.852 5.363 5.707 0 10.227-2.973 13.855-5.363 1.754-1.157 3.57-2.352 4.758-2.668 1.324-.356 3.582-.23 5.766-.11 4.273.239 9.594.536 14.383-2.234 4.847-2.805 7.254-7.594 9.187-11.441.965-1.926 1.965-3.914 2.89-4.84.927-.926 2.915-1.926 4.84-2.89 3.848-1.938 8.641-4.345 11.442-9.188 2.774-4.793 2.477-10.11 2.238-14.383-.12-2.188-.246-4.446.106-5.77.316-1.187 1.512-3.004 2.668-4.761zm-12.528-8.247c-1.726 2.625-3.687 5.598-4.632 9.133-.973 3.645-.77 7.274-.59 10.477.117 2.164.285 5.125-.246 6.039-.559.965-3.239 2.312-5.192 3.293-2.851 1.433-6.078 3.055-8.71 5.687-2.637 2.637-4.258 5.864-5.688 8.711-.985 1.957-2.328 4.637-3.297 5.196-.914.527-3.875.363-6.035.242-3.203-.176-6.836-.38-10.477.594-3.531.945-6.508 2.902-9.133 4.632-1.957 1.29-4.394 2.895-5.605 2.895s-3.645-1.606-5.605-2.895c-2.622-1.73-5.598-3.687-9.133-4.632-2.16-.579-4.32-.743-6.387-.743-1.414 0-2.79.078-4.09.149-2.16.12-5.12.285-6.035-.242-.969-.559-2.313-3.239-3.297-5.196-1.43-2.847-3.05-6.074-5.687-8.71-2.633-2.633-5.86-4.255-8.711-5.688-1.953-.98-4.633-2.328-5.192-3.293-.531-.914-.363-3.875-.246-6.04.18-3.202.383-6.831-.59-10.476-.945-3.531-2.902-6.508-4.632-9.133-1.29-1.957-2.895-4.394-2.895-5.605 0-1.207 1.605-3.645 2.895-5.605 1.726-2.622 3.687-5.598 4.632-9.133.973-3.64.77-7.27.59-10.477-.117-2.16-.285-5.12.246-6.035.559-.969 3.239-2.313 5.192-3.297 2.851-1.43 6.078-3.05 8.715-5.687 2.632-2.633 4.253-5.864 5.683-8.711.984-1.953 2.328-4.633 3.297-5.192.914-.531 3.875-.367 6.035-.246 3.207.18 6.836.383 10.477-.594 3.531-.941 6.508-2.902 9.133-4.628 1.957-1.29 4.394-2.895 5.605-2.895s3.648 1.605 5.605 2.895c2.625 1.726 5.598 3.687 9.133 4.632 3.64.97 7.27.77 10.473.59 2.16-.12 5.125-.285 6.039.246.965.559 2.313 3.239 3.297 5.192 1.43 2.847 3.05 6.078 5.687 8.71 2.633 2.637 5.86 4.258 8.707 5.688 1.957.984 4.637 2.328 5.196 3.297.527.914.363 3.875.242 6.035-.176 3.203-.379 6.836.594 10.477.945 3.535 2.902 6.511 4.632 9.133 1.29 1.96 2.895 4.398 2.895 5.605 0 1.21-1.605 3.645-2.895 5.605zm0 0"/><path d="M307.137 167.637c0 4.14-3.36 7.5-7.5 7.5s-7.5-3.36-7.5-7.5 3.36-7.5 7.5-7.5 7.5 3.36 7.5 7.5zm44.726 44.726a7.5 7.5 0 1 1-15 0 7.5 7.5 0 1 1 15 0zm-12.457-50.379l-45.422 45.422a7.502 7.502 0 0 0 10.61 10.61l45.422-45.422a7.502 7.502 0 0 0 0-10.61 7.51 7.51 0 0 0-10.61 0zm0 0"/></svg>