<svg height="512pt" viewBox="0 0 512 512.003" width="512pt" xmlns="http://www.w3.org/2000/svg"><path d="M197.273 237.883c-.09.219-9.148 21.629-40.691 21.629-31.402 0-42.559-21.106-43.082-22.137a7.494 7.494 0 0 0-10.008-3.41 7.498 7.498 0 0 0-3.449 10.031c.605 1.246 15.371 30.516 56.539 30.516 41.527 0 54.074-29.719 54.59-30.985a7.503 7.503 0 0 0-4.125-9.773c-3.844-1.555-8.215.289-9.774 4.129zm0 0"/><path d="M504.5 296.367a7.5 7.5 0 0 0 7.5-7.5v-24.363c0-4.145-3.355-7.5-7.5-7.5h-29.324c-.332-.606-.586-1.156-.707-1.61-.356-1.328-.23-3.585-.11-5.769.239-4.273.536-9.594-2.234-14.383-2.805-4.847-7.594-7.254-11.445-9.187-1.922-.97-3.914-1.97-4.836-2.89-.926-.927-1.926-2.915-2.89-4.84-1.938-3.848-4.345-8.641-9.188-11.442-4.793-2.77-10.11-2.477-14.383-2.238-2.188.12-4.445.246-5.77-.106-1.187-.316-3.004-1.512-4.758-2.668-3.632-2.39-8.148-5.367-13.855-5.367-5.703 0-10.223 2.976-13.855 5.367-1.754 1.156-3.57 2.352-4.754 2.668-1.328.356-3.586.23-5.77.106-4.277-.235-9.594-.532-14.383 2.238-4.847 2.804-7.254 7.594-9.187 11.441-.969 1.926-1.969 3.914-2.89 4.84-.927.922-2.915 1.922-4.84 2.89-3.848 1.934-8.641 4.344-11.442 9.188-2.774 4.79-2.477 10.11-2.238 14.383.12 2.184.246 4.441-.106 5.77-.12.457-.375 1.007-.707 1.609H304.5a7.5 7.5 0 0 0-7.5 7.5v92.64a32.467 32.467 0 0 0-11.578-2.14c-4.043 0-7.844 1.586-10.703 4.465a15.132 15.132 0 0 0-4.418 10.726v27.899c-18.254-18.684-41.809-29.09-66.961-29.09H193v-43.691c20.602-7.032 38.977-19.856 52.965-37.446a7.5 7.5 0 1 0-11.738-9.336c-13.2 16.598-30.883 28.328-50.66 34.035a5.05 5.05 0 0 0-.348.094 100.961 100.961 0 0 1-27.649 3.844h-.14c-55.375 0-100.43-45.055-100.43-100.43v-32.031a20.28 20.28 0 0 0 6.48-3.457c17.188-13.602 24.153-44.11 26.778-61.086a2.494 2.494 0 0 1 2.137-2.102c15.668-2.183 54.968-8.886 81.507-24.011 8.907-5.074 20.133-3.485 27.309 3.86 6.156 6.3 13.523 12.19 21.898 17.515.664.422 1.106 1.082 1.207 1.808 1.98 14.34 8.606 49.285 27.207 64.008a20.376 20.376 0 0 0 6.477 3.469v32.027c0 12.672-2.328 25.024-6.918 36.711-1.516 3.852.383 8.207 4.238 9.723a7.501 7.501 0 0 0 9.723-4.238c5.203-13.243 7.875-27.22 7.953-41.551a30.14 30.14 0 0 0 6.746.785c19.274 0 33.262-20.645 33.262-49.09 0-21.86-8.715-37.414-23.164-42.293-.371-7.836-1.242-13.668-1.59-15.77.066-4.304-.148-23.562-8.395-43.417-8.449-20.356-26.984-44.922-67.41-48.278-7.27-8.636-31.156-26.5-99.93-14.804-33.66 5.734-59.199 26.144-73.843 59.027-10.047 22.55-11.66 43.488-11.871 47.184-.309 1.804-1.25 7.824-1.64 16.062C8.714 131 0 146.559 0 168.415c0 28.444 13.988 49.089 33.262 49.089a30.14 30.14 0 0 0 6.746-.785c.277 50.273 32.855 93.035 77.992 108.55v43.735h-10.34c-26.05 0-50.75 11.316-69.555 31.863a7.502 7.502 0 0 0 5.532 12.567 7.48 7.48 0 0 0 5.535-2.438c15.926-17.406 36.7-26.992 58.488-26.992h.906c1.442 10.082 6.07 19.394 13.399 26.723 8.96 8.96 20.87 13.898 33.535 13.898 23.84 0 43.617-17.684 46.926-40.621h.914c25.758 0 49.668 13.21 66.023 36.36a34.758 34.758 0 0 1-6.101 13.062c-6.528 8.625-10.121 19.234-10.121 29.879 0 1.93.12 3.886.355 5.808 1.399 11.418 5.809 20.828 12.887 27.89H22v-12.929c0-16.812 3.645-33.441 10.531-48.082a7.497 7.497 0 0 0-3.593-9.98 7.493 7.493 0 0 0-9.977 3.593C11.137 446.23 7 465.066 7 484.075v20.429c0 4.14 3.36 7.5 7.5 7.5h282a7.428 7.428 0 0 0 2.965-.613c.926.105 1.86.195 2.8.273a7.55 7.55 0 0 0 2.235.34h200c4.14 0 7.5-3.36 7.5-7.5v-184.75a7.5 7.5 0 1 0-15 0V497H312V272.004h15.625a16.71 16.71 0 0 0-.125 2c0 5.703 2.977 10.223 5.367 13.851 1.156 1.758 2.352 3.57 2.668 4.758.352 1.328.227 3.586.106 5.77-.239 4.273-.536 9.594 2.238 14.383 2.805 4.847 7.594 7.254 11.441 9.187 1.926.965 3.914 1.965 4.84 2.89.922.927 1.922 2.915 2.89 4.84 1.934 3.848 4.34 8.641 9.188 11.442 4.79 2.77 10.11 2.477 14.383 2.238 2.184-.12 4.441-.246 5.77.106 1.187.316 3 1.511 4.757 2.668 3.63 2.39 8.149 5.363 13.856 5.363 5.703 0 10.223-2.973 13.851-5.363 1.754-1.157 3.57-2.352 4.758-2.668 1.328-.356 3.586-.227 5.77-.106 4.273.235 9.594.532 14.383-2.238 4.843-2.805 7.254-7.594 9.187-11.441.965-1.926 1.965-3.914 2.89-4.84s2.915-1.926 4.84-2.89c3.848-1.934 8.641-4.345 11.442-9.188 2.77-4.79 2.477-10.11 2.234-14.383-.12-2.184-.246-4.442.11-5.77.316-1.187 1.511-3 2.668-4.758 2.39-3.628 5.363-8.148 5.363-13.851 0-.684-.043-1.352-.121-2H497v16.863c0 4.14 3.36 7.5 7.5 7.5zM296 168.414c0 16.758-6.828 34.09-18.258 34.09-2.316 0-4.57-.531-6.742-1.559v-17.898c5.012-2.324 8.988-6.55 10.95-11.79 3.456-9.25 5.085-19.077 5.718-28.112 6.012 5.32 8.332 15.656 8.332 25.27zm-256.36-56.14c.067-.344.106-.704.122-1.051.008-.207 1.008-20.91 10.8-42.66 12.711-28.231 33.731-45.028 62.473-49.922 15.32-2.606 28.031-3.633 38.563-3.633 37.527 0 47.27 13.066 48.125 14.34 1.129 2.601 3.449 3.906 6.3 4.05 67.196 3.32 65.329 74.204 65.215 77.207-.023.56.02 1.118.121 1.668.028.157 1.52 8.457 1.637 19.735 0 .125.004.246.008.367.078 10.102-.957 22.523-5.11 33.629v.004a6.09 6.09 0 0 1-4.124 3.777 6.198 6.198 0 0 1-1 .188h-.04a5.29 5.29 0 0 1-3.886-1.145c-14.75-11.68-20.317-44.523-21.668-54.312-.707-5.102-3.63-9.625-8.02-12.414-7.402-4.704-13.867-9.864-19.215-15.336-11.937-12.227-30.632-14.86-45.464-6.41-24.282 13.835-61.34 20.124-76.149 22.183-7.719 1.074-13.703 6.973-14.894 14.672-3.836 24.82-11.782 44.113-21.27 51.625-1.328 1.055-2.71 1.23-3.773 1.144a7.417 7.417 0 0 0-.293-.027A6.098 6.098 0 0 1 43.12 166c-8.84-23.605-3.531-53.434-3.48-53.727zM15 168.413c0-9.613 2.324-19.953 8.336-25.273.637 9.039 2.27 18.867 5.734 28.113 1.953 5.238 5.926 9.46 10.93 11.785v17.906c-2.168 1.028-4.422 1.559-6.738 1.559-11.43 0-18.262-17.332-18.262-34.09zM155.5 409.62c-8.656 0-16.797-3.375-22.926-9.504-4.695-4.691-7.77-10.57-8.949-16.96 5.46-1.981 9.375-7.223 9.375-13.364v-40.484a115.665 115.665 0 0 0 22.43 2.195h.14c7.618 0 15.121-.742 22.43-2.176v40.465c0 6.137 3.91 11.379 9.375 13.36-2.805 15.046-16.031 26.468-31.875 26.468zm119.723 32.856a49.712 49.712 0 0 0 9.445-22.274l.012-.047c.015-.105.039-.207.054-.308.375-2.438.567-4.938.567-7.438V370.19c0-.035 0-.09.12-.187 4.294 0 8.388 1.59 11.579 4.398V495.86c-17.27-3.125-26.645-12.464-28.613-28.57a32.485 32.485 0 0 1-.246-3.988c0-7.395 2.515-14.79 7.082-20.824zm189.382-162.868c-1.726 2.625-3.683 5.598-4.628 9.133-.973 3.64-.77 7.27-.594 10.473.12 2.164.285 5.125-.242 6.039-.563.965-3.239 2.312-5.196 3.297-2.847 1.43-6.074 3.05-8.71 5.687-2.633 2.633-4.258 5.86-5.688 8.711-.98 1.953-2.328 4.633-3.293 5.192-.918.527-3.879.363-6.04.242-3.202-.176-6.835-.38-10.476.594-3.531.945-6.508 2.902-9.133 4.632-1.957 1.29-4.394 2.895-5.605 2.895-1.207 0-3.645-1.606-5.602-2.895-2.625-1.73-5.601-3.687-9.136-4.632-2.16-.579-4.32-.743-6.387-.743-1.414 0-2.785.078-4.086.149-2.16.125-5.121.285-6.039-.242-.965-.559-2.313-3.239-3.293-5.196-1.434-2.847-3.055-6.074-5.691-8.71-2.633-2.633-5.86-4.255-8.707-5.684-1.957-.985-4.637-2.332-5.196-3.297-.527-.914-.363-3.875-.242-6.04.176-3.202.379-6.831-.594-10.472-.945-3.535-2.902-6.508-4.632-9.133-1.29-1.96-2.891-4.394-2.891-5.605 0-1.149 1.437-3.395 2.687-5.293a.344.344 0 0 0 .024-.04c.062-.089.12-.183.18-.273 1.73-2.625 3.687-5.601 4.632-9.132.973-3.641.77-7.274.594-10.477-.121-2.16-.285-5.121.242-6.035.563-.969 3.239-2.313 5.196-3.297 2.847-1.43 6.074-3.055 8.71-5.687 2.633-2.633 4.254-5.864 5.688-8.711.98-1.957 2.328-4.637 3.293-5.192.914-.531 3.875-.367 6.04-.246 3.202.18 6.831.383 10.476-.594 3.53-.941 6.507-2.902 9.132-4.629 1.957-1.289 4.395-2.894 5.606-2.894 1.207 0 3.644 1.605 5.601 2.894 2.625 1.727 5.602 3.684 9.137 4.633 3.64.969 7.27.77 10.473.59 2.164-.121 5.125-.285 6.039.246.965.559 2.312 3.238 3.297 5.192 1.43 2.847 3.05 6.074 5.687 8.71 2.633 2.637 5.86 4.258 8.707 5.688 1.957.984 4.637 2.328 5.196 3.297.527.914.363 3.875.242 6.035-.176 3.203-.38 6.836.594 10.477.945 3.53 2.902 6.507 4.632 9.132.059.09.118.184.18.274l.023.039c1.25 1.898 2.692 4.144 2.692 5.293-.004 1.21-1.606 3.644-2.899 5.605zm0 0"/><path d="M390.137 251.64c0 4.145-3.356 7.5-7.5 7.5a7.5 7.5 0 1 1 0-15 7.5 7.5 0 0 1 7.5 7.5zm44.726 44.727a7.5 7.5 0 1 1-15 0 7.5 7.5 0 0 1 7.5-7.5c4.145 0 7.5 3.356 7.5 7.5zm-12.453-50.379l-45.422 45.422a7.502 7.502 0 0 0 5.301 12.805 7.49 7.49 0 0 0 5.305-2.195l45.422-45.426a7.497 7.497 0 0 0 0-10.606c-2.93-2.925-7.68-2.925-10.606 0zM475 365.504H335a7.5 7.5 0 1 0 0 15h140a7.5 7.5 0 0 0 7.5-7.5c0-4.145-3.355-7.5-7.5-7.5zm0 30H335a7.5 7.5 0 1 0 0 15h140a7.5 7.5 0 0 0 7.5-7.5c0-4.145-3.355-7.5-7.5-7.5zm7.5 37.5c0-4.145-3.355-7.5-7.5-7.5H335a7.5 7.5 0 1 0 0 15h140a7.5 7.5 0 0 0 7.5-7.5zM335 455.5a7.5 7.5 0 1 0 0 15h35.688c4.144 0 7.5-3.355 7.5-7.5a7.5 7.5 0 0 0-7.5-7.5zm0 0"/></svg>