<svg height="512pt" viewBox="0 0 512 512" width="512pt" xmlns="http://www.w3.org/2000/svg"><path d="M322.703 100.75c0-14.563-11.851-26.414-26.418-26.414-14.562 0-26.414 11.851-26.414 26.414 0 14.566 11.852 26.418 26.414 26.418 14.567 0 26.418-11.852 26.418-26.418zm-37.832 0c0-6.293 5.121-11.414 11.414-11.414 6.297 0 11.418 5.121 11.418 11.414 0 6.297-5.121 11.418-11.418 11.418-6.293 0-11.414-5.121-11.414-11.418zm0 0"/><path d="M505.55 154.602c8.571-8.57 8.571-22.516 0-31.086l-21.894-21.895c-8.57-8.57-22.515-8.57-31.086 0L420.988 133.2V96.25a7.5 7.5 0 0 0-7.5-7.5 7.497 7.497 0 0 0-7.5 7.5v51.953l-54.5 54.5V60.488c0-4.14-3.36-7.5-7.5-7.5h-120a7.5 7.5 0 0 0-7.5 7.5c0 4.145 3.356 7.5 7.5 7.5h112.5v63.082l-45.968 39.961-43.23-33.082a86.921 86.921 0 0 0-21.243-34.629c-13.813-13.808-31.461-22.406-50.563-24.847V67.988h16.5c4.145 0 7.5-3.355 7.5-7.5a7.5 7.5 0 0 0-7.5-7.5h-24c-4.14 0-7.5 3.36-7.5 7.5V77.82c-20.32.832-39.386 8.551-54.5 22.04V15h300v49a7.5 7.5 0 0 0 7.5 7.5c4.145 0 7.5-3.355 7.5-7.5V7.5c0-4.145-3.355-7.5-7.5-7.5h-315a7.5 7.5 0 0 0-7.5 7.5v109.727c-19.02 29.011-19.02 66.921 0 95.93v2.558l-84.41 84.414c-8.765 8.762-8.765 23.031 0 31.812 4.387 4.387 10.149 6.582 15.914 6.582 5.762 0 11.528-2.195 15.914-6.582l52.586-52.59V415.5c0 4.145 3.356 7.5 7.5 7.5a7.5 7.5 0 0 0 7.5-7.5V264.352l20.274-20.278c11.675 5.61 24.562 8.582 37.914 8.582 23.398 0 45.37-9.09 61.87-25.593a87.126 87.126 0 0 0 9.36-11.075H338.2l-50.476 50.48H142.988c-4.144 0-7.5 3.356-7.5 7.5s3.356 7.5 7.5 7.5h129.735l-18.332 18.333H142.988a7.497 7.497 0 0 0-7.5 7.5 7.5 7.5 0 0 0 7.5 7.5h96.403l-18.329 18.328h-78.074a7.497 7.497 0 0 0-7.5 7.5c0 4.144 3.356 7.5 7.5 7.5h63.074l-18.34 18.34h-44.734c-4.144 0-7.5 3.355-7.5 7.5s3.356 7.5 7.5 7.5h29.735l-7.305 7.304c-3.414 3.414-4.402 8.344-2.988 12.649-9.266 6.168-21.66 20.652-25.368 54.512-.421 3.867.93 7.683 3.708 10.46 2.445 2.446 5.69 3.79 9.07 3.79.465 0 .93-.028 1.394-.079 33.864-3.699 48.348-16.093 54.512-25.363 1.262.414 2.574.633 3.89.633 3.173 0 6.348-1.207 8.762-3.621l93.622-93.625h50.964c4.145 0 7.5-3.356 7.5-7.5a7.5 7.5 0 0 0-7.5-7.5H327.02l18.332-18.328h17.632a7.5 7.5 0 0 0 7.5-7.5c0-4.145-3.355-7.5-7.5-7.5h-2.632l45.632-45.637V391.5h-49.59c-10.976 0-19.91 8.934-19.91 19.91v45.18c0 10.98 8.934 19.91 19.91 19.91h49.59V497h-300v-48.5c0-4.145-3.355-7.5-7.5-7.5a7.5 7.5 0 0 0-7.5 7.5v56a7.5 7.5 0 0 0 7.5 7.5h315c4.145 0 7.5-3.355 7.5-7.5v-28h54.59c10.98 0 19.91-8.934 19.91-19.91v-45.18c0-10.98-8.93-19.91-19.91-19.91h-54.59V239.164zM351.489 456.59v-45.18a4.916 4.916 0 0 1 4.91-4.91h33.672v55h-33.672a4.916 4.916 0 0 1-4.91-4.91zm53.582-50.09h15v55h-15zm75.418 4.91v45.18a4.916 4.916 0 0 1-4.91 4.91H435.07v-55h40.508a4.916 4.916 0 0 1 4.91 4.91zm-249.664-3.297l-31.77-31.765 215.532-215.532 31.766 31.766zm-21.187 21.188l-31.77-31.766 10.582-10.582 31.766 31.77zm226.136-289.672l31.766 31.766-10.578 10.582-31.766-31.766zm27.403-27.402c2.722-2.723 7.152-2.72 9.87 0l21.895 21.894c2.723 2.723 2.723 7.152 0 9.871l-16.793 16.797-31.765-31.766zm-126.688 38.718v50.043h-6.82l-26.988-20.652zM27.793 321.335a7.452 7.452 0 0 1-5.305 2.2 7.451 7.451 0 0 1-5.304-2.195c-2.922-2.926-2.926-7.688-.004-10.606l84.414-84.414c.238.246.465.5.707.746a88.433 88.433 0 0 0 10.676 9.079zm136.383-83.679c-19.39 0-37.598-7.527-51.266-21.199-28.27-28.266-28.27-74.262 0-102.527 13.668-13.672 31.875-21.2 51.266-21.2s37.597 7.528 51.265 21.2c28.266 28.265 28.266 74.261 0 102.527-13.668 13.672-31.875 21.2-51.265 21.2zM244 200.988c5.79-12.953 8.281-27.027 7.465-40.953l53.515 40.953zm-92.023 256.578v-.004zm.316-2.687c3.785-29.484 14.555-38.942 19.848-41.86l5.703 5.704-8.82 8.82a7.497 7.497 0 0 0 0 10.605 7.475 7.475 0 0 0 5.3 2.2c1.922 0 3.84-.735 5.305-2.2l8.82-8.82 5.738 5.734c-2.855 5.184-12.277 16.02-41.894 19.817zm0 0"/></svg>