<svg height="512pt" viewBox="-32 0 512 512" width="512pt" xmlns="http://www.w3.org/2000/svg"><path d="M424.586 262.957c-.016-.012-.031-.02-.047-.031-.09-.07-.18-.133-.27-.2A27.579 27.579 0 0 0 407.5 257h-25v-17.5c0-4.145-3.355-7.5-7.5-7.5s-7.5 3.355-7.5 7.5v50.645l-150 85.714-150-85.714V127.668a7.5 7.5 0 1 0-15 0V257h-25a27.57 27.57 0 0 0-16.793 5.742c-.078.059-.16.113-.238.176a.326.326 0 0 1-.047.031C3.8 268.2 0 276.055 0 284.5v200c0 8.445 3.8 16.3 10.414 21.543A27.582 27.582 0 0 0 27.5 512h380c6.078 0 12.04-2.055 16.828-5.77.059-.043.121-.085.18-.132a.792.792 0 0 0 .07-.051C431.2 500.8 435 492.945 435 484.5v-200c0-8.445-3.8-16.3-10.414-21.543zM382.5 272h16.758l-16.758 9.574zm-330 9.574L35.742 272H52.5zM19.738 494.29A12.417 12.417 0 0 1 15 484.5v-200c0-2.195.582-4.297 1.633-6.145L305.34 443.332a7.435 7.435 0 0 0 3.71.988 7.489 7.489 0 0 0 6.52-3.78 7.493 7.493 0 0 0-2.789-10.231L232.617 384.5l185.75-106.145A12.402 12.402 0 0 1 420 284.5v200c0 2.195-.582 4.297-1.633 6.145l-77.82-44.47a7.496 7.496 0 0 0-10.23 2.794 7.496 7.496 0 0 0 2.788 10.23L399.258 497H27.5c-2.848 0-5.531-.934-7.762-2.71zm0 0"/><path d="M441.637 91.355C444.027 87.723 447 83.207 447 77.5s-2.977-10.223-5.363-13.855c-1.157-1.754-2.356-3.57-2.668-4.758-.356-1.325-.23-3.582-.11-5.77.239-4.27.536-9.59-2.238-14.383-2.8-4.843-7.594-7.25-11.441-9.183-1.922-.969-3.914-1.969-4.836-2.895-.926-.922-1.926-2.914-2.895-4.84-1.933-3.847-4.34-8.636-9.187-11.441-4.79-2.77-10.11-2.473-14.383-2.234-2.184.12-4.441.246-5.77-.11-1.183-.316-3-1.511-4.757-2.668C379.722 2.977 375.203 0 369.5 0s-10.223 2.977-13.855 5.363c-1.754 1.157-3.57 2.356-4.758 2.668-1.324.356-3.582.23-5.77.11-4.273-.239-9.594-.536-14.383 2.238-4.843 2.8-7.25 7.594-9.183 11.441-.969 1.922-1.969 3.914-2.895 4.836-.922.926-2.914 1.926-4.84 2.895-3.847 1.933-8.636 4.34-11.441 9.187-.168.29-.324.586-.473.883H60a7.5 7.5 0 0 0-7.5 7.5V96a7.5 7.5 0 1 0 15 0V54.621h232.719c.078 1.668.09 3.246-.184 4.27-.316 1.183-1.512 3-2.668 4.757-2.39 3.63-5.367 8.149-5.367 13.852 0 5.707 2.977 10.227 5.367 13.855 1.156 1.754 2.352 3.57 2.668 4.758.352 1.325.227 3.586.106 5.77-.239 4.273-.536 9.594 2.238 14.383 1.402 2.421 3.3 4.238 5.332 5.687h-54.422l-22.617-22.617a9.763 9.763 0 0 0-8.399-2.727 9.755 9.755 0 0 0-7.136 5.176l-10.328 20.164H115.5a7.5 7.5 0 1 0 0 15h81.633l-10.75 21H115.5a7.5 7.5 0 1 0 0 15h63.203l-10.75 21H115.5a7.5 7.5 0 1 0 0 15h41.316c-.07.067-.144.125-.214.196l-36.524 36.52c-4.512 4.515-4.543 11.835-.101 16.398-4.645 6.476-7.157 14.226-7.157 22.367 0 10.289 4 19.957 11.266 27.222 7.273 7.274 16.945 11.278 27.227 11.278 8.148 0 15.902-2.52 22.37-7.164a11.63 11.63 0 0 0 8.145 3.312 11.64 11.64 0 0 0 8.258-3.414l2.348-2.348 26.511 26.516c4.39 4.387 10.153 6.578 15.914 6.578s11.528-2.191 15.914-6.578c4.25-4.25 6.59-9.902 6.59-15.91s-2.34-11.656-6.59-15.906l-26.52-26.52 2.352-2.351a11.648 11.648 0 0 0 2.98-5.102l104.4-53.438a9.774 9.774 0 0 0 5.16-7.152 9.765 9.765 0 0 0-2.73-8.379l-32.126-32.129H331.5c4.145 0 7.5-3.355 7.5-7.5a7.5 7.5 0 0 0-7.5-7.5h-42.21l-21-21h55.257c1.668 2.864 3.848 5.742 7.191 7.676 4.79 2.77 10.11 2.473 14.383 2.234 2.184-.12 4.442-.246 5.77.106 1.183.316 3 1.516 4.757 2.672 3.196 2.101 7.079 4.656 11.852 5.238V208a7.5 7.5 0 0 0 7.5 7.5c4.145 0 7.5-3.355 7.5-7.5v-57.805c.29-.187.574-.379.855-.562 1.754-1.156 3.57-2.352 4.758-2.668 1.328-.352 3.586-.227 5.77-.106 4.273.235 9.594.532 14.383-2.238 4.843-2.805 7.254-7.594 9.187-11.441.965-1.926 1.965-3.914 2.89-4.836.927-.926 2.915-1.926 4.84-2.895 3.848-1.933 8.641-4.34 11.442-9.187 2.773-4.79 2.477-10.11 2.238-14.383-.125-2.184-.25-4.442.106-5.77.312-1.183 1.511-3 2.668-4.754zM134.69 301.047c-4.43-4.434-6.87-10.332-6.87-16.617 0-4.106 1.046-8.047 2.995-11.516l32.008 32.008a23.348 23.348 0 0 1-11.511 3.012c-6.278 0-12.18-2.446-16.622-6.887zm-1.656-47.125l31.82-31.82 48.793 48.789-31.82 31.82zm107.133 64.703a7.44 7.44 0 0 1 2.195 5.3c0 2-.777 3.884-2.199 5.302-2.926 2.925-7.684 2.925-10.61 0l-26.515-26.512 10.61-10.61zm-16.152-58.578l-48.317-48.317 49.489-96.667 95.5 95.5zm205.09-176.942c-1.727 2.625-3.688 5.598-4.633 9.133-.973 3.64-.77 7.274-.59 10.477.12 2.16.285 5.12-.246 6.035-.559.969-3.239 2.313-5.192 3.297-2.847 1.43-6.078 3.055-8.71 5.687-2.637 2.637-4.258 5.864-5.688 8.711-.985 1.957-2.328 4.637-3.297 5.196-.914.527-3.879.363-6.035.242-3.203-.18-6.836-.38-10.477.594-3.535.945-6.511 2.902-9.133 4.628-1.957 1.29-4.394 2.895-5.605 2.895s-3.648-1.605-5.605-2.895c-2.625-1.726-5.598-3.687-9.133-4.632-2.164-.575-4.32-.739-6.39-.739-1.411 0-2.786.075-4.087.149-2.16.12-5.125.285-6.035-.246-.969-.559-2.313-3.239-3.297-5.192-1.43-2.847-3.055-6.078-5.687-8.71-2.637-2.637-5.864-4.258-8.711-5.688-1.957-.984-4.637-2.328-5.196-3.297-.527-.914-.363-3.875-.242-6.035.18-3.203.38-6.836-.594-10.477-.945-3.535-2.902-6.511-4.628-9.133-1.29-1.96-2.895-4.398-2.895-5.605 0-1.21 1.602-3.648 2.895-5.605 1.726-2.625 3.683-5.602 4.628-9.133.973-3.645.774-7.274.594-10.477-.078-1.375-.168-3.07-.094-4.36l.012-.109c.047-.683.145-1.254.324-1.57.563-.965 3.239-2.312 5.196-3.293 2.847-1.433 6.074-3.055 8.71-5.687 2.633-2.637 4.258-5.864 5.688-8.711.985-1.957 2.328-4.637 3.297-5.196.91-.53 3.875-.363 6.035-.242 3.203.18 6.836.38 10.477-.594 3.535-.945 6.508-2.902 9.133-4.632C365.852 16.605 368.289 15 369.5 15s3.648 1.605 5.605 2.895c2.625 1.726 5.598 3.687 9.133 4.632 3.645.97 7.27.77 10.477.59 2.16-.12 5.125-.285 6.035.246.969.559 2.313 3.239 3.297 5.192 1.43 2.847 3.055 6.078 5.687 8.71 2.637 2.637 5.864 4.258 8.711 5.688 1.957.984 4.637 2.328 5.196 3.297.527.914.363 3.875.242 6.035-.18 3.203-.38 6.836.594 10.477.945 3.535 2.902 6.511 4.628 9.133 1.29 1.96 2.895 4.398 2.895 5.605 0 1.21-1.605 3.648-2.895 5.605zm0 0"/><path d="M354.637 55.137c0 4.14-3.36 7.5-7.5 7.5s-7.5-3.36-7.5-7.5 3.36-7.5 7.5-7.5 7.5 3.36 7.5 7.5zm44.726 44.726c0 4.14-3.36 7.5-7.5 7.5s-7.5-3.36-7.5-7.5 3.36-7.5 7.5-7.5 7.5 3.36 7.5 7.5zm-12.457-50.379l-45.422 45.422a7.502 7.502 0 0 0 10.61 10.61l45.422-45.422a7.502 7.502 0 0 0 0-10.61 7.51 7.51 0 0 0-10.61 0zm0 0"/></svg>