<svg height="512pt" viewBox="0 0 512 512" width="512pt" xmlns="http://www.w3.org/2000/svg"><path d="M504.5 0H191.668c-4.145 0-7.5 3.355-7.5 7.5s3.355 7.5 7.5 7.5H497v65H122.258V15h38.5c4.144 0 7.5-3.355 7.5-7.5s-3.356-7.5-7.5-7.5h-46a7.5 7.5 0 0 0-7.5 7.5l.004 119.5H7.5a7.497 7.497 0 0 0-7.5 7.5v313.168c0 4.14 3.355 7.5 7.5 7.5s7.5-3.36 7.5-7.5V222h433c4.145 0 7.5-3.355 7.5-7.5s-3.355-7.5-7.5-7.5H15v-65h482v65h-17.168c-4.14 0-7.5 3.355-7.5 7.5s3.36 7.5 7.5 7.5H497v275H15v-17c0-4.145-3.355-7.5-7.5-7.5S0 475.855 0 480v24.5c0 4.145 3.355 7.5 7.5 7.5h497c4.145 0 7.5-3.355 7.5-7.5V7.5c0-4.145-3.355-7.5-7.5-7.5zM122.262 127V95H497v32zm0 0"/><path d="M138.258 47c0 12.406 10.094 22.5 22.5 22.5s22.5-10.094 22.5-22.5-10.094-22.5-22.5-22.5-22.5 10.094-22.5 22.5zm30 0c0 4.137-3.363 7.5-7.5 7.5-4.137 0-7.5-3.363-7.5-7.5s3.363-7.5 7.5-7.5c4.137 0 7.5 3.363 7.5 7.5zm75 0c0-12.406-10.094-22.5-22.5-22.5s-22.5 10.094-22.5 22.5 10.094 22.5 22.5 22.5 22.5-10.094 22.5-22.5zm-30 0c0-4.137 3.363-7.5 7.5-7.5 4.137 0 7.5 3.363 7.5 7.5s-3.363 7.5-7.5 7.5a7.507 7.507 0 0 1-7.5-7.5zm90 0c0-12.406-10.094-22.5-22.5-22.5s-22.5 10.094-22.5 22.5 10.094 22.5 22.5 22.5 22.5-10.094 22.5-22.5zm-30 0c0-4.137 3.363-7.5 7.5-7.5 4.137 0 7.5 3.363 7.5 7.5s-3.363 7.5-7.5 7.5a7.507 7.507 0 0 1-7.5-7.5zM31 174c0 12.406 10.094 22.5 22.5 22.5S76 186.406 76 174s-10.094-22.5-22.5-22.5S31 161.594 31 174zm30 0c0 4.137-3.363 7.5-7.5 7.5S46 178.137 46 174s3.363-7.5 7.5-7.5 7.5 3.363 7.5 7.5zm30 0c0 12.406 10.094 22.5 22.5 22.5S136 186.406 136 174s-10.094-22.5-22.5-22.5S91 161.594 91 174zm30 0c0 4.137-3.363 7.5-7.5 7.5s-7.5-3.363-7.5-7.5 3.363-7.5 7.5-7.5 7.5 3.363 7.5 7.5zm30 0c0 12.406 10.094 22.5 22.5 22.5S196 186.406 196 174s-10.094-22.5-22.5-22.5S151 161.594 151 174zm30 0c0 4.137-3.363 7.5-7.5 7.5s-7.5-3.363-7.5-7.5 3.363-7.5 7.5-7.5 7.5 3.363 7.5 7.5zm50.902 94.027h-176c-4.14 0-7.5 3.36-7.5 7.5v148a7.5 7.5 0 0 0 7.5 7.5h176c4.145 0 7.5-3.355 7.5-7.5v-148a7.5 7.5 0 0 0-7.5-7.5zm-7.5 15v63.082l-45.968 39.961-60.356-46.183c-4.285-3.278-10.34-3.078-14.398.484l-40.278 35.344v-92.688zm-161 133v-20.355l47.93-42.059 81.566 62.414zm161 0h-6.816l-26.992-20.648 33.808-29.395zm0 0"/><path d="M184.203 342.207c14.563 0 26.414-11.852 26.414-26.418 0-14.562-11.851-26.414-26.414-26.414-14.566 0-26.418 11.852-26.418 26.414 0 14.566 11.852 26.418 26.418 26.418zm0-37.832c6.293 0 11.414 5.121 11.414 11.414 0 6.297-5.12 11.418-11.414 11.418-6.297 0-11.418-5.121-11.418-11.418 0-6.293 5.121-11.414 11.418-11.414zm99.5 40.125h163.965a7.5 7.5 0 1 0 0-15H283.703a7.497 7.497 0 0 0-7.5 7.5 7.5 7.5 0 0 0 7.5 7.5zm0-42.547h81.98c4.145 0 7.5-3.355 7.5-7.5a7.5 7.5 0 0 0-7.5-7.5h-81.98a7.5 7.5 0 0 0-7.5 7.5c0 4.145 3.356 7.5 7.5 7.5zm0 78.547h163.965a7.5 7.5 0 1 0 0-15H283.703a7.497 7.497 0 0 0-7.5 7.5 7.5 7.5 0 0 0 7.5 7.5zm0 36h163.965a7.5 7.5 0 1 0 0-15H283.703a7.497 7.497 0 0 0-7.5 7.5 7.5 7.5 0 0 0 7.5 7.5zm-229.23 47.395a7.5 7.5 0 0 0 7.5 7.5h385.695a7.5 7.5 0 1 0 0-15H61.973a7.497 7.497 0 0 0-7.5 7.5zm0 0"/></svg>