<svg height="512pt" viewBox="0 0 512 512" width="512pt" xmlns="http://www.w3.org/2000/svg"><path d="M504.5 472.25a7.497 7.497 0 0 0-7.5 7.5V497H15V236c0-4.145-3.355-7.5-7.5-7.5S0 231.855 0 236v268.5c0 4.145 3.355 7.5 7.5 7.5h497c4.145 0 7.5-3.355 7.5-7.5v-24.75c0-4.145-3.355-7.5-7.5-7.5zm0 0"/><path d="M504.5 105h-55.75c-4.145 0-7.5 3.355-7.5 7.5s3.355 7.5 7.5 7.5H497v65H293.5v-65H416c4.145 0 7.5-3.355 7.5-7.5s-3.355-7.5-7.5-7.5H293.5V21.969C293.5 9.855 283.629 0 271.5 0h-31c-12.133 0-22 9.855-22 21.969V105H7.5a7.497 7.497 0 0 0-7.5 7.5v91.125c0 4.145 3.355 7.5 7.5 7.5s7.5-3.355 7.5-7.5V200h203.5v44.5H60c-4.145 0-7.5 3.355-7.5 7.5s3.355 7.5 7.5 7.5h158.5v18.328H60a7.5 7.5 0 0 0-7.5 7.5c0 4.145 3.355 7.5 7.5 7.5h158.5v18.344H60a7.497 7.497 0 0 0-7.5 7.5 7.5 7.5 0 0 0 7.5 7.5h158.5v70.05c0 4.833 2.79 9.016 6.84 11.055-2.192 10.91-.707 29.907 20.637 56.442 2.437 3.031 6.09 4.77 10.023 4.77 3.93 0 7.582-1.739 10.02-4.77 21.355-26.535 22.835-45.528 20.64-56.438 4.05-2.043 6.84-6.226 6.84-11.058v-70.051H452a7.5 7.5 0 0 0 7.5-7.5c0-4.145-3.355-7.5-7.5-7.5H293.5v-18.344H452c4.145 0 7.5-3.355 7.5-7.5a7.5 7.5 0 0 0-7.5-7.5H293.5V259.5H452c4.145 0 7.5-3.355 7.5-7.5s-3.355-7.5-7.5-7.5H293.5V200H497v248.25c0 4.145 3.355 7.5 7.5 7.5s7.5-3.355 7.5-7.5V112.5c0-4.145-3.355-7.5-7.5-7.5zM235.668 393.61H233.5v-14.938h45v14.937zM233.5 60.694h45v14.942h-45zm0 302.977V90.637h45v273.035zM240.5 15h31c3.86 0 7 3.129 7 6.969v23.73h-45V21.97c0-3.84 3.14-6.969 7-6.969zM15 185v-65h203.5v65zm241 267.207c-18.203-23.508-17.277-37.8-15.594-43.598h8.094v12.461a7.5 7.5 0 1 0 15 0v-12.46h8.14c1.65 5.675 2.65 19.984-15.64 43.597zm0 0"/><path d="M159.926 359.5c4.14 0 7.5-3.355 7.5-7.5s-3.36-7.5-7.5-7.5H60c-4.145 0-7.5 3.355-7.5 7.5s3.355 7.5 7.5 7.5zM53.5 129.5C41.094 129.5 31 139.594 31 152s10.094 22.5 22.5 22.5S76 164.406 76 152s-10.094-22.5-22.5-22.5zm0 30c-4.137 0-7.5-3.363-7.5-7.5s3.363-7.5 7.5-7.5 7.5 3.363 7.5 7.5-3.363 7.5-7.5 7.5zm60-30c-12.406 0-22.5 10.094-22.5 22.5s10.094 22.5 22.5 22.5S136 164.406 136 152s-10.094-22.5-22.5-22.5zm0 30c-4.137 0-7.5-3.363-7.5-7.5s3.363-7.5 7.5-7.5 7.5 3.363 7.5 7.5-3.363 7.5-7.5 7.5zm60-30c-12.406 0-22.5 10.094-22.5 22.5s10.094 22.5 22.5 22.5S196 164.406 196 152s-10.094-22.5-22.5-22.5zm0 30c-4.137 0-7.5-3.363-7.5-7.5s3.363-7.5 7.5-7.5 7.5 3.363 7.5 7.5-3.363 7.5-7.5 7.5zm0 0"/></svg>