<svg height="512pt" viewBox="-51 0 512 512.047" width="512pt" xmlns="http://www.w3.org/2000/svg"><path d="M51.223 512.047h307.199c28.265-.027 51.172-22.934 51.203-51.2V102.446c-.031-28.265-22.938-51.172-51.203-51.199h-57.856a25.458 25.458 0 0 0-18.941-8.531h-26.309C251.172 18.059 229.824 0 204.824 0c-25.004 0-46.347 18.059-50.492 42.715h-26.309a25.466 25.466 0 0 0-18.945 8.531H51.223C22.957 51.273.05 74.18.023 102.446v358.402c.028 28.265 22.934 51.172 51.2 51.199zm307.199-128h-59.73c-9.426 0-17.067 7.64-17.067 17.066v59.735H59.758a8.534 8.534 0 0 1-8.535-8.535V110.98a8.534 8.534 0 0 1 8.535-8.535h42.664c0 14.14 11.465 25.602 25.601 25.602h153.602c14.137 0 25.598-11.461 25.598-25.602h42.668c4.71 0 8.53 3.82 8.53 8.535zm-12.067 17.066l-47.664 47.668v-47.668zM128.023 59.781h34.133a8.534 8.534 0 0 0 8.535-8.535c0-18.851 15.282-34.133 34.133-34.133 18.852 0 34.133 15.282 34.133 34.133a8.533 8.533 0 0 0 8.531 8.535h34.137c4.71 0 8.531 3.82 8.531 8.532v34.132a8.533 8.533 0 0 1-8.531 8.535H128.023a8.534 8.534 0 0 1-8.535-8.535V68.313a8.533 8.533 0 0 1 8.535-8.532zM17.09 102.445c0-18.851 15.281-34.132 34.133-34.132h51.199v17.066H59.758c-14.14 0-25.602 11.46-25.602 25.601v341.333c0 14.14 11.461 25.601 25.602 25.601H283.09a25.492 25.492 0 0 0 10.242-2.184c.16-.062.29-.164.441-.23a25.639 25.639 0 0 0 7.399-5.121l66.8-66.8a25.55 25.55 0 0 0 5.06-7.356c.085-.18.198-.325.265-.504a25.452 25.452 0 0 0 2.176-10.239v-274.5c0-14.14-11.461-25.601-25.602-25.601h-42.648V68.312h51.199c18.851 0 34.133 15.282 34.133 34.133v358.403c0 18.851-15.282 34.132-34.133 34.132h-307.2c-18.85 0-34.132-15.28-34.132-34.132zm0 0"/><path d="M162.156 93.914h85.332a8.534 8.534 0 1 0 0-17.066h-85.332a8.532 8.532 0 0 0-8.531 8.53 8.533 8.533 0 0 0 8.531 8.536zm-17.066 128c-4.711 0-8.535 3.82-8.535 8.531v8.535h-51.2v-51.199h25.602a8.533 8.533 0 0 0 8.531-8.535c0-4.71-3.82-8.531-8.531-8.531H85.355c-9.425 0-17.066 7.64-17.066 17.066v51.2c0 9.425 7.64 17.066 17.066 17.066h51.2c9.425 0 17.07-7.64 17.07-17.067v-8.535c0-4.71-3.82-8.53-8.535-8.53zm-8.535 68.266h-51.2c-9.425 0-17.066 7.64-17.066 17.066v51.2c0 9.425 7.64 17.066 17.066 17.066h51.2c9.425 0 17.07-7.64 17.07-17.067v-51.199c0-9.426-7.645-17.066-17.07-17.066zm-51.2 68.265v-51.199h51.2v51.2zm93.868-153.597h42.668c4.71 0 8.53-3.82 8.53-8.536 0-4.71-3.82-8.53-8.53-8.53h-42.668a8.532 8.532 0 0 0-8.532 8.53 8.533 8.533 0 0 0 8.532 8.536zm153.601-17.067h-76.8a8.533 8.533 0 1 0 0 17.067h76.8c4.711 0 8.531-3.82 8.531-8.536 0-4.71-3.82-8.53-8.53-8.53zM179.223 238.98h85.332a8.534 8.534 0 1 0 0-17.066h-85.332a8.532 8.532 0 0 0-8.532 8.531 8.533 8.533 0 0 0 8.532 8.535zm153.601-17.066h-34.133a8.533 8.533 0 1 0 0 17.066h34.133a8.533 8.533 0 0 0 8.531-8.535c0-4.71-3.82-8.53-8.53-8.53zM179.223 324.313h42.668c4.71 0 8.53-3.82 8.53-8.532a8.533 8.533 0 0 0-8.53-8.535h-42.668a8.533 8.533 0 0 0-8.532 8.535 8.532 8.532 0 0 0 8.532 8.531zm153.601-17.067h-76.8a8.534 8.534 0 1 0 0 17.067h76.8a8.532 8.532 0 0 0 8.531-8.532 8.533 8.533 0 0 0-8.53-8.535zm-68.269 34.133h-85.332a8.533 8.533 0 0 0-8.532 8.535 8.532 8.532 0 0 0 8.532 8.531h85.332a8.533 8.533 0 1 0 0-17.066zm68.269 0h-34.133a8.534 8.534 0 1 0 0 17.066h34.133a8.533 8.533 0 0 0 0-17.066zm0 0"/><path d="M155.219 157.223l-36.82 51.53-9.942-9.94a8.53 8.53 0 0 0-11.96.105 8.53 8.53 0 0 0-.106 11.96l17.066 17.067a8.527 8.527 0 0 0 6.031 2.5h.703a8.523 8.523 0 0 0 6.235-3.547l42.668-59.734a8.533 8.533 0 1 0-13.875-9.918zm0 0"/></svg>