<svg height="512pt" viewBox="0 0 512 512" width="512pt" xmlns="http://www.w3.org/2000/svg"><path d="M486.398 223.078V34.133C486.398 15.28 471.118 0 452.266 0H59.734C40.883 0 25.602 15.281 25.602 34.133v120.68C10.574 158.69.059 172.214 0 187.733v290.133C0 496.72 15.281 512 34.133 512h443.734C496.72 512 512 496.719 512 477.867V256c-.059-15.516-10.574-29.043-25.602-32.922zM59.734 17.066h392.532c9.425 0 17.066 7.641 17.066 17.067v187.734H196.266c-14.137 0-25.598-11.46-25.598-25.601v-8.532c0-18.851-15.285-34.132-34.133-34.132H42.668V34.132c0-9.425 7.64-17.066 17.066-17.066zm435.2 460.801c0 9.426-7.641 17.067-17.067 17.067H34.133c-9.426 0-17.067-7.641-17.067-17.067V187.734c0-9.425 7.641-17.066 17.067-17.066h102.402c9.426 0 17.067 7.64 17.067 17.066v8.532c.027 23.554 19.113 42.64 42.664 42.668h281.601c9.426 0 17.067 7.64 17.067 17.066zm0 0"/><path d="M42.668 187.734a8.533 8.533 0 0 0-8.535 8.532v273.066a8.534 8.534 0 1 0 17.066 0V196.266a8.533 8.533 0 0 0-8.531-8.532zM68.266 76.8h375.468a8.533 8.533 0 0 0 0-17.066H68.266a8.532 8.532 0 0 0-8.532 8.532 8.533 8.533 0 0 0 8.532 8.535zM204.8 153.602a8.533 8.533 0 1 0 0 17.066h93.868c4.71 0 8.531-3.82 8.531-8.535a8.532 8.532 0 0 0-8.531-8.531zm221.868 0h-85.336a8.532 8.532 0 0 0-8.531 8.53 8.533 8.533 0 0 0 8.531 8.536h85.336c4.71 0 8.531-3.82 8.531-8.535a8.532 8.532 0 0 0-8.531-8.531zm0 34.132H204.801a8.533 8.533 0 1 0 0 17.067h221.867c4.71 0 8.531-3.82 8.531-8.535a8.533 8.533 0 0 0-8.531-8.532zm-290.133-68.269H85.332c-4.71 0-8.531 3.824-8.531 8.535s3.82 8.535 8.531 8.535h51.203c4.711 0 8.531-3.824 8.531-8.535s-3.82-8.535-8.53-8.535zM324.266 128c0-4.71-3.82-8.535-8.532-8.535H179.2c-4.71 0-8.531 3.824-8.531 8.535s3.82 8.535 8.531 8.535h136.535c4.711 0 8.532-3.824 8.532-8.535zm102.402-8.535h-68.27c-4.71 0-8.53 3.824-8.53 8.535s3.82 8.535 8.53 8.535h68.27c4.71 0 8.531-3.824 8.531-8.535s-3.82-8.535-8.531-8.535zm-73.754 222.269l-25.098-4.574 14.508-20.95c4.7-6.784 3.875-15.96-1.965-21.792l-11.824-11.856a17.075 17.075 0 0 0-21.789-1.96l-20.95 14.507-4.573-25.113A17.063 17.063 0 0 0 264.406 256h-16.812a17.07 17.07 0 0 0-16.793 14.012l-4.574 25.105-20.95-14.508c-6.777-4.699-15.949-3.875-21.785 1.953l-11.86 11.836a17.067 17.067 0 0 0-1.964 21.797l14.508 20.95-25.098 4.574a17.068 17.068 0 0 0-14.012 16.8v16.829a17.07 17.07 0 0 0 14.02 16.785l25.098 4.574-14.508 20.95a17.067 17.067 0 0 0 1.965 21.792l11.859 11.852c5.832 5.836 15.004 6.66 21.785 1.965l20.95-14.508 4.574 25.113c1.484 8.106 8.546 13.996 16.785 13.996h16.812a17.07 17.07 0 0 0 16.793-14.012l4.574-25.105 20.95 14.508c6.777 4.699 15.949 3.875 21.785-1.957l11.86-11.852c5.839-5.836 6.667-15.011 1.964-21.793l-14.508-20.949 25.098-4.574a17.066 17.066 0 0 0 14.012-16.785V358.52a17.07 17.07 0 0 0-14.02-16.786zm-3.047 33.606l-30.969 5.64a8.538 8.538 0 0 0-6.57 5.707 58.736 58.736 0 0 1-2.629 6.442 8.536 8.536 0 0 0 .727 8.45l17.879 25.796-11.864 11.852-25.796-17.868a8.53 8.53 0 0 0-8.457-.726 60.654 60.654 0 0 1-6.442 2.629 8.528 8.528 0 0 0-5.7 6.57l-5.64 30.969h-16.82l-5.633-30.969a8.528 8.528 0 0 0-5.7-6.57 60.654 60.654 0 0 1-6.44-2.63 8.53 8.53 0 0 0-8.458.727l-25.796 17.875-11.864-11.859 17.88-25.797a8.536 8.536 0 0 0 .726-8.45 58.736 58.736 0 0 1-2.63-6.44 8.538 8.538 0 0 0-6.57-5.708l-30.968-5.632v-16.82l30.969-5.641a8.538 8.538 0 0 0 6.57-5.707 59.07 59.07 0 0 1 2.629-6.446 8.53 8.53 0 0 0-.727-8.445l-17.879-25.797 11.864-11.851 25.796 17.867a8.54 8.54 0 0 0 8.458.726 60.7 60.7 0 0 1 6.44-2.629 8.528 8.528 0 0 0 5.7-6.57l5.64-30.969h16.821l5.633 30.97a8.528 8.528 0 0 0 5.7 6.57 60.654 60.654 0 0 1 6.44 2.628 8.54 8.54 0 0 0 8.458-.726l25.796-17.88 11.864 11.864-17.88 25.797a8.53 8.53 0 0 0-.726 8.445 59.113 59.113 0 0 1 2.63 6.446 8.538 8.538 0 0 0 6.57 5.707l30.968 5.633zm0 0"/><path d="M256 332.8c-18.852 0-34.133 15.282-34.133 34.134 0 18.851 15.281 34.132 34.133 34.132s34.133-15.28 34.133-34.132c0-18.852-15.281-34.133-34.133-34.133zm0 51.2c-9.426 0-17.066-7.64-17.066-17.066 0-9.426 7.64-17.067 17.066-17.067s17.066 7.64 17.066 17.067c0 9.425-7.64 17.066-17.066 17.066zm0 0"/></svg>